<svg width="286" height="314" viewBox="0 0 286 314" fill="none" xmlns="http://www.w3.org/2000/svg">
<g clip-path="url(#clip0_58:2452)">
<path d="M143.702 251.1C143.702 271.8 143.702 292.5 143.702 313.1C143.402 313.1 143.002 313.1 142.702 313.1C141.102 311.4 141.102 309.2 141.102 307C141.102 301.2 140.902 295.4 141.202 289.6C141.402 280.8 140.302 280 132.402 283.9C122.002 288.9 115.502 297.1 113.302 308.5C113.002 310.1 113.102 311.9 111.802 313.1C100.102 313.1 88.5019 313.1 76.8019 313.1C76.8019 300.4 76.9019 287.8 76.9019 275.1C79.2019 273.7 80.6019 275.8 82.3019 276.5C90.1019 280 97.6019 279.6 104.402 274.4C110.402 269.8 112.902 263.4 111.802 255.9C110.902 249.6 108.302 248.5 102.502 251.3C97.9019 253.5 97.9019 253.5 96.8019 248.7C96.2019 246.8 97.6019 246.4 98.9019 245.8C100.902 245.1 102.102 243.9 102.002 241.6C102.102 240.4 102.502 239.4 103.502 238.7C106.002 237.5 103.802 236.7 103.302 235.8C102.902 235.2 102.602 234.6 102.502 233.9C102.502 233.4 102.702 233 103.102 232.7C105.102 231.4 107.802 235.6 109.402 231.8C112.002 229.3 114.002 226.5 114.702 222.9C117.202 223.9 117.002 221.3 118.002 220.3C118.902 219.4 119.802 218.4 120.902 217.5C119.702 217.7 118.802 218.6 117.702 218.9C115.902 219.5 114.202 220.3 112.502 221.2C103.302 225.5 93.6019 228.5 84.0019 231.5C81.8019 232.2 79.4019 233.7 76.9019 231.9C75.8019 228.7 73.8019 231 72.5019 231.4C61.3019 235 50.0019 238.6 38.3019 240.5C29.7019 241.9 21.1019 242.6 12.6019 240.1C1.60194 236.9 -2.39806 229 1.60194 218.2C4.30194 210.9 9.30194 205 14.6019 199.4C28.4019 184.7 44.3019 172.7 60.9019 161.6C64.3019 159.3 65.2019 157.9 62.5019 154.1C57.3019 146.9 56.3019 138.8 60.0019 130.5C64.8019 119.6 74.7019 117.4 83.8019 125C85.7019 126.6 87.4019 128.4 88.7019 130.6C87.7019 132.7 84.6019 133.6 85.2019 136.9C85.5019 138.6 83.7019 138.2 82.6019 137.9C80.4019 137.3 79.0019 138.5 79.2019 140.3C79.7019 145.3 76.5019 147.4 72.9019 149.4C72.3019 149.7 71.8019 150.1 71.6019 151.6C78.9019 146.7 86.1019 142.5 92.9019 137.6C93.0019 132.8 93.0019 128 93.1019 123.2C96.7019 124.2 100.202 121.2 103.702 123.1C103.702 127.2 103.802 131.4 103.702 135.5C103.602 137.9 104.202 139.3 107.002 139.1C110.702 138.8 114.302 139.4 117.702 140.6C120.602 141.6 120.702 140.2 120.702 138C120.702 133.4 120.802 128.7 120.802 124.1C124.002 125 127.602 123.2 130.702 125.1C131.502 132.1 129.902 139.2 131.702 146.2C135.602 148.3 137.902 152 140.202 155.6C141.802 158.1 142.902 158.4 144.902 156C149.402 150.6 154.502 145.9 161.202 143.4C163.002 142.7 164.802 141.5 166.802 142.9C167.002 145.5 167.902 147.9 170.002 149.3C173.702 151.8 175.902 155.9 180.002 158.1C182.802 159.6 182.902 162.7 183.502 165.5C181.902 174 175.402 178.4 168.802 182.4C162.602 186.2 155.802 188.8 148.902 191C144.102 191.7 145.802 196.2 144.302 198.9C139.202 198.8 129.902 205.1 127.902 210C126.602 213.1 129.902 221.3 132.902 222.7C134.402 223.4 135.102 222.5 135.702 221.6C137.402 219.3 140.202 218.3 141.902 216C143.402 214 144.302 215.3 144.902 217C145.802 227 145.302 237.1 145.202 247.1C145.202 248.5 144.802 249.9 143.702 251.1Z" fill="#FBB133"/>
<path d="M111.703 313.1C111.903 298 119.803 288 133.103 281.9C141.203 278.2 142.703 279.2 142.603 288.1C140.203 289.6 139.403 292.2 138.203 294.5C136.803 297.3 136.803 301.3 132.203 301.3C131.903 301.3 131.603 301.7 131.503 302C129.903 308.2 124.003 309.9 119.603 313.2C117.003 313.1 114.303 313.1 111.703 313.1Z" fill="#FB9333"/>
<path d="M119.703 313.1C119.703 308.7 124.503 309.8 126.303 307.3C127.603 305.5 130.103 304.7 129.803 301.8C129.703 301.1 130.503 299.8 130.903 299.8C137.303 300.3 135.903 294.1 138.303 291.3C139.503 289.9 139.503 286.7 142.703 288.1C142.703 296.4 142.703 304.8 142.703 313.1C135.003 313.1 127.303 313.1 119.703 313.1Z" fill="#FBAF32"/>
<path d="M143.703 251.1C143.603 239.2 143.403 227.2 143.303 215.3C141.503 212.5 142.103 209.5 142.603 206.6C147.703 204 145.903 197.8 149.303 194.2C150.303 193.1 149.003 191.4 148.603 190C155.003 187.3 161.703 185.3 167.803 181.7C174.503 177.8 180.503 173.1 182.703 165.1C182.503 160.8 181.603 156.4 182.803 152.1C183.303 151.1 184.003 150.4 185.003 151.5C185.803 152.4 185.803 153.6 186.203 154.7C186.503 155.7 187.003 156.6 188.203 156.6C188.503 156.6 188.903 156.4 189.003 156.1C189.503 154.9 188.703 154.2 187.903 153.7C185.603 152 183.903 149.8 182.403 147.4C181.303 145.7 181.003 144 182.803 142.5C184.203 141.4 185.403 141.2 186.303 143.2C189.203 149 194.603 153.1 197.203 159.2C197.903 160.8 199.603 161.4 201.403 160.4C203.103 158.3 206.003 159.1 208.003 156.4C210.103 153.6 209.303 153.3 207.403 152.1C206.803 151.7 206.203 151.5 205.703 151.1C204.803 150.6 204.103 150 203.303 149.5C201.403 148.2 199.103 146.7 200.203 144.1C201.303 141.6 203.903 142.2 206.203 142.6C207.403 144.7 208.103 143.9 208.703 142.1C209.803 138.7 211.003 139.9 212.503 142C213.103 140.9 212.903 139.3 214.003 138.3C215.503 137.1 214.603 135.6 214.503 134.2C214.203 130.7 216.003 129 219.403 129.4C220.403 129.5 221.303 129.6 222.303 129.3C223.503 128.9 225.003 127.9 225.703 129.7C226.203 131 225.403 132.2 224.803 133.4C224.103 134.7 220.703 134 222.403 137.4C224.003 140.6 226.303 139.7 228.703 139.6C229.203 139.6 229.703 139.7 229.903 139C229.503 137.6 228.003 137.3 227.003 136.6C226.203 136 225.403 135.4 225.203 134.3C224.703 131.2 231.303 120.5 234.303 119.7C235.903 119.3 237.203 120.1 238.403 120.9C239.703 121.9 240.703 123.3 242.203 124.1C244.903 125.7 247.503 127.5 250.103 129.2C246.503 125.4 246.503 125.4 246.403 116.1C248.303 115.3 252.203 115.7 248.703 111.8C248.003 111.1 247.703 109.9 248.703 109.2C250.003 108.3 251.103 109.5 252.403 109.9C250.803 108.9 249.403 107.7 248.103 106.4C246.303 104.7 247.503 103 248.403 101.5C249.603 99.6 251.203 100.3 252.703 101.2C254.103 102.1 255.403 103.3 257.103 103.3C261.903 103.3 263.503 105.4 261.703 109.9C264.203 111.8 264.203 114.4 264.403 117.4C266.203 143.8 268.903 170.2 272.703 196.3C274.903 211.2 278.703 225.8 283.403 240.2C283.903 241.6 284.303 243.1 284.503 244.5C285.103 250 284.203 251 278.603 250.9C269.903 250.8 270.603 252.5 267.103 243.3C266.603 242 266.203 239.7 264.403 240.5C262.503 241.3 264.303 243.1 264.703 244.4C267.203 250.9 267.203 250.9 260.403 250.9C241.303 250.9 222.103 250.9 203.003 250.9C200.903 250.9 198.603 251.3 196.703 249.9C193.303 244.5 193.803 237.9 191.803 233.1C192.603 237 194.003 241.9 194.903 246.8C195.103 247.9 195.503 249.1 194.503 250C193.203 251.5 191.403 250.9 189.803 250.9C174.503 251.1 159.103 251.1 143.703 251.1Z" fill="#E1A8D3"/>
<path d="M206.6 143.2C204.5 143.2 201.4 143.4 201 144.6C200.2 147 203.3 147.7 204.9 149C205.4 149.4 206 149.8 206.5 150.2C206.7 152.3 205.3 151.7 204.3 151.4C202.4 151 200.8 149.7 198.8 149.2C199 151.5 201.4 153.5 199.6 155.7C198.6 156.9 197.6 155.2 196.6 154.8C198.5 156.7 202.5 156.9 201.6 161C199.5 162.9 197 162.6 195.8 160C195.2 158.6 194 157.5 193.6 156.2C192.4 152.4 190.3 149.5 186.7 147.8C184 146.6 185.1 144.4 185.2 142.2C182.3 144.8 183.3 148.9 187.1 151.5C187.9 152.1 189 152.2 189.7 152.8C190.9 153.8 191.7 155.1 191.4 156.7C191 158.5 189.2 157.8 188.1 158.2C186.1 158.9 185.5 157.3 184.8 156C184 154.5 185.6 152.2 183.3 151.2C182.2 151.1 181.4 150.4 180.9 149.6C178.4 145.8 174.7 144.3 170.3 144.3C169 144.3 167.6 144.3 166.6 143.1C155.6 144.9 148.7 152.3 142.1 161.3C139.4 155.3 134.7 151.3 131.5 146.1C132 135.8 132 135.8 142.5 133.9C149 132.7 155.3 130.7 161.7 128.8C174.6 125 179.7 114.3 184.2 103.3C188.1 94 192.1 84.7 194.4 74.7C194.8 72.7 195.1 71.3 197.4 73.2C209.8 83.3 228.5 75.2 232.6 59.8C235.2 49.6 235.9 39.2 236.5 28.8C236.7 24.8 237.3 20.9 237.6 16.9C237.7 15.9 238 14.2 236.2 14.3C235.1 14.3 234.8 15.5 234.7 16.6C234.4 20.2 233.8 23.8 233.7 27.5C233.3 37.3 232.7 47 230.6 56.6C228 68.6 218.1 77.3 204.6 73.8C198.2 72.1 195.8 68.6 197.7 62.1C201.9 47.6 203.2 32.5 208.7 18.3C214.1 4.09999 234.4 -5.30001 246.9 2.39999C253.4 6.39999 258.3 11.3 258.8 19.6C259.1 24.6 261.5 28.1 266.9 29.6C271.3 30.9 276.1 31.2 279.9 34.1C280.9 35.2 281.7 36.4 281.7 38C281.9 42.7 279.8 45.5 274.9 45.9C273.8 46 272.2 46 272.5 47.6C272.7 49 274.3 48.9 275.4 48.8C278.3 48.6 280.5 46.7 283.4 45.9C282.1 48.6 279.9 50.2 276.9 50.8C270.6 52 264.5 54 258 53.8C256.9 53.8 255.7 53.7 254.8 54.7C254.3 56.7 252.3 55.9 250.9 56.7C253.7 58.4 255.8 60.8 258.5 62.4C260.3 63.4 261.3 64.7 260.8 66.8C261.6 68 262.8 68.8 262.8 70.6C262.9 81.3 263.7 92.1 264.8 102.7C265.1 105.6 264.3 107.9 261.9 109.6C260.2 108.2 259.9 106.8 262.7 105.2C258.3 104.1 253.8 104.9 251.2 101.1C250.9 100.7 249.5 101.1 249.6 101.2C251.5 103.1 247.7 103.6 248.6 104.7C249.8 106.1 251.5 107.2 253.2 108C253.7 108.3 255.3 106.1 255.5 108.4C255.6 110 253.9 110.4 252.6 110.4C251.5 110.4 250.5 109.7 249 109.1C248.9 112.1 254.8 112.4 251.8 115.9C250.4 117.6 248.4 116.5 246.7 115.8C245.3 117.6 241.1 117.9 243.9 121.8C244.4 122.5 242.2 123.6 241.6 124.7C241.1 124.6 240.4 124.6 240.2 124.3C238.7 122.2 235.7 119.1 234.7 120.4C232.9 122.8 229.4 123.1 228.6 127.6C227.7 132.5 226 135.7 231.6 138.2C232.3 138.5 232.7 139.9 231.8 140.8C231.1 141.5 230.4 141.5 229.6 141.1C228.7 140.6 227.9 139.7 226.6 140.8C223.7 143.1 221.6 140.1 221.6 138.5C221.6 136.2 219.4 135.7 219 133.7C222.1 133.8 225.1 133.6 224.9 129.1C222.7 129.3 220.7 134.1 218.2 129.7C217.9 129.1 216.8 130.2 216.3 130.8C215.4 132 214.4 133.3 216 134.7C218.6 137.1 216.6 137.9 214.7 138.8C212.4 138.2 211.3 136.5 210.7 134.5C208.7 137.3 211.2 141.9 206.6 143.2Z" fill="#FEFEFE"/>
<path d="M97.7 248.2C98.5 248.5 99.4 249 98.8 249.9C98.2 250.8 97.5 251.6 98.8 252.3C99.8 252.8 100.2 251.8 100.6 251.1C102.8 247.2 107.6 250.8 110.1 247.8C111.1 249.8 112.3 251.7 112.9 254C115.3 263.7 110 273 103.1 277.1C97.1 280.6 87.7 282.4 78.8 275.7C78.3 275.3 77.6 275.3 77 275C77 273.4 77 271.7 77 270.1C78.3 269.2 78.1 267.9 78.1 266.5C78.1 264.4 78.3 262.3 81.5 263.5C84.1 264.4 84.9 261.8 86.1 260.5C87.4 259.1 88.6 257.6 90.3 256.7C92 255.2 91.5 251.9 94.5 251.3C95.2 250.9 95.4 250.1 95.6 249.4C95.7 248.4 96.9 248.7 97.7 248.2Z" fill="#FB9133"/>
<path d="M95.8008 250.1C96.5008 250.7 97.4008 251.4 95.7008 251.9C90.8008 250.7 91.2008 255.3 89.4008 257.6C86.7008 256.1 84.4008 257.9 83.4008 259.7C81.7008 262.7 79.6008 262.9 76.8008 262.2C76.8008 252.2 76.8008 242.2 76.8008 232.1C89.1008 229.3 100.701 224.3 112.701 220.2C114.301 219.1 114.901 220 115.201 221.5C114.201 223.8 113.201 225.9 110.501 226.8C108.201 227.6 107.701 229.9 107.501 232.1C106.501 234.9 104.101 231.5 102.801 233.2C102.701 233.5 102.701 233.8 102.801 234.2C102.001 235.8 100.501 237 99.7008 238.6C99.4008 239.2 96.1008 239.2 99.2008 241C100.801 241.9 98.9008 243.2 97.9008 243.9C95.8008 245.4 94.4008 247.2 95.8008 250.1Z" fill="#030201"/>
<path d="M130.602 125.1C128.802 125.4 126.702 124.3 125.502 126.9C124.802 128.4 124.002 127.4 123.602 126.3C123.102 124.8 122.102 124.2 120.702 124.1C118.302 120.9 115.702 117.9 117.502 113.4C119.602 108.3 124.902 106.2 129.702 108.6C134.202 110.9 135.702 116.5 133.002 120.9C132.202 122.3 130.702 123.3 130.602 125.1Z" fill="#FB9334"/>
<path d="M103.603 123.1C102.303 123.9 100.903 124.4 99.3034 123.9C98.6034 123.7 97.9033 123.1 97.1033 123.9C95.0033 126 95.0033 126 92.9033 123.2C88.6033 118.1 88.5033 113.3 92.6033 109.7C96.3033 106.4 101.703 106.9 105.003 110.8C108.003 114.4 107.503 119 103.603 123.1Z" fill="#FB9333"/>
<path d="M92.8018 137.7C93.2018 139.6 91.9018 140.2 90.6018 141.1C84.7018 144.8 78.9018 148.6 73.0018 152.3C72.1018 152.9 71.2018 154.4 69.8018 152.9C68.3018 151.2 69.5018 150.3 70.8018 149.5C71.7018 149 71.6018 147 73.3018 147.7C74.0018 145.1 80.7018 145.6 76.8018 140.5C75.7018 139.1 78.5018 138.5 79.4018 137.5C81.5018 134.8 82.7018 138.1 84.4018 138.1C85.3018 135.7 82.8018 135.3 81.8018 133.9C83.3018 132.5 85.1018 136 86.3018 133.8C86.8018 132.8 85.0018 132.6 84.4018 131.5C85.9018 131.3 87.2018 131.1 88.6018 130.9C89.9018 133.1 91.4018 135.4 92.8018 137.7Z" fill="#3B2A0D"/>
<path d="M260.702 67.2C257.502 62.3 251.802 60.5 247.902 56.4C249.702 53.6 252.802 57.2 254.702 55.1C256.802 55.8 260.502 53.6 260.902 55.9C261.702 59.4 263.602 63.5 260.702 67.2Z" fill="#0F0F0F"/>
<path d="M76.8008 262.1C80.9008 261 83.4008 257.5 86.7008 255.2C88.6008 253.9 87.7008 257.9 89.6008 257.1C90.0008 256.7 90.3008 256.7 90.6008 257.2C92.2008 259.6 89.2008 259.2 88.7008 259.5C86.3008 261.2 85.7008 264.4 82.4008 265.5C79.0008 266.7 80.7008 264.2 80.2008 263.3C78.6008 264.5 78.8008 265.7 79.5008 267.4C79.8008 268.2 80.7008 272 77.0008 270C76.8008 267.5 76.8008 264.8 76.8008 262.1Z" fill="#4A310F"/>
<path d="M194.602 250.1C192.902 242.7 191.202 235.2 189.602 227.8C190.202 227.7 190.702 227.5 191.302 227.4C194.002 234.7 195.202 242.5 196.802 250.1C196.102 251.2 195.402 250.3 194.602 250.1Z" fill="#FBF4F9"/>
<path d="M281.603 38.3C279.803 37.6 279.203 36.3 279.803 34.4C281.803 33.7 284.303 32.6 285.103 35.4C285.803 37.7 283.403 38 281.603 38.3Z" fill="#1D1A1B"/>
<path d="M143.701 205.2C143.601 208.6 143.401 211.9 143.301 215.3C142.501 220.2 136.101 220.3 134.901 225.1C134.601 226.3 133.301 225.1 132.501 224.5C128.301 221.2 126.701 216.5 125.701 211.6C125.401 210.1 126.201 209 127.201 208.1C130.701 204.8 133.901 201.2 137.801 198.3C140.501 196.3 141.801 196.8 143.301 199.2C145.701 201 145.201 203.1 143.701 205.2Z" fill="#FB9233"/>
<path d="M166.602 143.3C175.602 142 178.902 143.6 183.302 151.3C183.902 155.9 184.502 160.6 182.602 165.1C181.602 161.2 179.102 158.9 175.502 156.7C171.702 154.4 169.102 150.2 165.802 146.9C164.102 145.1 165.602 144.3 166.602 143.3Z" fill="#FB9333"/>
<path d="M32.8019 219.6C32.7019 223.3 31.0019 225.5 27.6019 226C24.8019 226.4 20.7019 222.6 21.2019 219.8C21.7019 216.8 22.7019 213.9 26.7019 214.1C30.4019 214.2 32.3019 216.3 32.8019 219.6Z" fill="#FB9133"/>
<path d="M143.701 205.2C143.601 203.2 143.401 201.2 143.301 199.1C143.401 198 143.601 196.8 143.501 195.7C143.001 191.8 144.601 189.8 148.501 189.9C149.001 190 149.601 190 149.901 190.3C152.201 192 150.601 195.9 150.401 195.9C145.901 197.4 151.001 206.1 143.701 205.2Z" fill="#F4E1F0"/>
<path d="M109.303 169.9C112.403 170 114.203 171.6 114.303 174.4C114.503 177.2 112.903 179.2 109.903 179.4C106.803 179.6 104.803 177.9 104.703 174.7C104.803 171.9 106.603 170.2 109.303 169.9Z" fill="#0C0802"/>
<path d="M95.8002 250.1C92.3002 246.7 92.8002 245.2 99.0002 241.7C98.4002 241.3 98.0002 240.8 97.5002 240.6C96.6002 240.3 94.9002 241.9 94.7002 240.1C94.5002 238.7 95.9002 238.6 97.3002 238.5C99.9002 238.3 99.6002 233.8 102.9 234.1C103.2 234.4 103.5 234.8 103.9 235.1C104 236.5 105.2 237.8 104 239.2C103.4 240.1 102.7 241 103.2 242.2C103.1 242.5 103.1 242.9 102.9 243.1C101 244.2 100.1 245.4 99.8002 247.1C97.4002 246.9 97.4002 246.9 97.9002 248.2C97.7002 249.5 96.0002 249 95.8002 250.1Z" fill="#694A15"/>
<path d="M106.702 232.1C106.102 227.7 106.702 227.1 111.202 225.3C112.602 224.7 113.502 223.1 114.602 221.9C115.102 222.3 115.102 222.7 114.702 223.2C116.202 228 113.002 230.1 109.702 232.3C108.702 232.4 107.602 233 106.702 232.1Z" fill="#624514"/>
<path d="M114.701 223.2C114.701 222.8 114.601 222.3 114.601 221.9C114.701 220.6 113.701 220.4 112.801 220.2C114.001 218.6 116.001 218.5 117.701 218C120.001 218.4 119.601 219.6 118.601 221C117.901 222.8 117.201 224.6 114.701 223.2Z" fill="#573D11"/>
<path d="M106.701 232.1C107.701 231.9 108.801 230.7 109.701 232.2C108.201 238.4 105.101 232.9 102.801 233.1C103.401 230.5 105.601 233.3 106.701 232.1Z" fill="#B17D24"/>
<path d="M118.502 220.9C119.002 219.7 118.702 218.7 117.602 217.9C119.102 216.4 121.202 216.4 124.102 215C122.102 218.1 120.602 219.8 118.502 220.9Z" fill="#A87722"/>
<path d="M99.6035 247.1C98.4035 243.8 100.604 243 103.004 242.3C103.704 245.1 101.304 245.8 99.6035 247.1Z" fill="#FB9133"/>
<path d="M103.802 239.3C104.302 237.9 102.402 236.6 103.702 235.2C104.302 237.1 107.502 235.2 107.302 237.6C107.202 239.3 105.202 239 103.802 239.3Z" fill="#B17D24"/>
<path d="M201.601 161.1C200.801 156.7 194.501 156.8 193.801 151.3C195.801 153 197.301 154.2 199.001 155.6C200.101 152.2 195.901 150.4 197.001 146.8C200.201 147.9 202.901 150.4 206.501 150.2C208.101 150.7 209.601 151.4 210.701 152.6C211.701 153.7 213.201 154.6 212.301 156.3C211.401 157.8 209.901 156.3 208.701 156.4C208.001 158.1 209.501 159.5 209.201 161.8C206.701 157.9 204.101 161.3 201.601 161.1Z" fill="#E9C1DF"/>
<path d="M237.602 195.5C242.502 212.6 245.702 230.2 252.902 246.6C243.302 231 240.202 213.3 237.602 195.5Z" fill="#FBF6FA"/>
<path d="M241.604 125.1C241.704 123.1 243.604 120.7 240.104 119.4C239.404 119.1 240.504 117.6 241.504 117.4C243.204 116.9 245.004 116.6 246.704 116.2C246.704 118.4 249.904 119.8 247.204 123C246.004 124.4 249.804 127 251.804 128.7C252.704 129.4 254.104 130 253.204 131.4C252.204 132.8 251.104 131.5 250.204 130.9C247.304 129 244.504 127 241.604 125.1Z" fill="#F4E1F0"/>
<path d="M206.603 143.2C208.603 142.3 209.003 140.5 208.603 138.7C207.903 136 209.303 134.5 211.603 132.8C211.203 135.8 213.503 137.2 214.703 139.2C214.103 140.9 213.603 142.7 213.003 144.5C210.903 144.4 212.303 141.3 209.903 140.9C211.103 144 208.403 145 207.003 146.7C206.603 147.2 205.703 146.8 205.403 146.2C204.703 144.8 206.503 144.3 206.603 143.2Z" fill="#E9C1DF"/>
<path d="M249.5 25.4C249.6 24.2 250.2 23.3 251.6 23.3C252.7 23.3 253.4 24.1 253.5 25.2C253.6 26.5 252.8 27.4 251.4 27.3C250.3 27.3 249.7 26.6 249.5 25.4Z" fill="#171717"/>
<path d="M90.5 257.2C90.2 257.1 89.9 257.1 89.5 257.1C89.5 250.4 89.9 250 95.7 251.8C92.7 252.4 92.9 256.1 90.5 257.2Z" fill="#A36921"/>
</g>
<defs>
<clipPath id="clip0_58:2452">
<rect width="285.2" height="313.1" fill="white"/>
</clipPath>
</defs>
</svg>
