<svg width="36" height="28" viewBox="0 0 36 28" fill="none" xmlns="http://www.w3.org/2000/svg">
<path fill-rule="evenodd" clip-rule="evenodd" d="M2.57037 7.33111C2.47563 7.39698 2.38086 7.46288 2.29528 7.54176C2.18144 7.74283 2.03374 7.9194 1.8621 8.07425C1.50269 8.39481 0.995574 8.38247 0.664983 8.05156C0.310225 7.69254 0.311092 7.26473 0.666391 6.87261L0.666673 6.872C0.897978 6.4104 1.22179 6.0327 1.68642 5.78893L1.68608 5.78933L1.68651 5.78899C1.79721 5.65316 1.91785 5.52014 2.06657 5.42501C2.74565 4.96543 3.43467 4.50867 4.19931 4.18886C4.26349 4.16172 4.32135 4.12192 4.37897 4.08229C4.48504 4.00934 4.59028 3.93696 4.73256 3.94516L4.73268 3.94619C5.22873 3.62053 5.79713 3.53001 6.361 3.44022L6.46692 3.42329C6.51532 3.41124 6.57809 3.42465 6.62197 3.45201C6.71992 3.51266 6.81741 3.51148 6.91947 3.49948C6.93098 3.49497 6.94249 3.49039 6.95399 3.48575C7.14328 3.44917 7.3336 3.46481 7.52392 3.48046C7.71425 3.4961 7.90457 3.51174 8.09386 3.47517C8.0965 3.47795 8.09902 3.48073 8.10141 3.48351C8.19598 3.45853 8.25675 3.39269 8.32267 3.32129C8.34485 3.29726 8.3676 3.27261 8.39242 3.24867C9.49623 1.95587 10.9018 1.19786 12.5617 0.875592C12.6814 0.853683 12.8019 0.84481 12.9261 0.845563C13.1138 0.847331 13.3016 0.837376 13.4898 0.827401C13.7113 0.815661 13.9333 0.803895 14.1563 0.81118C14.7093 0.827908 15.2559 0.844941 15.8009 0.960052C15.8251 0.96585 15.8496 0.972714 15.8744 0.979633C15.9548 1.00211 16.0372 1.02515 16.1141 1.01408C16.3221 0.991335 16.473 1.06599 16.589 1.2272C16.5645 1.22323 16.5399 1.21889 16.5152 1.2144C16.5304 1.22192 16.5455 1.22994 16.5605 1.23851C16.7763 1.24153 16.9821 1.30383 17.1851 1.37605C19.7297 2.25403 22.0688 3.52381 24.1863 5.1894C25.4666 6.20136 26.6507 7.31254 27.6887 8.571C29.0226 10.1849 29.9822 12.0187 30.7896 13.9445C31.8052 16.3638 32.2085 18.8867 32.2137 21.4836C32.2141 21.6829 32.2915 21.7283 32.4622 21.6779C32.4713 21.6862 32.4795 21.6944 32.4867 21.7026C32.4835 21.6921 32.4795 21.6815 32.4747 21.6707C32.4955 21.6305 32.5188 21.591 32.5421 21.5516C32.5654 21.5121 32.5888 21.4726 32.6096 21.4325C32.6984 21.2578 32.7859 21.0819 32.8735 20.9057L32.8735 20.9057L32.8735 20.9056L32.8735 20.9056L32.8735 20.9056L32.8735 20.9055L32.8736 20.9055L32.8736 20.9055L32.8736 20.9054L32.8736 20.9054L32.8737 20.9053L32.8737 20.9053L32.8737 20.9052L32.8737 20.9052L32.8738 20.9051L32.8738 20.9051L32.8738 20.905C33.0613 20.5278 33.2494 20.1494 33.4532 19.7793C33.7911 19.1658 34.4694 18.948 35.0945 19.2227C35.723 19.5005 36.0021 20.1017 35.7629 20.7924C35.4075 21.8315 34.8611 22.7782 34.2002 23.6584L34.1804 23.6792C33.8314 24.3364 33.4088 24.9463 32.9852 25.5575L32.9851 25.5577C32.9329 25.6329 32.8807 25.7083 32.8287 25.7837L32.8273 25.7868L32.8344 25.7765C32.7165 26.1544 32.5519 26.5149 32.327 26.8456C32.0223 27.2908 31.6088 27.5579 31.0651 27.603L31.0654 27.6036C30.7039 27.7544 30.2176 27.5745 29.9931 27.2093C29.9485 27.138 29.9117 27.0622 29.8748 26.9863C29.8146 26.8625 29.7543 26.7384 29.6598 26.6334C29.2646 26.1879 28.8508 25.7629 28.3475 25.4433C28.1848 25.34 28.014 25.2497 27.8428 25.1594C27.7014 25.0847 27.5599 25.01 27.4226 24.9277C27.1684 24.7741 26.9045 24.6389 26.641 24.5038C26.2019 24.2788 25.7637 24.0542 25.3723 23.7458L25.3779 23.7444L25.3691 23.7428C25.2034 23.6982 25.0584 23.6102 24.9165 23.5188C24.2851 23.1202 23.6482 22.7415 22.9776 22.4068C22.6357 22.2398 22.3334 22.0154 22.0463 21.7674C21.6533 21.4296 21.55 21.0064 21.7244 20.518C21.9508 19.8966 22.5493 19.5878 23.2305 19.7456C23.5711 19.8244 23.8862 19.9797 24.1676 20.1789C25.0896 20.8286 26.0859 21.3343 27.1304 21.7594C27.811 22.0348 28.45 22.3906 28.9738 22.9216C29.1934 23.1393 29.4363 23.2423 29.7417 23.1739C29.7441 23.1215 29.7442 23.0682 29.7443 23.0148C29.7446 22.8989 29.7448 22.7823 29.7681 22.6723C29.8895 22.1387 29.8501 21.6045 29.8107 21.0718C29.7999 20.9255 29.7891 20.7792 29.7816 20.6331C29.7604 20.2675 29.725 19.9006 29.6899 19.5365C29.6803 19.4365 29.6706 19.3367 29.6613 19.2372C29.5669 18.219 29.3958 17.2371 29.0844 16.2585C27.6723 11.8322 25 8.38905 21.07 5.91268C20.5549 5.58822 20.0209 5.30038 19.4861 5.01212L19.486 5.01209L19.486 5.01206L19.4859 5.01204L19.4859 5.01201L19.4858 5.01198L19.4858 5.01195L19.4857 5.01193L19.4856 5.0119L19.4856 5.01187C19.2283 4.87317 18.9708 4.73438 18.7151 4.59137C17.9414 4.15694 17.1356 3.79914 16.2689 3.5912L16.2415 3.58424C16.1548 3.56245 16.0666 3.54028 16.0092 3.46227C15.9947 3.45864 15.9806 3.4533 15.9664 3.44796L15.9664 3.44795C15.926 3.4327 15.8854 3.41737 15.8362 3.44128C15.5934 3.55058 15.3529 3.51277 15.1166 3.42903C14.9463 3.36705 14.7687 3.35772 14.5915 3.34841C14.3876 3.33769 14.1842 3.327 13.9925 3.23632C13.9718 3.22519 13.9433 3.23308 13.9138 3.24126L13.9138 3.24126L13.9138 3.24126L13.9138 3.24126L13.9138 3.24126L13.9138 3.24127L13.9138 3.24127L13.9138 3.24127C13.8955 3.24634 13.8768 3.25151 13.8594 3.25232C13.6962 3.26986 13.5345 3.29772 13.3731 3.32554C13.11 3.37087 12.8476 3.4161 12.5803 3.41639C12.0347 3.41892 11.5421 3.56272 11.0939 3.87107C11.016 3.92391 10.9332 3.96932 10.851 4.01438L10.8509 4.01441C10.8131 4.03515 10.7754 4.05582 10.7384 4.0771C10.7366 4.07659 10.7348 4.07611 10.733 4.07565C10.6949 4.24198 10.8052 4.31721 10.9311 4.38853C11.557 4.7449 12.128 5.17569 12.6405 5.67781C12.6519 5.6891 12.6633 5.7004 12.6748 5.71169C13.1147 6.14695 13.5628 6.59023 13.8422 7.13447C14.173 7.78879 14.4207 8.47966 14.4531 9.24261C14.4832 9.95993 14.4026 10.6203 14.0197 11.2491C13.5078 12.1027 12.9188 12.8554 12.0352 13.3408C11.6983 13.5263 11.3609 13.5747 10.9915 13.507C10.335 13.384 9.73872 13.0981 9.22743 12.6841C7.47562 11.2694 6.32821 9.53255 6.39128 7.18396C6.40281 6.83386 6.45755 6.49809 6.71497 6.22802C6.71499 6.2279 6.715 6.22777 6.71502 6.22765C6.71388 6.22886 6.71274 6.23006 6.7116 6.23126C6.62088 6.14401 6.647 6.05132 6.67311 5.95863L6.67311 5.95862C6.67964 5.93545 6.68617 5.91228 6.69087 5.8892C6.74827 5.60557 6.62017 5.46452 6.35409 5.56511C5.80823 5.77602 5.24711 5.94225 4.68255 6.10524L4.68283 6.10691C4.59667 6.15232 4.51142 6.19959 4.42628 6.24681C4.21584 6.36349 4.00606 6.47982 3.78484 6.56687C3.64435 6.62516 3.51921 6.70885 3.39449 6.79226C3.24366 6.89312 3.09343 6.99359 2.91736 7.04827L2.91711 7.0484C2.8148 7.16115 2.69262 7.24611 2.57037 7.33111ZM12.2291 9.84269C12.2256 9.90166 12.245 9.96282 12.2676 10.0206C12.2684 10.023 12.2693 10.0254 12.2701 10.0278C12.2882 10.0789 12.3019 10.1177 12.231 10.1366C11.9842 10.243 11.823 10.44 11.6625 10.6362C11.6297 10.6763 11.5969 10.7164 11.5634 10.7557C11.255 11.1164 11.0021 11.1543 10.6003 10.9018C9.58707 10.2564 9.04131 9.2952 8.73222 8.16943C8.71845 8.12337 8.70846 8.07384 8.69844 8.02416C8.67691 7.91744 8.65524 7.81 8.59565 7.73475C8.39921 7.48306 8.53336 7.30169 8.66895 7.11834L8.67487 7.11035C8.81241 6.92426 8.93658 6.73227 9.02715 6.52224C9.18488 6.15554 9.2072 6.1447 9.60571 6.26989C9.75181 6.31537 9.89238 6.38069 10.024 6.46278C10.3449 6.66673 10.6348 6.90479 10.9188 7.15619C11.7299 7.8731 12.2569 8.72411 12.2291 9.84269Z" fill="white"/>
</svg>
