<svg width="63" height="181" viewBox="0 0 63 181" fill="none" xmlns="http://www.w3.org/2000/svg">
<g clip-path="url(#clip0_58:1930)">
<path d="M42.5301 180.954C37.3791 180.954 32.1825 180.954 27.0315 180.954C26.0286 179.714 26.3021 178.198 26.3021 176.774C26.3021 155.228 26.3021 133.637 26.3021 112.091C26.3021 87.0086 26.3021 61.9259 26.3021 36.8431C26.3021 34.4084 26.2566 31.9736 26.0742 29.4929C26.8036 26.9662 29.1739 26.8744 31.0429 26.0934C34.2793 25.8637 37.5158 26.0015 40.7523 26.0015C41.436 26.0015 42.1198 26.0934 42.6212 26.5987C43.2138 28.2066 43.2594 29.9063 43.2594 31.5601C43.2594 80.1637 43.2594 128.813 43.2594 177.417C43.2594 178.657 43.3962 179.943 42.5301 180.954Z" fill="#FBAA84"/>
<path d="M42.5299 180.954C42.5299 131.018 42.5299 81.1284 42.5755 31.1926C42.5755 29.7226 41.5726 28.2525 42.5299 26.7825C42.9402 26.0934 43.6695 26.0475 44.3077 26.0475C48.7749 26.0015 53.1966 26.0015 57.6638 26.0475C58.2564 26.0475 58.849 26.1393 59.3504 26.5987C59.396 27.7472 58.4843 27.7013 57.8006 27.7931C56.3419 27.9769 56.114 28.7579 56.3419 30.0442C57.1168 33.903 56.9345 37.8079 56.9345 41.7127C56.9345 86.6871 56.9345 131.615 56.9345 176.59C56.9345 178.106 57.2536 179.668 56.2051 181C51.6467 180.954 47.0883 180.954 42.5299 180.954Z" fill="#FA7B98"/>
<path d="M26.5755 28.8957C27.1681 31.1467 27.0313 33.4436 27.0313 35.6947C27.0313 84.1145 27.0313 132.534 27.0313 180.954C24.2963 180.954 21.5612 180.954 18.8262 180.954C18.0057 179.989 18.1424 178.795 18.1424 177.692C18.1424 173.098 18.1424 168.55 18.1424 163.957C18.1424 162.487 18.0057 161.062 17.3675 159.73C17.8689 157.387 19.7379 158.674 20.7863 158.306C19.4188 158.076 17.7778 158.444 16.3191 157.571C15.9088 157.295 15.2251 157.204 15.7721 156.423C17.5954 155.963 18.188 154.815 18.188 152.931C18.188 142.962 17.9601 132.948 18.2792 122.979C18.3704 120.544 17.6866 118.936 15.2251 118.339C14.9516 117.972 14.9971 117.558 15.4074 117.374C16.9573 116.593 18.5527 116.18 19.7835 116.318C18.5071 116.41 16.7293 116.18 15.1339 115.353C14.6325 115.123 13.8575 114.986 14.4046 114.113C14.9971 113.699 15.6809 113.699 16.3191 113.47C16.9573 113.286 17.2763 113.01 17.3219 112.229C17.9601 99.6419 17.5043 87.0546 17.641 74.4673C17.6866 71.4353 17.4131 71.1596 14.6325 70.1949C13.7664 69.5977 14.131 69.1843 14.8604 68.9546C16.2735 68.4952 17.6866 67.8061 19.2365 67.898C16.4558 67.5764 13.9031 66.6117 11.4416 65.3254C11.3048 65.1416 11.2137 64.9119 11.1681 64.6822C10.7122 59.6749 9.9829 54.7594 10.7122 49.6601C11.4872 44.0556 14.131 39.4617 17.6866 35.3271C19.5556 33.168 21.5157 31.0089 24.0228 29.4929C24.8433 29.1254 25.5271 28.3444 26.5755 28.8957Z" fill="#FCCC76"/>
<path d="M56.2052 180.954C56.2052 132.488 56.2052 84.0226 56.2052 35.5568C56.2052 33.3518 55.9773 31.1467 55.3391 29.0335C54.8833 27.5175 55.0656 26.9203 56.7522 27.0581C57.6183 27.1041 58.5756 27.3797 59.3961 26.7365C60.9004 25.5881 62.4046 25.7259 63.9545 26.6447C63.9545 77.4533 63.9545 128.308 64.0001 179.116C64.0001 180.678 63.7266 181.138 62.1311 181C60.171 180.816 58.1653 180.954 56.2052 180.954Z" fill="#F85DA3"/>
<path d="M11.6237 65.0957C14.7234 66.5198 17.9599 67.2548 21.3787 67.852C19.0539 68.8168 16.4556 68.5411 14.2676 69.8274C12.9457 71.2975 11.0767 71.8028 9.52686 72.9053C8.25051 73.8701 6.97415 74.8348 6.19922 76.2589C3.05392 80.1637 1.64082 84.6198 1.6864 89.6272C1.73199 91.2351 1.73199 92.8429 1.6864 94.4508C1.54965 99.2744 2.91717 103.639 5.78897 107.497C7.29324 110.208 9.89153 111.632 12.3531 113.24C12.9912 113.653 13.8118 113.745 14.1764 114.48C16.3645 115.858 19.0083 115.537 21.3331 116.364C19.2363 117.145 17.0482 117.007 15.0881 118.018C13.7662 119.304 11.9884 119.809 10.4385 120.774C8.38726 122.106 6.65506 123.76 5.33313 125.827C0.318882 133.545 0.318882 141.263 5.33313 148.935C7.33883 152.058 10.2106 154.126 13.4927 155.642C14.1764 155.963 14.9969 156.009 15.4528 156.744C17.2306 157.847 19.4642 157.341 21.6066 158.122C20.1479 159.317 18.5069 158.444 17.3217 159.317C16.1821 160.373 14.5867 160.373 13.2648 160.971C11.8061 161.614 10.5297 162.487 9.29894 163.497C9.16219 163.635 8.97985 163.773 8.79751 163.865C7.42999 164.692 6.42714 165.886 5.60663 167.264C3.05392 170.71 1.6864 174.523 1.64082 178.841C1.64082 179.622 1.64082 180.357 1.04823 180.954C0.729138 180.954 0.455634 180.954 0.136546 180.954C-0.182543 171.812 3.50977 164.829 11.4414 160.282C12.8545 159.455 14.4955 158.995 16.2733 158.26C5.6978 154.677 -0.000206487 147.51 0.18213 136.301C0.318882 127.481 4.8317 122.014 15.9086 116.364C14.222 115.215 12.3075 114.848 10.6209 113.837C4.23911 110.024 0.820306 104.374 0.227714 97.0693C-0.0457905 93.6698 -0.0913746 90.1325 0.318882 86.779C1.36731 77.8668 6.15364 71.7569 14.5411 68.5411C14.8146 68.4493 15.0881 68.3114 15.3616 68.1736C15.4072 68.1736 15.4072 68.0358 15.4984 67.852C14.3588 67.2548 13.1736 66.6576 11.9884 66.0604C11.6237 65.8307 11.1679 65.647 11.6237 65.0957Z" fill="#253A3B"/>
<path d="M1.0486 180.954C0.911846 175.717 1.86911 170.756 5.47025 166.667C6.56427 165.564 7.65829 164.462 8.7523 163.359C9.3449 163.222 9.8919 162.946 10.4389 162.67C11.1227 162.303 11.852 161.889 12.5358 162.578C13.174 163.222 13.0372 164.048 12.6269 164.692C11.8976 165.748 12.4446 166.851 12.3534 167.907C12.0799 172.272 13.6754 176.636 12.0799 180.954C8.34205 180.954 4.69532 180.954 1.0486 180.954Z" fill="#FDF364"/>
<path d="M11.9887 180.954C12.4445 176.957 11.1682 172.961 11.9887 169.01C12.0342 168.78 12.0798 168.459 11.9431 168.321C10.6667 166.851 10.6667 165.519 12.2622 164.186C12.5813 163.911 12.5357 163.313 12.2622 162.9C11.8975 162.441 11.4417 162.578 11.077 162.9C10.3932 163.497 9.57271 163.589 8.7522 163.359C11.1682 160.971 14.0855 159.684 17.4132 159.271C18.7351 159.868 18.9174 161.016 18.8719 162.303C18.8263 168.505 18.8719 174.706 18.8719 180.908C16.5471 180.954 14.2679 180.954 11.9887 180.954Z" fill="#FCD671"/>
<path d="M63.9544 6.89087C63.9544 13.1845 63.9544 19.4322 63.9544 25.7259C62.8603 26.5069 61.6296 26.1853 60.4444 26.1853C57.527 26.1853 54.6096 26.3231 51.6922 26.0934C51.4643 26.0015 51.282 25.8637 51.1452 25.634C51.0996 24.3937 51.8746 23.4749 52.4672 22.5561C55.5213 17.7325 58.5299 12.9089 61.9031 8.31498C62.4045 7.62589 62.7692 6.61523 63.9544 6.89087Z" fill="#4BF23C"/>
<path d="M63.9547 6.89087C61.5387 8.91219 60.1712 11.7145 58.4846 14.2411C56.0231 17.8703 53.7439 21.5914 51.3735 25.2665C50.5074 24.8071 50.6442 24.0261 50.7353 23.2452C51.6014 16.4003 53.7439 10.0607 58.3479 4.82361C59.8521 3.12387 61.5387 1.37818 63.9547 0.918793C63.9547 2.89417 63.9547 4.91549 63.9547 6.89087Z" fill="#E9F9E8"/>
<path d="M63.9543 0.918782C55.7036 6.06396 52.3304 14.0114 51.2363 23.2452C51.1452 23.8883 51.3275 24.5774 51.3731 25.2665H51.1452C50.0967 25.0827 49.6865 24.4396 49.8688 23.383C51.0084 21.9129 50.7349 20.0294 51.1452 18.3756C53.0141 10.7497 56.6152 4.41015 63.3161 0.137817C63.4984 0.0459391 63.7263 0.0459391 63.9543 0C63.9543 0.321574 63.9543 0.597208 63.9543 0.918782Z" fill="#284871"/>
<path d="M63.9546 26.6447C62.4504 26.6906 60.9005 26.7366 59.3962 26.7366C53.7894 26.7366 48.137 26.7366 42.5301 26.7366C38.5643 26.7366 34.6441 26.6906 30.6783 26.6906C27.5786 27.5635 24.3877 27.3797 21.1968 27.3338C20.3763 27.3338 19.5102 27.2878 18.8264 26.6906C19.2823 25.3124 20.4674 25.7718 21.3791 25.7259C25.2082 25.5421 28.9917 25.9556 32.8207 25.68C37.4247 25.3124 42.0287 25.5881 46.6327 25.4962C47.6355 25.4962 48.5928 25.5421 49.5501 25.3584C49.8236 25.3124 50.1427 25.3584 50.4162 25.4962C51.4646 26.1393 52.6042 25.9097 53.7438 25.9556C57.117 26.0934 60.5358 25.68 63.909 26.1853C63.9546 26.3231 63.9546 26.5069 63.9546 26.6447Z" fill="#926C6F"/>
<path d="M63.9546 26.1853C60.0344 26.1853 56.1141 26.1853 52.1939 26.1853C51.4645 26.1853 50.644 26.4609 50.1426 25.634C49.4133 25.2665 49.0942 24.6693 49.1398 23.8424C49.2765 23.5208 49.4133 23.2911 49.8235 23.4289H49.8691C50.2794 24.0721 50.7352 24.6693 51.1455 25.3124C54.4275 26.1393 57.7551 25.4502 61.0372 25.6799C61.9945 25.7718 62.9973 25.7259 63.9546 25.7259C63.9546 25.8637 63.9546 26.0474 63.9546 26.1853Z" fill="#303E21"/>
<path d="M32.9571 26.1393C29.0369 26.1393 25.1166 26.1393 21.1964 26.1853C20.4215 26.1853 19.5098 25.9096 18.826 26.5528C18.3246 27.3338 17.4585 27.4256 16.638 27.6094C8.8887 29.5848 4.05679 34.684 2.23343 42.3099C0.18215 50.8546 3.23628 57.7914 9.93714 63.1663C10.5297 63.6256 11.3047 63.8553 11.5782 64.6822C11.5782 64.8201 11.5782 64.9119 11.6237 65.0038C11.7605 65.3254 11.8973 65.6929 12.034 66.0145C4.92289 62.7987 1.41292 56.7807 0.273318 49.4764C-0.957451 41.3911 2.37018 34.684 8.47845 29.7226C12.1708 26.6906 16.8203 25.3584 21.6522 25.3124C25.071 25.2665 28.4443 25.3124 31.8631 25.2665C32.3645 25.2665 32.9571 25.4043 33.2762 24.8071C33.7776 24.4855 34.0967 24.7612 34.4158 25.1746C34.4614 26.369 33.3218 25.68 32.9571 26.1393Z" fill="#213C62"/>
<path d="M34.2793 25.2665C33.9602 25.1287 33.5955 24.9909 33.2764 24.853C28.171 19.4782 23.6126 13.7817 21.7892 6.3396C21.6069 5.5127 21.1511 4.54798 21.8804 3.99671C22.4274 3.53732 23.2935 4.08859 24.0229 4.36422C34.1881 8.59061 43.1682 14.4249 49.8234 23.383C49.6411 23.5668 49.5043 23.7965 49.322 23.9802C48.5015 24.0261 48.0912 23.4749 47.681 22.9236C41.983 16.0787 34.963 10.9794 26.9402 7.25838C25.8462 6.89087 24.7066 5.42082 23.7038 6.29366C22.9289 6.98275 23.9317 8.4528 24.2964 9.46346C26.2109 14.4708 29.5385 18.5135 33.0485 22.5102C33.6411 23.1992 34.416 23.7505 34.5528 24.7152C34.5528 24.9449 34.4616 25.1287 34.2793 25.2665Z" fill="#1C4356"/>
<path d="M11.5786 64.7282C0.0913824 58.9858 -2.46132 42.8152 6.42757 33.0761C9.80079 29.3551 13.9945 27.3797 18.8264 26.5528C22.7922 26.5987 26.7125 26.6447 30.6783 26.6906C29.3563 27.5175 27.7609 27.7932 26.5757 28.8497C17.5501 34.4543 11.6241 42.0343 11.0771 53.0596C10.8948 56.6888 11.1683 60.364 11.8521 63.9472C11.9432 64.1769 11.6697 64.4985 11.5786 64.7282Z" fill="#FDFBEF"/>
<path d="M5.8803 75.7076C8.02275 72.8134 10.8945 70.9299 14.2222 69.7815C17.8689 69.8733 18.3703 70.3327 18.3703 74.0997C18.3703 85.0332 18.3703 95.9667 18.3703 106.9C18.3703 108.095 18.5071 109.335 17.8233 110.483C17.5042 110.989 17.5498 111.494 18.0057 111.908C19.5555 113.424 18.5527 113.883 17.094 114.113C16.1367 114.25 15.1339 114.342 14.1766 114.434C10.5299 113.332 7.70366 111.081 5.51562 107.957C6.60964 107.497 7.11107 108.508 7.88599 108.922C8.70651 109.427 9.57261 109.886 10.5755 109.978C11.6239 98.5393 10.3475 87.1005 11.3048 75.7076C11.3504 75.0185 11.5327 74.1916 10.8945 73.7782C10.1196 73.2728 9.52702 74.0538 8.84326 74.3754C7.84041 74.8807 7.2934 76.2589 5.8803 75.7076Z" fill="#FCD96F"/>
<path d="M15.4531 156.698C10.9858 155.642 7.52146 153.161 5.01433 149.302C6.01718 148.889 6.51861 149.716 7.15678 150.175C8.20522 150.91 9.02573 151.921 10.5756 152.38C11.1226 142.962 10.7579 133.683 10.8491 124.403C10.8491 123.714 10.8491 122.933 10.0742 122.657C9.34482 122.428 8.84339 122.979 8.2508 123.346C7.20237 124.036 6.70094 125.735 4.96875 125.276C7.47587 121.601 10.8491 119.212 15.0884 117.926C15.2252 117.972 15.4075 118.018 15.4987 118.155C16.4103 119.028 18.0058 117.191 18.5528 118.661C19.0542 120.039 19.191 121.647 19.0998 123.117C18.5072 131.064 19.0086 138.966 18.8719 146.913C18.8263 149.348 18.6895 151.829 18.9175 154.263C19.191 157.387 16.9574 156.423 15.4531 156.698Z" fill="#FCD671"/>
<path d="M5.8804 75.7076C7.11117 74.8348 8.29635 73.87 9.57271 73.0891C11.1681 72.1244 12.171 72.5837 11.9431 74.4673C11.5784 77.5911 11.5328 80.669 11.5328 83.7929C11.5328 91.0513 11.5328 98.3096 11.5328 105.522C11.5328 106.441 11.6696 107.406 11.1226 108.187C10.1653 109.611 12.3077 109.932 12.1254 111.264C9.57271 110.759 7.43026 109.519 5.47014 107.911C4.10262 106.533 3.09977 104.879 2.59835 103.041C0.273561 94.7723 -0.182279 86.5492 3.78353 78.6018C4.33054 77.5911 4.92313 76.5345 5.8804 75.7076Z" fill="#FDF364"/>
<path d="M5.01415 125.322C6.42725 124.816 7.1566 123.484 8.20503 122.52C8.93437 121.83 9.75489 121.509 10.6666 121.83C11.715 122.198 11.5327 123.163 11.5327 123.944C11.5327 130.743 11.6238 137.496 11.4871 144.295C11.4415 146.178 12.7179 148.291 10.8033 150.083C10.4386 150.405 11.2592 150.956 11.4415 151.415C11.6694 151.966 12.1708 152.472 11.5327 153.069C10.9857 153.574 10.3475 153.345 9.89164 153.023C8.25061 151.829 6.65517 150.542 5.05973 149.348C-0.273603 142.457 -0.319187 132.534 5.01415 125.322Z" fill="#FDF563"/>
<path d="M8.70661 163.359C7.97727 164.829 6.88325 165.886 5.42456 166.667C6.33624 165.335 7.24792 164.094 8.70661 163.359Z" fill="#FCD671"/>
<path d="M26.849 6.66116C35.7379 10.566 43.2137 16.4003 49.3219 24.0261C49.5954 24.5774 49.9145 25.0827 50.188 25.634C50.0513 25.5881 49.9145 25.634 49.8233 25.7718C48.0912 26.2312 46.3134 25.8637 44.5812 26.0015C43.2592 26.0015 42.6211 25.0827 41.9829 24.0721C39.5669 20.4429 37.0598 16.9515 33.9601 13.8736C32.0456 11.9901 29.8575 10.4741 27.8063 8.77436C27.1225 8.26903 25.9829 7.85558 26.849 6.66116Z" fill="#E8F6E9"/>
<path d="M43.5328 25.4962C45.6296 25.5881 47.6809 25.68 49.7778 25.7259C47.6353 26.6447 45.3561 26.0475 43.1225 26.1853C39.7493 26.369 36.3761 26.1853 32.9573 26.1853C33.4131 25.9096 33.8234 25.5881 34.2792 25.3124C34.3248 25.1287 34.3248 24.9449 34.3704 24.7612C37.3789 25.3124 40.5242 24.7152 43.5328 25.4962Z" fill="#303E21"/>
<path d="M43.5328 25.4962C41.1624 25.5421 38.7465 25.5881 36.3761 25.68C35.51 25.7259 35.0542 25.0368 34.3704 24.7612C30.7237 20.6726 27.0314 16.63 24.6154 11.6226C23.8405 9.96879 23.2479 8.22311 22.7921 6.47742C22.4274 5.19113 22.7921 4.86955 23.9317 5.37489C24.8889 5.78834 25.8462 6.24773 26.8034 6.66118C27.1681 8.54468 28.9915 8.95813 30.2223 9.92286C35.6923 14.2411 39.8861 19.616 43.5328 25.4962Z" fill="#4BF13B"/>
</g>
<defs>
<clipPath id="clip0_58:1930">
<rect width="64" height="181" fill="white"/>
</clipPath>
</defs>
</svg>
