<svg width="289" height="288" viewBox="0 0 289 288" fill="none" xmlns="http://www.w3.org/2000/svg">
<g clip-path="url(#clip0_58:2115)">
<path d="M191.983 260.376C191.789 264.851 189.46 266.99 185.386 268.547C175.491 272.437 165.208 274.188 154.925 275.744C149.493 280.219 143.09 278.662 137.27 278.079C124.465 276.912 111.853 273.799 100.018 268.547C94.9739 266.407 89.9295 263.878 89.3474 257.264C91.0936 235.476 96.7201 214.661 105.063 194.624C106.227 191.706 107.779 188.788 109.331 186.064C115.54 175.754 126.599 174.587 134.748 183.535C136.882 185.87 136.688 188.204 135.524 190.733C134.359 193.456 134.165 196.374 134.554 199.292C135.33 205.323 138.628 209.019 144.642 208.825C150.269 208.63 153.179 204.934 153.955 199.487C154.149 198.125 154.537 196.764 153.955 195.596C149.299 185.675 155.313 182.368 163.268 179.061C173.939 174.781 174.909 174.392 179.954 183.924C191.789 206.296 195.863 230.029 194.117 255.124C193.923 257.069 193.341 259.015 191.983 260.376Z" fill="#FEFEFE"/>
<path d="M206.922 246.37C204.982 253.373 206.728 262.516 196.057 264.072C192.759 259.793 193.535 254.929 193.729 250.066C194.893 224.777 189.267 201.432 177.044 179.45C174.909 175.559 174.715 172.252 177.626 168.751C180.924 164.86 181.7 159.024 186.745 156.495C197.415 154.355 207.892 154.161 217.981 158.44C223.802 159.607 225.936 168.362 233.503 166.222C235.831 167 236.995 168.945 238.159 170.696C241.846 177.505 247.666 180.423 255.039 181.006C257.949 181.201 261.635 180.228 262.799 184.702C259.307 196.374 252.711 206.49 244.368 215.05C234.861 224.971 219.533 223.026 206.922 211.743C204.4 208.63 201.684 205.712 199.938 204.156C203.624 207.074 206.34 212.132 207.698 218.357C208.28 224.582 209.445 230.613 209.833 236.643C210.027 239.95 210.221 243.646 206.922 246.37Z" fill="#AEAEAE"/>
<path d="M207.504 209.408C224.383 223.804 238.353 221.858 250.188 203.378C254.068 197.152 257.948 190.927 261.829 184.508C263.381 182.173 259.501 180.033 261.441 177.699C265.127 174.197 267.649 169.918 270.172 165.443C272.694 162.331 273.082 157.078 278.514 156.884C280.843 159.996 280.649 163.303 278.902 166.416C275.992 183.924 269.978 200.265 260.083 215.244C247.083 234.698 230.786 250.26 209.638 260.571C205.176 256.485 209.056 251.038 207.116 246.37C206.534 236.254 205.952 225.943 205.37 215.828C204.594 213.104 202.847 209.992 207.504 209.408Z" fill="#060505"/>
<path d="M187.909 157.468C184.417 162.331 181.118 167.389 177.626 172.252C176.462 173.808 176.656 175.17 177.626 176.532C194.118 203.572 197.028 233.336 196.058 264.072C194.7 262.905 193.342 261.738 191.983 260.571C192.953 233.725 190.237 207.657 177.044 183.341C174.522 178.672 172.582 175.559 167.537 180.423C166.955 181.006 165.985 181.59 165.015 181.784C157.836 183.73 152.404 185.87 157.06 195.596C159.582 201.043 156.284 207.074 150.464 210.186C145.419 212.715 140.375 212.132 135.912 208.63C130.868 204.35 130.092 198.709 132.032 192.678C132.614 190.538 134.166 188.788 135.33 186.842C134.942 184.702 133.002 184.897 131.644 184.313C115.152 177.699 115.152 177.894 107.78 195.013C99.243 214.855 94.9746 235.67 91.0943 256.68C90.1242 257.458 89.3481 257.264 88.378 256.68C84.3037 248.899 87.602 241.312 89.3481 234.114C93.8105 215.633 98.0789 197.153 108.168 180.617C110.302 177.116 110.108 174.003 107.586 170.696C105.064 167.389 103.123 163.498 100.989 159.997C97.4969 155.522 92.4524 153.188 88.378 149.297C89.1541 145.601 92.0644 145.212 94.9746 144.823C98.0789 145.017 100.213 147.157 102.347 149.103C131.838 175.17 165.791 173.225 192.565 144.239C193.342 143.267 194.312 142.294 195.088 141.321C195.67 140.543 196.446 139.96 197.222 139.57C198.192 139.376 199.162 139.376 199.938 139.96C201.684 141.71 202.46 143.85 201.684 146.379C198.192 150.853 194.312 155.717 187.909 157.468Z" fill="#513B44"/>
<path d="M148.911 280.024C141.15 279.246 132.807 276.912 129.897 288C129.121 287.222 128.539 286.638 127.763 285.86C125.629 281.191 121.554 279.635 117.092 278.662C105.839 276.133 96.3321 270.103 86.8253 263.878C84.109 262.127 80.0347 260.376 83.333 255.707C85.2731 254.735 87.2133 254.929 88.9595 256.485C89.7355 256.485 90.3176 256.485 91.0936 256.68C90.5116 261.349 94.3919 262.516 97.3022 264.072C115.346 274.188 134.942 276.133 154.925 275.939C157.06 278.857 160.358 277.301 163.074 278.273C158.612 280.608 153.373 278.468 148.911 280.024Z" fill="#53513E"/>
<path d="M216.818 29.2693C223.414 34.1327 230.011 39.1906 236.608 44.054C238.548 45.9993 240.488 48.1392 242.622 50.0845C245.532 49.89 247.667 51.2517 249.413 53.1971C265.904 72.2614 278.515 93.2711 280.068 119.339C280.068 120.311 279.874 121.284 279.486 122.062C278.71 122.84 277.739 123.813 276.963 124.591C264.74 122.646 256.591 127.704 251.353 138.598C249.801 141.71 247.473 144.628 245.726 147.741C242.234 152.41 239.712 157.467 237.772 162.914C236.802 165.054 234.667 166.222 232.727 167.194C231.369 170.89 229.817 173.03 226.325 168.75C224.191 166.027 221.668 163.693 219.34 161.164C213.714 155.522 205.953 152.41 201.685 145.406C201.102 143.656 200.326 141.71 199.744 139.959C197.998 136.458 200.132 133.734 201.296 130.816C210.415 111.363 208.863 92.2985 197.804 74.4013C192.76 66.4254 190.237 59.0331 192.566 49.89C193.342 47.1665 194.312 43.8594 191.208 41.9141C188.685 40.3578 186.163 42.4977 184.029 43.6649C177.044 47.9446 169.672 49.5009 161.911 46.7774C152.404 44.443 142.509 44.054 133.39 46.1938C122.331 48.9173 113.213 46.5829 104.288 41.1359C101.377 39.5797 97.8851 37.0507 98.8552 43.6649C100.795 55.9205 98.0791 66.6199 91.4825 77.7084C81.1996 95.2165 81.5876 114.086 90.1244 132.567C92.0646 136.847 95.3629 140.932 94.7808 146.184C93.4227 148.324 90.1244 147.157 89.3484 150.075C87.4082 155.911 81.0056 156.3 77.5133 159.996C72.0808 165.832 65.8722 170.696 61.4098 177.505C56.1714 183.535 52.097 190.538 47.2465 196.763C46.2765 198.709 47.8286 201.043 46.6645 202.989C43.7542 205.907 40.4559 208.435 36.1875 208.825C33.0833 207.852 32.3072 204.739 30.7551 202.405C23.5764 188.398 18.1439 173.808 17.5619 157.857C17.9499 155.717 18.92 153.966 20.0841 152.215C24.1585 148.519 29.3969 148.713 34.2474 147.935C36.9636 147.935 39.6799 147.546 40.6499 147.741C39.0978 147.546 35.7995 147.935 32.5012 147.741C27.0687 147.935 22.4123 146.574 18.726 142.488C17.9499 141.127 17.3678 139.57 17.1738 138.014C17.9499 103.192 30.561 73.4286 55.2013 49.1118C57.5295 46.7774 60.8278 45.8048 63.738 44.443C79.8415 29.6584 98.4672 19.9317 119.809 15.2629C123.301 14.4847 126.794 14.0957 129.316 11.1776C130.092 11.1776 130.868 11.3722 131.644 11.3722C132.226 11.1776 132.808 11.1776 133.196 10.9831C145.419 10.3995 157.643 10.3995 169.866 10.9831C171.612 11.1776 172.97 12.1503 174.328 13.3175C175.686 13.3175 176.85 13.3175 178.208 13.5121C192.76 14.4847 204.789 21.6825 216.818 29.2693Z" fill="black"/>
<path d="M201.49 145.212C209.057 148.714 215.459 153.382 219.146 160.969C209.057 157.273 198.386 157.468 187.909 157.273C192.759 153.577 195.669 147.741 201.49 145.212Z" fill="#DBDBDB"/>
<path d="M232.533 167C232.727 164.665 234.474 163.887 236.22 162.915C242.04 172.641 251.741 175.754 261.636 178.866C262.218 180.812 264.74 182.563 261.636 184.508C251.547 182.952 240.488 183.535 235.832 171.474C235.25 169.723 233.698 168.556 232.533 167Z" fill="#4D4C4B"/>
<path d="M207.505 209.408C204.789 210.77 205.953 213.688 204.983 215.828C203.625 207.463 194.506 204.545 190.819 195.596C198.968 199.098 203.042 204.545 207.505 209.408Z" fill="#404040"/>
<path d="M261.635 178.866C245.725 180.034 240.681 176.727 236.219 162.915C236.801 156.689 239.323 151.437 243.591 146.963C248.248 145.99 247.666 150.853 249.8 152.604C256.008 157.468 263.381 159.608 270.56 162.136C272.306 163.498 272.694 165.054 271.336 167C270.172 172.641 266.291 175.948 261.635 178.866Z" fill="#F5F6F7"/>
<path d="M271.336 167C270.56 165.638 269.978 164.276 269.202 162.914C269.784 158.246 271.336 153.577 270.56 148.713C270.754 148.324 270.948 147.935 271.142 147.546C274.052 147.352 276.574 150.075 279.679 148.324C281.425 152.02 276.962 153.771 277.544 157.078C275.41 160.385 273.276 163.693 271.336 167Z" fill="#CFCBCE"/>
<path d="M248.054 155.133C244.562 153.577 247.084 148.519 243.398 146.962C247.472 140.543 250.964 133.734 255.621 127.898C261.247 120.895 268.62 119.339 276.575 124.396C270.754 126.731 265.128 128.676 272.306 136.263C275.217 139.376 269.59 143.461 270.948 147.546L271.142 147.351C270.366 147.935 269.396 147.935 268.426 147.546C255.815 142.488 254.069 143.072 248.054 155.133Z" fill="#CFCBCE"/>
<path d="M280.455 128.093C284.141 134.512 284.141 134.512 284.335 140.543C278.126 137.43 278.126 137.43 280.455 128.093Z" fill="#CFCBCE"/>
<path d="M94.5864 145.795C77.3188 119.338 75.9607 92.8818 94.5864 66.6197C97.4966 62.5344 96.5265 58.6437 96.3325 54.5585C96.1385 47.9444 95.7505 41.3302 95.3624 34.5215C99.4368 34.716 102.153 36.2723 104.481 38.6067C111.854 53.0022 113.6 53.7804 128.151 50.0842C138.434 47.3608 148.911 44.8318 159.582 46.1935C161.522 46.3881 162.687 45.8045 162.687 44.4427C172.387 48.528 179.954 42.4974 187.715 38.6067C192.953 36.0778 196.446 35.1051 195.281 42.8865C192.953 56.5039 196.64 67.9814 203.624 80.2371C215.071 100.274 210.803 120.7 199.744 139.959C199.162 139.959 198.386 139.959 197.804 139.765C191.595 136.457 185.193 133.345 179.372 129.454C177.044 127.898 173.357 127.509 173.94 123.618C174.522 120.311 177.82 119.728 180.536 118.56C185.193 116.42 190.043 114.475 194.699 112.335C189.073 114.864 183.252 117.004 177.626 119.728C175.686 120.7 172.969 121.284 172.581 123.813C172.193 126.536 175.104 127.12 177.044 128.287C184.028 132.178 190.819 136.457 198.192 139.57C188.103 157.467 172.387 166.221 152.404 168.75C128.733 171.474 110.496 161.747 94.5864 145.795Z" fill="#AEAEAE"/>
<path d="M44.1416 195.985C49.1861 189.371 54.4245 182.757 59.469 176.143C72.4682 166.805 86.4374 160.191 102.347 157.662C105.645 162.331 108.555 167.389 112.242 171.669C115.346 175.17 113.406 177.31 111.66 180.034C97.8844 203.572 91.0938 229.251 88.9596 256.291C87.2135 256.486 85.6614 256.68 83.9152 256.875C79.2588 258.042 76.7365 254.735 74.0203 252.011C71.11 236.449 74.0203 221.858 83.3331 209.019C86.2434 204.934 89.9297 201.238 91.6759 198.709C88.1836 204.35 81.587 209.797 77.3186 217.19C75.3784 220.497 72.4682 223.609 67.8117 222.053C67.0357 221.469 66.6476 220.691 66.6476 219.719C66.2596 209.603 62.5733 204.739 53.0664 201.432C49.7681 200.071 45.1117 201.043 44.1416 195.985Z" fill="#AEAEAE"/>
<path d="M177.432 165.443C160.747 187.426 129.316 188.204 114.765 167C125.63 169.139 135.525 173.03 146.195 172.836C156.866 172.641 166.761 169.334 177.432 165.443Z" fill="#E0649B"/>
<path d="M102.347 157.468C102.153 158.051 102.153 159.219 101.765 159.219C87.2135 163.304 73.2442 168.556 60.8271 177.116C60.6331 177.31 59.857 176.338 59.469 175.948C66.8417 164.082 76.1545 154.744 89.1537 149.492C95.7503 148.325 98.2725 154.161 102.347 157.468Z" fill="#DEDEDE"/>
<path d="M144.643 188.009C150.464 188.593 154.538 192.094 154.538 197.736C154.538 203.377 150.852 207.657 144.837 207.657C138.629 207.852 135.33 204.156 135.136 197.931C134.942 191.9 138.241 188.398 144.643 188.009Z" fill="#EED954"/>
<path d="M67.8123 218.94C67.8123 219.718 67.6183 220.691 67.6183 221.469C70.3346 229.834 62.7679 232.947 59.0816 238.005C55.5892 240.923 52.2909 244.035 49.5747 247.537C47.8285 249.871 45.8884 252.011 43.5602 253.762C40.0678 256.485 35.7994 260.182 31.5311 256.485C27.0687 252.789 32.3071 249.288 33.2772 246.175C29.2029 248.12 31.143 259.987 22.2182 254.929C13.6815 250.066 21.8302 244.424 22.9943 239.755C21.2481 241.312 20.4721 246.564 16.3977 244.619C12.9054 242.868 14.0695 238.588 15.4276 235.865C20.8601 225.165 27.4567 215.244 36.1875 207.074C39.2918 204.545 42.396 202.21 46.4704 201.432C57.3354 198.709 66.4542 205.906 67.8123 218.94Z" fill="#F9F9F8"/>
<path d="M35.9934 207.463C30.7549 215.244 25.5164 222.831 20.084 230.612C17.3677 234.697 14.4574 238.588 16.5916 245.008C20.86 241.312 21.6361 235.086 27.8447 232.752C28.4267 238.977 22.9942 241.701 21.4421 246.175C20.278 249.287 18.9199 252.205 22.9942 254.345C27.6506 256.68 27.4566 252.4 28.4267 250.066C30.5609 245.591 32.5011 240.922 38.7096 238.199C38.1276 243.84 34.0532 246.369 32.6951 250.066C31.919 252.011 29.3968 253.956 31.725 256.096C33.6652 257.847 36.1874 256.485 38.1276 255.513C44.9182 252.011 48.6045 245.202 54.231 240.339C55.3951 239.366 56.7533 238.199 57.9174 237.226C60.2456 237.421 62.3798 237.81 61.7977 240.922C55.7832 241.312 53.455 246.564 49.9627 250.066C38.9037 261.349 28.6207 263.878 19.6959 256.68C9.99505 248.898 10.3831 237.615 19.8899 224.193C24.7404 217.189 31.725 211.353 32.6951 202.016C35.4113 202.794 34.2472 205.906 35.9934 207.463Z" fill="#4C4631"/>
<path d="M162.687 44.2481C162.687 45.6099 167.537 48.1388 161.91 47.9443C147.165 47.3607 133.196 50.6678 119.421 55.1421C110.69 58.0601 109.72 48.7224 105.257 44.8317C104.869 44.4427 97.6907 40.9411 104.675 38.4121C114.376 44.0536 124.077 45.999 135.524 42.6919C144.061 39.9684 153.762 40.9411 162.687 44.2481Z" fill="#DCDCDC"/>
<path d="M67.8116 218.94C64.9013 207.657 57.5287 202.016 46.0816 201.821C45.4996 199.876 39.291 199.876 43.9474 195.985C46.2756 199.876 50.35 197.931 53.6483 198.709C64.5133 201.627 70.7218 210.186 67.8116 218.94Z" fill="#3D3D3D"/>
<path d="M131.644 11.3722C144.449 12.1503 157.642 9.2323 170.448 13.123C157.448 12.3448 144.449 15.0683 131.644 11.3722Z" fill="#503620"/>
<path d="M34.6344 149.491C33.8584 148.324 33.2763 146.962 32.5002 145.795C37.1567 145.406 41.8131 145.212 48.6037 148.324C42.5892 149.491 38.7088 150.269 34.6344 149.491Z" fill="#8A8A8A"/>
<path d="M248.054 155.133C246.502 150.27 247.472 146.379 252.323 143.655C259.889 139.376 265.71 142.294 271.336 147.352C273.47 152.993 275.411 158.44 269.202 162.914C268.038 163.498 266.098 164.86 266.098 164.665C261.441 158.829 253.487 159.413 248.054 155.133Z" fill="#52313F"/>
<path d="M266.874 133.345C266.486 136.652 264.739 138.987 261.635 139.376C257.949 139.765 255.621 137.43 255.621 133.54C255.621 130.233 257.755 128.093 261.053 128.093C264.545 128.093 266.098 130.427 266.874 133.345Z" fill="#5A434A"/>
<path d="M150.075 116.81C149.299 123.23 152.791 129.066 157.642 133.929C161.134 137.625 160.746 139.571 156.089 141.71C152.209 143.461 148.135 144.045 143.866 143.85C139.598 143.656 134.942 143.267 132.613 139.376C129.897 134.902 135.524 132.956 137.27 129.844C139.792 125.37 145.807 122.257 143.478 115.643C142.508 113.114 141.926 110.585 144.642 108.64C146.001 107.667 147.747 107.667 149.105 108.64C152.015 110.78 151.239 113.503 150.075 116.81Z" fill="#333434"/>
<path d="M184.028 100.08C184.028 109.807 178.014 116.421 169.089 116.421C159.776 116.421 152.597 109.028 152.791 99.6907C152.985 91.1312 160.552 83.9335 169.283 83.7389C178.014 83.5444 184.222 90.3531 184.028 100.08Z" fill="#3E3B30"/>
<path d="M126.017 116.421C117.286 116.615 108.943 108.834 108.943 100.274C108.749 91.5204 116.704 83.5444 125.629 83.5444C133.971 83.5444 141.15 90.9367 141.344 99.6908C141.15 109.028 134.554 116.226 126.017 116.421Z" fill="#404035"/>
<path d="M128.539 63.313C134.747 72.067 141.15 80.6265 147.552 89.7697C155.313 81.2101 159.387 71.2889 168.118 64.6747C164.044 75.5686 156.477 84.3227 149.881 93.4658C147.746 96.3838 146 93.8549 144.642 92.1041C138.434 83.1555 132.419 74.0124 126.21 65.0638C126.987 64.4802 127.763 63.8966 128.539 63.313Z" fill="#363639"/>
<path d="M197.61 139.57C185.387 138.597 177.238 129.454 164.239 124.007C178.014 117.588 189.267 112.335 200.326 107.277C193.535 115.837 183.058 117.782 174.328 123.813C181.506 130.621 191.595 132.372 197.61 139.57C197.61 139.765 197.61 139.57 197.61 139.57Z" fill="#39393A"/>
<path d="M119.226 123.618C110.496 117.782 100.213 115.837 93.4221 107.277C104.481 112.335 115.54 117.393 127.957 123.035C118.062 130.038 109.138 135.29 97.4965 140.348C103.511 131.205 113.018 130.427 119.226 123.618Z" fill="#353536"/>
<path d="M147.942 52.6133C153.374 60.9783 154.344 69.1487 151.24 77.9028C150.658 79.459 149.688 81.0153 147.942 81.0153C146.195 81.0153 145.225 79.459 144.643 77.9028C141.927 69.3432 141.927 61.1728 147.942 52.6133Z" fill="#454544"/>
<path d="M61.7978 240.728C60.4397 239.561 59.2756 238.199 57.9175 237.032C61.2158 231.78 66.8423 228.084 67.6184 221.469C76.3492 219.33 78.6774 210.381 84.3039 205.129C88.9603 200.849 92.6466 195.402 98.0791 191.122C82.1697 208.047 73.4389 227.5 74.797 250.65C69.7525 248.704 65.8722 244.619 61.7978 240.728Z" fill="#171715"/>
<path d="M259.502 145.601C265.71 145.796 268.815 149.686 270.755 154.744C271.531 157.079 268.621 159.802 266.874 158.829C261.83 155.328 253.293 157.662 251.547 150.464C250.577 147.157 256.009 146.185 259.502 145.601Z" fill="#D96697"/>
<path d="M146.971 124.008C148.524 130.622 156.672 134.124 152.792 139.181C149.882 143.072 139.987 142.878 138.047 139.181C134.942 133.345 143.479 130.427 146.971 124.008Z" fill="#E5E6E5"/>
<path d="M182.477 100.663C182.283 107.472 176.268 112.919 169.089 112.919C161.135 112.724 156.09 107.278 156.478 99.1071C156.866 92.1039 162.687 86.8514 170.059 87.2405C176.85 87.6296 182.671 93.8547 182.477 100.663Z" fill="#98957E"/>
<path d="M124.854 113.308C118.063 113.114 112.242 106.889 112.242 99.8853C112.242 92.8821 118.257 87.046 125.436 87.2406C131.838 87.4351 139.017 94.0493 139.211 100.08C139.405 106.305 131.644 113.503 124.854 113.308Z" fill="#91907C"/>
<path d="M178.596 98.3292C178.596 105.721 176.074 110.001 169.09 110.001C163.075 110.001 159.389 106.694 159.001 100.664C158.613 94.0494 162.687 90.1587 168.895 89.9642C174.716 89.7697 178.402 93.0767 178.596 98.3292Z" fill="#100E0B"/>
<path d="M115.734 102.025C115.54 94.4382 118.45 90.353 124.465 89.964C130.867 89.5749 134.942 93.271 134.942 99.8852C134.942 105.916 131.837 109.806 125.629 110.001C119.614 110.001 115.928 106.888 115.734 102.025Z" fill="#0F0C09"/>
</g>
<defs>
<clipPath id="clip0_58:2115">
<rect width="289" height="288" fill="white"/>
</clipPath>
</defs>
</svg>
