<svg width="228" height="118" viewBox="0 0 228 118" fill="none" xmlns="http://www.w3.org/2000/svg">
<g clip-path="url(#clip0_58:2074)">
<path d="M0 115C0 77.2999 0 39.6999 0 1.9999C1 1.1999 2.1 0.999895 3.3 1.2999C29.7 7.4999 50.5 20.4999 59.8 47.6999C62 54.0999 62.2 54.1999 68.1 52.7999C90.8 47.6999 109.4 55.1999 124.5 71.8999C128.4 76.1999 132 76.4999 136.6 75.7999C152.9 73.3999 167.4 77.2999 180.5 87.2999C185.7 91.1999 189.4 96.1999 192.9 101.5C194.4 103.7 196 104.5 198.6 104.6C206.6 105 214.5 105.6 221.3 110.7C222.1 111.3 222.9 111.9 223.5 112.7C224.6 114.4 224.3 115.5 222.2 115.9C220.9 116.1 219.5 116 218.2 116C147.4 116 76.6 116 5.9 116C3.8 115.9 1.7 116.4 0 115Z" fill="#FEFEFE"/>
<path d="M-9.76548e-05 115C74.3999 115 148.8 115 224.3 115C218.4 108.5 211.5 106 204.5 106.2C196.7 106.4 192.8 103.3 188.3 97.3C174.4 78.7 154.9 73.6 132.8 77.3C129.2 77.9 127.5 76.8 125.3 74.3C108.8 55.2 88.5999 47.4 63.6999 55.2C59.7999 56.4 60.3999 53.3 59.9999 51.8C56.1999 37.4 48.4999 25.7 36.5999 16.8C25.6999 8.8 13.3999 4 -9.76548e-05 2C-9.76548e-05 1.3 -9.76548e-05 0.7 -9.76548e-05 0C28.0999 4.8 49.6999 17.9 60.2999 45.8C62.7999 52.3 61.1999 52.6 69.6999 51.1C91.5999 47.3 110.2 54.1 124.9 70.6C128.3 74.4 131.5 75.3 136.1 74.6C149.3 72.6 161.9 74.8 173.7 81.2C182 85.7 188.1 92.4 193.3 99.9C194.8 102.1 196.4 102.9 198.9 103.1C207.4 103.7 215.9 104.6 222.8 110.4C224.7 111.9 227.9 113.5 227.1 115.9C226.4 118.3 223 117 220.8 117C149 117.1 77.1999 117.1 5.3999 117.1C3.5999 117.1 1.6999 117 -0.100098 116.9C-9.76548e-05 116.3 -9.76548e-05 115.6 -9.76548e-05 115Z" fill="#254169"/>
</g>
<defs>
<clipPath id="clip0_58:2074">
<rect width="227.3" height="117.4" fill="white"/>
</clipPath>
</defs>
</svg>
