<svg width="185" height="135" viewBox="0 0 185 135" fill="none" xmlns="http://www.w3.org/2000/svg">
<path d="M102.292 68.5093C100.887 71.7081 99.4817 72.6923 95.9685 72.5693C84.4449 72.0771 74.6077 76.1372 65.0516 81.4275M102.292 68.5093L65.0516 81.4275M102.292 68.5093C110.584 48.8243 122.669 31.2309 141.079 17.4515L102.292 68.5093ZM65.0516 81.4275L65.2938 81.8649C65.2944 81.8646 65.295 81.8643 65.2956 81.8639C65.2962 81.8636 65.2967 81.8633 65.2973 81.863L65.0516 81.4275ZM188.5 1.45959C187.151 0.485853 185.562 0.372528 183.876 0.598496L188.5 1.45959ZM188.5 1.45959V1.46876V1.72611V1.98346V2.2408V2.49815V2.75549V3.01282V3.27016V3.52749V3.78482V4.04214V4.29947V4.55679V4.81411V5.07142V5.32874V5.58605V5.84336V6.10066V6.35796V6.61526V6.87256V7.12986V7.38715V7.64444V7.90173V8.15901V8.41629V8.67357V8.93085V9.18812V9.4454V9.70267V9.95993V10.2172V10.4745V10.7317V10.989V11.2462V11.5035V11.7607V12.018V12.2752V12.5325V12.7897V13.047V13.3042V13.5614V13.8187V14.0759V14.3331V14.5903V14.8476V15.1048V15.362V15.6192V15.8764V16.1336V16.3909V16.6481V16.9053V17.1625V17.4197V17.6769V17.9341V18.1913V18.4484V18.7056V18.9628V19.22V19.4772V19.7344V19.9916V20.2487V20.5059V20.7631V21.0203V21.2774V21.5346V21.7918V22.0489V22.3061V22.5633V22.8204V23.0776V23.3347V23.5919V23.849V24.1062V24.3633V24.6205V24.8776V25.1348V25.3919V25.649V25.9062V26.1633V26.4204V26.6776V26.9347V27.1918V27.449V27.7061V27.9632V28.2203V28.4774V28.7346V28.9917V29.2488V29.5059V29.763V30.0201V30.2772V30.5343V30.7914V31.0486V31.3057V31.5628V31.8199V32.077V32.334V32.5911V32.8482V33.1053V33.3624V33.6195V33.8766V34.1337V34.3908V34.6478V34.9049V35.162V35.4191V35.6762V35.9332V36.1903V36.4474V36.7045V36.9615V37.2186V37.4757V37.7327V37.9898V38.2469V38.5039V38.761V39.0181V39.2751V39.5322V39.7892V40.0463V40.3033V40.5604V40.8174V41.0745V41.3316V41.5886V41.8456V42.1027V42.3597V42.6168V42.8738V43.1309V43.3879V43.645V43.902V44.159V44.4161V44.6731V44.9301V45.1872V45.4442V45.7012V45.9583V46.2153V46.4723V46.7294V46.9864V47.2434V47.5005V47.7575V48.0145V48.2715V48.5286V48.7856V49.0426V49.2996V49.5566V49.8137V50.0707V50.3277V50.5847V50.8417V51.0988V51.3558V51.6128V51.8698V52.1268V52.3838V52.6408V52.8979V53.1549V53.4119V53.6689V53.9259V54.1829V54.4399V54.6969V54.9539V55.2109V55.4679V55.7249V55.982V56.239V56.496V56.753V57.01V57.267V57.524V57.781V58.038V58.295V58.552V58.809V59.066V59.323V59.58V59.837V60.094V60.351V60.608V60.865V61.122V61.379V61.636V61.893V62.15V62.407V62.664V62.921V63.178V63.4349V63.6919V63.9489V64.2059V64.4629V64.7199V64.9769V65.2339V65.4909V65.7479V66.0049V66.2619V66.5189V66.7759V67.0329V67.2899V67.5469V67.8039V68.0609V68.3179V68.5749V68.8318V69.0888V69.3458V69.6028V69.8598V70.1168V70.3738V70.6308V70.8878V71.1448V71.4018V71.6588V71.9158V72.1728V72.4298V72.6868V72.9438V73.2008V73.4578V73.7148V73.9718V74.2288V74.4858V74.7428V74.9998V75.2568V75.5138V75.7708V76.0278V76.2848V76.5418V76.7988V77.0558V77.3128V77.5698V77.8268V78.0838V78.3408V78.5978V78.8548V79.1118V79.3689V79.6259V79.8829V80.1399V80.3969V80.6539V80.9109V81.1679V81.4249V81.6819V81.9389V82.196V82.453V82.71V82.967V83.224V83.481V83.7381V83.9951V84.2521V84.5091V84.7661V85.0232V85.2802V85.5372V85.7942V86.0513V86.3083V86.5653V86.8223V87.0794V87.3364V87.5934V87.8505V88.1075V88.3645V88.6216V88.8786V89.1356V89.3927V89.6497V89.9067V90.1638V90.4208V90.6779V90.9349V91.1919V91.449V91.706V91.9631V92.2201V92.4772V92.7342V92.9913V93.2483V93.5054V93.7624V94.0195V94.2765V94.5336V94.7907V95.0477V95.3048V95.5618V95.8189V96.076V96.333V96.5901V96.8472V97.1042V97.3613V97.6184V97.8755V98.1325V98.3896V98.6467V98.9038V99.1608V99.4179V99.675V99.9321V100.189V100.446V100.703V100.96V101.218V101.475V101.732V101.989V102.246V102.503V102.76V103.017V103.274V103.531V103.789V104.046V104.303V104.56V104.817V105.074V105.331V105.588V105.845V106.103V106.36V106.617V106.874V107.131V107.388V107.645V107.902V108.16V108.417V108.674V108.931V109.188V109.445V109.702V109.96V110.217V110.474V110.731V110.988V111.245V111.503V111.76V112.017V112.274V112.531V112.788V113.046V113.303V113.56V113.817V114.074V114.331V114.589V114.846V115.103V115.36V115.617V115.875V116.132V116.389V116.646V116.903V117.161V117.418V117.675V117.932V118.189V118.447V118.704V118.961V119.218V119.475V119.733V119.99V120.247V120.504V120.762V121.019V121.276V121.533V121.791V122.048V122.305V122.562V122.82V123.077V123.334V123.591V123.849V124.106V124.363V124.62V124.878V125.135V125.392V125.649V125.907V126.164V126.421V126.679V126.936V127.193V127.451V127.708V127.965V128.222V128.48V128.737V128.994V129.252V129.509V129.766V130.024V130.281V130.538V130.796V131.053V131.31V131.568V131.825V132.082V132.34V132.597V132.602C187.464 133.331 186.307 133.593 185.055 133.662C184.387 133.699 183.7 133.681 182.993 133.652C182.854 133.647 182.715 133.641 182.574 133.635C182.006 133.61 181.425 133.585 180.851 133.585L188.5 1.45959ZM30.6004 113.961C30.6007 113.96 30.6011 113.96 30.6014 113.96L30.1999 113.662L30.5999 113.962C30.6 113.961 30.6002 113.961 30.6004 113.961Z" fill="#FDFEFD" stroke="black"/>
</svg>
