<svg width="181" height="71" viewBox="0 0 181 71" fill="none" xmlns="http://www.w3.org/2000/svg">
<g clip-path="url(#clip0_58:1972)">
<path d="M181 69.122C180.633 69.4249 180.326 69.7278 179.959 70.0307C178.734 70.3942 177.509 70.273 176.284 70.273C119.687 70.273 63.0898 70.273 6.43159 70.273C5.0228 70.273 2.81772 71.0606 2.3277 69.4249C1.83769 67.8498 3.79775 66.6382 5.08405 65.8507C9.55545 63.064 14.3331 60.6408 19.8458 60.7014C21.8671 60.7014 22.4796 59.6109 23.0922 58.157C25.0522 52.9471 27.9923 48.2218 31.4225 43.7995C38.3439 34.8336 47.2868 29.1997 58.7409 27.9881C60.3947 27.8063 61.191 27.2611 61.8035 25.686C64.4373 18.477 68.48 12.116 74.6664 7.26962C81.4654 1.87799 89.2445 -0.181742 98.0648 1.09044C103.026 1.8174 107.804 2.72611 112.153 5.5128C119.013 9.87457 122.688 16.2355 124.648 23.7474C124.832 24.4138 125.016 25.1408 125.077 25.8072C125.138 28.291 126.547 28.5333 128.691 28.5939C141.493 28.8968 150.374 35.4394 152.885 48.1007C152.947 48.2824 152.947 48.5247 152.947 48.7065C153.069 51.9778 154.539 53.6741 158.092 54.3404C162.257 55.128 165.687 57.7329 167.708 61.6706C168.627 63.4275 169.791 64.3362 171.874 64.5785C175.304 65.0025 178.856 65.8507 181 69.122Z" fill="#FEFEFE"/>
<path d="M181 69.122C177.815 66.3959 174.14 64.8814 169.913 64.8814C168.872 64.8814 168.321 64.5179 167.892 63.4881C165.564 57.733 160.848 55.0674 154.968 54.0981C153.13 53.7952 152.763 53.1289 152.579 51.4326C151.293 37.2568 142.166 29.0179 127.588 29.1391C125.505 29.1391 124.709 28.8362 124.342 26.5341C122.382 14.9027 116.501 6.11861 104.557 2.84728C91.878 -0.605793 80.3013 1.15103 70.991 11.3285C66.9484 15.7509 64.1308 20.8396 62.1707 26.413C61.7419 27.6246 61.4969 28.5333 59.8431 28.5939C48.144 29.1997 39.3237 35.1365 32.2184 43.8601C28.3595 48.5853 25.3582 53.8558 23.1531 59.5504C22.6018 61.0043 21.9893 61.4889 20.3355 61.4283C13.2915 61.3678 7.53382 64.3968 1.77612 69.5461C7.35006 69.5461 11.944 69.5461 16.5991 69.5461C69.1535 69.5461 121.646 69.6067 174.201 69.6067C176.1 69.6067 178.06 69.3643 179.959 70.0307C178.978 71.3029 177.508 70.8183 176.283 70.8183C129.364 70.8789 82.3839 70.8789 35.4648 70.8789C24.5619 70.8789 13.659 70.8789 2.6949 70.8789C1.83737 70.8789 0.612327 71.3029 0.183562 70.3942C-0.367707 69.2432 0.97984 68.698 1.65361 68.0922C6.61504 63.4275 12.3727 60.3985 19.2942 60.1562C21.4993 60.0956 22.1731 58.9446 22.9081 57.2483C26.8895 47.6161 32.8922 39.5589 41.59 33.5009C46.3064 30.2295 51.5128 28.1092 57.148 27.6852C60.4557 27.4428 61.2519 25.5649 62.232 23.2022C66.0296 14.1758 71.7873 6.60325 81.0364 2.66554C96.4106 -3.75596 121.218 0.787553 125.505 24.7773C125.873 26.9582 126.547 27.9275 129.119 27.9881C142.105 28.291 151.905 35.6212 153.681 49.0094C154.049 51.6144 155.029 52.9471 157.785 53.5529C162.195 54.5222 165.932 56.9454 167.953 61.1254C169.056 63.4275 170.832 63.8516 173.037 64.2756C176.161 64.8208 179.591 65.4266 181 69.122Z" fill="#20385F"/>
</g>
<defs>
<clipPath id="clip0_58:1972">
<rect width="181" height="71" fill="white"/>
</clipPath>
</defs>
</svg>
