<svg width="311" height="145" viewBox="0 0 311 145" fill="none" xmlns="http://www.w3.org/2000/svg">
<g clip-path="url(#clip0_58:2096)">
<path d="M157.328 144.898C132.967 144.898 108.607 144.898 84.2466 144.898C76.837 137.196 72.777 127.338 67.9049 118.095C64.1493 111.01 61.7133 103.41 58.2623 96.2221C53.7962 83.0776 49.3302 69.9331 46.4881 56.3779C46.1836 54.8375 45.6761 53.3999 45.9806 51.8595C49.9392 42.4119 57.1458 36.3531 66.3824 33.1697C84.4496 26.9055 102.72 26.2894 119.874 35.737C138.753 46.2115 154.79 60.1775 165.854 79.278C166.564 80.4076 167.275 81.6399 167.478 82.9749C166.666 94.0656 164.737 105.054 163.113 116.042C161.997 123.743 160.17 131.342 159.155 139.044C158.85 141.201 158.85 143.255 157.328 144.898Z" fill="#4AF33B"/>
<path d="M214.168 144.898C196.608 144.898 178.947 144.898 161.387 144.898C160.169 143.357 161.083 141.92 161.793 140.687C172.755 122.408 185.138 105.156 199.755 89.6497C201.379 87.904 202.901 85.9528 205.337 85.4394C223.201 79.4833 241.675 76.1972 260.452 76.8133C276.287 77.3268 291.918 80.0994 306.128 88.3147C308.056 90.4713 306.534 92.1143 305.316 93.7574C302.169 98.3785 298.211 102.383 294.455 106.491C284.305 117.479 273.343 127.543 262.482 137.709C260.351 139.25 258.118 139.763 255.377 139.044C242.487 135.553 229.9 135.347 218.126 143.049C217.01 144.076 215.487 144.076 214.168 144.898Z" fill="#4AF33B"/>
<path d="M0.102051 127.44C0.102051 115.425 0.102051 103.513 0.102051 91.498C10.1507 91.9088 19.2858 96.0165 28.4209 99.7133C42.6311 105.464 54.8113 114.398 66.1794 124.667C68.9199 127.132 70.8485 130.418 73.6905 132.883C75.7205 135.142 77.4461 137.606 79.0701 140.071C79.9836 141.509 81.6076 142.946 80.1866 145C65.6719 145 51.0557 145 36.541 145C30.0449 141.509 24.0564 136.99 17.1543 134.218C13.1957 132.677 9.23717 131.445 5.07562 130.418C3.24859 129.905 1.11706 129.596 0.102051 127.44Z" fill="#ECFDEB"/>
<path d="M0.101827 127.44C11.9775 130.521 23.4471 134.218 33.3943 141.817C34.6123 142.741 36.0333 143.357 36.5408 144.897C25.1727 144.897 13.906 144.795 2.53786 145C0.30483 145 -0.202677 144.589 -0.101175 142.33C0.203329 137.401 0.101827 132.472 0.101827 127.44Z" fill="#4BF23D"/>
<path d="M214.168 144.897C225.942 133.909 239.848 133.909 254.16 137.298C257.611 138.12 260.148 138.017 262.889 136.374C264.005 137.811 263.295 139.044 262.28 140.071C256.697 142.843 250.506 142.843 244.72 144.794C234.468 144.897 224.318 144.897 214.168 144.897Z" fill="#050806"/>
<path d="M204.728 86.6714C187.473 103.102 173.872 122.408 161.996 143.049C161.692 143.562 161.692 144.384 161.489 145C160.169 145 158.748 145 157.429 145C159.256 133.499 161.083 121.997 162.91 110.393C164.331 101.048 165.955 91.7032 166.361 82.1529C166.259 81.4341 166.564 81.126 167.376 81.2287C168.898 84.0014 168.086 86.9794 167.782 89.8548C166.564 106.388 162.91 122.613 160.981 139.352C173.364 119.943 186.56 101.459 203.003 85.4391C203.815 84.9256 204.525 84.8229 205.337 85.4391C205.54 85.9525 205.337 86.3633 204.728 86.6714Z" fill="#114838"/>
<path d="M244.618 144.897C249.795 141.201 256.088 141.201 261.975 139.66C264.919 137.606 268.268 138.941 271.415 138.736C280.55 138.223 289.583 138.941 298.313 142.022C299.835 142.536 302.271 142.227 302.474 144.897C283.189 144.897 263.904 144.897 244.618 144.897Z" fill="#E1F4E0"/>
<path d="M302.474 144.898C291.106 139.044 278.723 139.558 266.441 139.66C264.919 139.66 263.396 139.66 261.874 139.66C262.178 138.531 262.483 137.504 262.787 136.374C273.546 125.797 284.915 115.836 294.963 104.437C299.023 99.8161 304.098 95.8111 306.331 89.6497C306.636 89.1362 307.042 88.8281 307.651 88.9308C308.767 89.4443 309.579 90.0604 308.361 91.2927C297.298 106.696 283.595 119.635 269.791 132.369C268.776 133.293 267.761 134.218 266.847 135.142C266.543 135.45 266.441 136.066 266.137 136.477C267.355 138.017 268.979 137.298 270.4 137.298C281.464 136.888 292.223 138.428 302.677 142.228C304.403 142.844 306.331 143.152 307.549 144.795C305.824 144.898 304.2 144.898 302.474 144.898Z" fill="#1C4E48"/>
<path d="M73.0809 133.704C55.9272 113.885 34.3074 101.151 9.33812 93.9627C6.29308 93.0385 3.14654 92.3196 0 91.4981C0 91.19 0 90.7793 0 90.4712C10.2516 91.0873 19.6913 94.7842 29.0294 98.7892C42.529 104.437 54.5062 112.652 65.2653 122.716C66.3819 123.743 67.3969 126.002 69.7314 124.565C73.893 125.797 74.299 129.699 75.4155 132.883C75.8215 133.91 74.096 133.807 73.0809 133.704Z" fill="#274B75"/>
<path d="M73.0809 133.704C73.2839 132.677 75.8214 133.396 74.6034 131.445C73.1824 128.98 72.4719 126.105 69.8329 124.565C65.9758 116.144 61.6112 107.929 58.7692 99.0972C58.4647 98.173 58.2617 97.2488 59.1752 96.4272C64.1488 107.415 68.8178 118.506 74.8064 128.98C77.8515 134.423 82.216 139.044 84.3475 145C83.028 145 81.607 145 80.2875 145C79.0695 140.379 75.0094 137.709 73.0809 133.704Z" fill="#154933"/>
<path d="M307.651 89.4441C307.245 89.5468 306.839 89.7522 306.433 89.8549C283.087 78.1481 258.524 75.9915 233.047 80.6126C223.506 82.3584 213.965 84.0015 204.627 86.6714C204.83 86.2607 205.134 85.9526 205.337 85.5418C206.352 82.3584 209.296 80.9207 211.427 78.9696C224.825 67.6736 239.645 58.8421 257.001 56.0694C270.704 53.9129 284.508 54.7345 296.993 62.1282C304.606 65.8251 309.782 71.3704 310.493 80.3046C310.493 81.0234 310.493 81.7423 310.594 82.3584C309.985 84.9257 310.493 87.9037 307.651 89.4441Z" fill="#ECFDEC"/>
<path d="M59.1753 96.3245C59.0738 97.2487 58.8708 98.0702 58.7693 98.9944C52.8823 86.2607 49.6342 72.7055 45.9802 59.1502C43.5441 50.0107 44.1531 41.1793 47.8072 32.6559C52.8823 20.9491 61.9159 12.9392 72.878 7.70194C90.6408 -0.718743 109.317 -2.46449 128.095 3.38891C142.812 7.90732 155.602 15.5065 163.113 29.9859C166.564 36.5582 168.492 43.5412 169 51.0376C170.015 63.9767 169.203 76.9158 167.477 89.7522C166.868 86.8769 168.391 83.7961 166.564 81.1262C164.94 79.5858 165.65 77.7374 165.752 75.8889C166.158 67.5709 166.158 59.2529 165.447 50.8322C163.62 28.959 151.136 15.6092 131.647 8.52347C107.997 -0.307978 85.2612 2.15661 64.5549 17.2522C54.8108 24.3379 48.7207 33.9909 48.1117 46.5192C48.0102 48.265 47.2997 49.8053 46.9952 51.4484C48.8222 64.6956 52.8823 77.4293 57.2468 90.0603C57.8558 92.1141 58.4648 94.2706 59.1753 96.3245Z" fill="#1E3C5F"/>
<path d="M297.298 62.9499C271.212 50.3189 247.054 56.275 223.912 71.0625C217.315 75.2729 211.529 80.5101 205.54 85.4393C204.728 85.3366 203.815 85.3366 203.003 85.2339C216.706 71.9868 232.032 61.1015 250.607 56.275C267.05 51.962 283.392 52.5781 298.516 61.6149C298.719 62.7445 298.414 63.258 297.298 62.9499Z" fill="#223D60"/>
<path d="M297.298 62.9496C297.704 62.5388 298.11 62.128 298.516 61.7173C307.143 65.5169 312.32 73.3214 310.696 80.3044C308.361 72.8079 303.895 66.9545 297.298 62.9496Z" fill="#2E5D95"/>
<path d="M307.651 89.4441C308.666 87.0822 309.681 84.7203 310.797 82.3584C311.305 85.6445 311.406 88.9306 308.463 91.3952C308.158 90.7791 307.854 90.0602 307.651 89.4441Z" fill="#2E5D95"/>
<path d="M46.9951 51.4482C45.4725 35.5311 53.0851 24.235 64.8593 15.0955C85.8701 -1.23238 122.817 -1.95122 144.842 13.0417C159.661 23.1054 166.767 37.1741 167.376 54.9397C167.68 63.6685 167.477 72.3972 166.665 81.0233C166.564 81.3314 166.361 81.6394 166.259 82.0502C155.601 63.8739 140.884 49.7025 123.121 39.0226C103.024 27.0077 82.013 27.4185 61.0022 37.0714C54.6076 40.1522 50.7506 45.8002 46.9951 51.4482Z" fill="#ECFDEB"/>
</g>
<defs>
<clipPath id="clip0_58:2096">
<rect width="311" height="145" fill="white"/>
</clipPath>
</defs>
</svg>
