<svg width="146" height="68" viewBox="0 0 146 68" fill="none" xmlns="http://www.w3.org/2000/svg">
<g clip-path="url(#clip0_58:1623)">
<path d="M73.8578 67.9519C62.4217 67.9519 50.9857 67.9519 39.5497 67.9519C36.0712 64.34 34.1652 59.7167 31.878 55.3825C30.115 52.0595 28.9714 48.4958 27.3512 45.1247C25.2546 38.9604 23.158 32.7961 21.8238 26.4391C21.6809 25.7167 21.4426 25.0425 21.5856 24.3201C23.4439 19.8895 26.8271 17.0482 31.1633 15.5553C39.645 12.6176 48.222 12.3286 56.2749 16.7592C65.1378 21.6714 72.6665 28.221 77.8604 37.1785C78.1939 37.7082 78.5275 38.2861 78.6228 38.9122C78.2416 44.1133 77.3362 49.2663 76.5738 54.4193C76.0497 58.0312 75.192 61.5949 74.7155 65.2068C74.5725 66.2181 74.5725 67.1813 73.8578 67.9519Z" fill="#4AF33B"/>
<path d="M100.542 67.9518C92.2982 67.9518 84.007 67.9518 75.7636 67.9518C75.1918 67.2295 75.6206 66.5552 75.9542 65.9773C81.1004 57.4051 86.9137 49.3145 93.7753 42.0425C94.5377 41.2238 95.2525 40.3088 96.3961 40.068C104.783 37.2748 113.455 35.7337 122.27 36.0227C129.704 36.2635 137.042 37.5637 143.713 41.4164C144.618 42.4278 143.903 43.1983 143.331 43.9688C141.854 46.136 139.996 48.0142 138.233 49.9405C133.468 55.0935 128.322 59.813 123.223 64.5807C122.222 65.3031 121.174 65.5439 119.888 65.2068C113.836 63.5694 107.927 63.4731 102.4 67.085C101.876 67.5666 101.161 67.5666 100.542 67.9518Z" fill="#4AF33B"/>
<path d="M0.0478516 59.7649C0.0478516 54.1303 0.0478516 48.5439 0.0478516 42.9094C4.76521 43.102 9.05373 45.0283 13.3422 46.7621C20.0133 49.4589 25.7313 53.6487 31.0681 58.4646C32.3546 59.6204 33.26 61.1615 34.5942 62.3173C35.5472 63.3768 36.3573 64.5326 37.1197 65.6884C37.5485 66.3626 38.3109 67.0368 37.6438 68C30.8298 68 23.9682 68 17.1543 68C14.1046 66.3626 11.2933 64.2436 8.05307 62.9434C6.19472 62.221 4.33636 61.6431 2.38271 61.1615C1.52501 60.9207 0.524353 60.7762 0.0478516 59.7649Z" fill="#ECFDEB"/>
<path d="M0.0477608 59.7649C5.62283 61.2096 11.0073 62.9433 15.677 66.5071C16.2488 66.9405 16.9159 67.2295 17.1542 67.9518C11.8173 67.9518 6.52818 67.9037 1.19136 68C0.143061 68 -0.0951896 67.8074 -0.0475395 66.7479C0.0954109 64.4363 0.0477608 62.1246 0.0477608 59.7649Z" fill="#4BF23D"/>
<path d="M100.542 67.9519C106.069 62.7989 112.597 62.7989 119.316 64.3881C120.936 64.7734 122.128 64.7252 123.414 63.9547C123.938 64.6289 123.605 65.2068 123.128 65.6884C120.507 66.9887 117.601 66.9887 114.885 67.9037C110.072 67.9519 105.307 67.9519 100.542 67.9519Z" fill="#050806"/>
<path d="M96.1102 40.6459C88.0097 48.3513 81.6246 57.4051 76.0495 67.085C75.9066 67.3258 75.9066 67.7111 75.8113 68C75.1918 68 74.5247 68 73.9053 68C74.763 62.6063 75.6207 57.2125 76.4784 51.7706C77.1455 47.3881 77.9079 43.0057 78.0985 38.5269C78.0508 38.1898 78.1938 38.0453 78.575 38.0935C79.2897 39.3938 78.9085 40.7904 78.7656 42.1388C78.1938 49.8924 76.4784 57.5014 75.573 65.3513C81.3863 56.2493 87.5809 47.5808 95.3002 40.068C95.6814 39.8272 96.0149 39.7791 96.3961 40.068C96.4914 40.3088 96.3961 40.5014 96.1102 40.6459Z" fill="#114838"/>
<path d="M114.837 67.9519C117.267 66.2181 120.221 66.2181 122.985 65.4958C124.367 64.5326 125.939 65.1586 127.417 65.0623C131.705 64.8215 135.946 65.1586 140.044 66.6034C140.759 66.8442 141.902 66.6997 141.997 67.9519C132.944 67.9519 123.89 67.9519 114.837 67.9519Z" fill="#E1F4E0"/>
<path d="M141.998 67.9519C136.661 65.2068 130.847 65.4476 125.082 65.4958C124.367 65.4958 123.652 65.4958 122.938 65.4958C123.08 64.966 123.223 64.4844 123.366 63.9547C128.417 58.9944 133.754 54.323 138.471 48.9773C140.377 46.8102 142.76 44.932 143.808 42.0425C143.951 41.8017 144.142 41.6572 144.428 41.7054C144.952 41.9462 145.333 42.2351 144.761 42.813C139.567 50.0368 133.135 56.1048 126.654 62.0765C126.178 62.5099 125.701 62.9434 125.272 63.3768C125.129 63.5213 125.082 63.8102 124.939 64.0028C125.511 64.7252 126.273 64.3881 126.94 64.3881C132.134 64.1955 137.185 64.9179 142.093 66.6997C142.903 66.9887 143.808 67.1332 144.38 67.9037C143.57 67.9519 142.808 67.9519 141.998 67.9519Z" fill="#1C4E48"/>
<path d="M34.3081 62.7025C26.2552 53.4079 16.1057 47.4363 4.38381 44.0652C2.95431 43.6317 1.47715 43.2946 0 42.9094C0 42.7649 0 42.5722 0 42.4278C4.81266 42.7167 9.24413 44.4504 13.6279 46.3286C19.9654 48.9773 25.5881 52.83 30.639 57.5496C31.1632 58.0312 31.6397 59.0907 32.7356 58.4164C34.6893 58.9943 34.8799 60.8244 35.4041 62.3173C35.5947 62.7989 34.7846 62.7507 34.3081 62.7025Z" fill="#274B75"/>
<path d="M34.3081 62.7026C34.4034 62.221 35.5946 62.5581 35.0228 61.6431C34.3557 60.4873 34.0222 59.1388 32.7833 58.4164C30.9726 54.4674 28.9236 50.6147 27.5894 46.4731C27.4465 46.0397 27.3511 45.6062 27.78 45.221C30.1149 50.374 32.3068 55.5751 35.1181 60.4873C36.5476 63.0397 38.5966 65.2068 39.5972 68C38.9778 68 38.3107 68 37.6912 68C37.1194 65.8329 35.2134 64.5807 34.3081 62.7026Z" fill="#154933"/>
<path d="M144.427 41.9462C144.237 41.9943 144.046 42.0907 143.856 42.1388C132.896 36.6487 121.365 35.6374 109.405 37.8045C104.925 38.6232 100.446 39.3938 96.0625 40.6459C96.1578 40.4533 96.3007 40.3088 96.396 40.1161C96.8726 38.6232 98.2544 37.949 99.2551 37.034C105.545 31.7365 112.502 27.5949 120.65 26.2946C127.083 25.2833 133.563 25.6686 139.424 29.136C142.998 30.8697 145.428 33.4703 145.762 37.6601C145.762 37.9972 145.762 38.3343 145.809 38.6232C145.523 39.8272 145.762 41.2238 144.427 41.9462Z" fill="#ECFDEC"/>
<path d="M27.7801 45.1728C27.7324 45.6062 27.6371 45.9915 27.5895 46.4249C24.8258 40.4533 23.301 34.0963 21.5856 27.7394C20.442 23.4533 20.7279 19.3116 22.4433 15.3145C24.8258 9.82437 29.0666 6.068 34.2129 3.61191C42.5516 -0.337101 51.3193 -1.1558 60.1345 1.58924C67.0438 3.70822 73.0477 7.27196 76.5738 14.0623C78.1939 17.1445 79.0993 20.4193 79.3375 23.9349C79.814 30.0028 79.4328 36.0708 78.6228 42.0907C78.3369 40.7422 79.0516 39.2975 78.1939 38.0453C77.4315 37.323 77.7651 36.4561 77.8127 35.5892C78.0033 31.6884 78.0033 27.7875 77.6698 23.8385C76.8121 13.5807 70.9511 7.32012 61.8023 3.99718C50.6998 -0.144467 40.0262 1.01134 30.3055 8.09066C25.7311 11.4136 22.8721 15.9405 22.5862 21.8159C22.5386 22.6346 22.205 23.357 22.0621 24.1275C22.9198 30.34 24.8258 36.3116 26.8747 42.2351C27.1606 43.1983 27.4465 44.2096 27.7801 45.1728Z" fill="#1E3C5F"/>
<path d="M139.567 29.5212C127.321 23.5977 115.98 26.3909 105.116 33.3258C102.019 35.3003 99.3029 37.7564 96.4915 40.068C96.1103 40.0198 95.6815 40.0198 95.3003 39.9717C101.733 33.7592 108.928 28.6544 117.648 26.3909C125.368 24.3683 133.039 24.6572 140.139 28.8952C140.234 29.4249 140.091 29.6657 139.567 29.5212Z" fill="#223D60"/>
<path d="M139.567 29.5213C139.758 29.3286 139.949 29.136 140.139 28.9434C144.189 30.7252 146.62 34.3853 145.857 37.6601C144.761 34.1445 142.665 31.3994 139.567 29.5213Z" fill="#2E5D95"/>
<path d="M144.428 41.9462C144.904 40.8385 145.381 39.7309 145.905 38.6232C146.143 40.1643 146.191 41.7054 144.809 42.8612C144.666 42.5722 144.523 42.2351 144.428 41.9462Z" fill="#2E5D95"/>
<path d="M22.0619 24.1275C21.3472 16.6629 24.9209 11.3654 30.4484 7.07932C40.3119 -0.577906 57.6566 -0.915017 67.9967 6.11615C74.9536 10.8357 78.2891 17.4334 78.575 25.7649C78.7179 29.8584 78.6226 33.9518 78.2414 37.9972C78.1938 38.1416 78.0985 38.2861 78.0508 38.4788C73.0476 29.9547 66.1383 23.3088 57.7995 18.3003C48.3648 12.6657 38.5012 12.8584 28.6377 17.3853C25.6357 18.83 23.825 21.4788 22.0619 24.1275Z" fill="#ECFDEB"/>
</g>
<defs>
<clipPath id="clip0_58:1623">
<rect width="146" height="68" fill="white"/>
</clipPath>
</defs>
</svg>
