<svg width="627" height="461" viewBox="0 0 627 461" fill="none" xmlns="http://www.w3.org/2000/svg">
<path d="M529.211 286.047C506.337 286.047 483.464 286.047 460.59 286.047C459.852 286.786 458.93 287.34 457.823 287.709C455.794 288.448 453.58 288.264 451.367 288.633C436.978 289.002 422.405 289.187 408.017 288.633C404.143 289.002 400.454 288.448 396.58 288.633C390.124 288.818 383.668 288.818 377.211 288.633C376.104 288.633 374.998 288.633 373.891 288.633C372.784 288.633 371.677 288.633 370.57 288.633C362.27 289.002 353.969 289.002 345.668 288.633C334.6 289.187 323.716 289.002 312.648 288.633C274.464 289.187 236.279 289.372 198.095 288.633C195.697 288.633 193.483 288.633 191.085 288.633C181.493 289.002 171.901 289.187 162.308 288.448C159.91 288.264 157.697 287.894 156.221 285.862C149.396 284.939 142.386 287.709 135.93 284.2C137.036 280.137 141.279 277.921 141.833 273.673C143.308 263.514 141.833 253.171 142.202 243.013C142.386 238.58 141.648 233.963 143.862 229.715C151.978 226.945 159.91 227.499 167.289 228.792C160.648 225.282 151.609 230.639 144.046 226.206C141.095 218.449 142.202 210.507 142.755 202.565C143.124 197.947 145.891 195.362 150.503 194.992C152.901 194.808 155.483 194.438 157.881 194.623C166.736 195.546 174.483 194.438 178.91 185.388C183.891 183.541 188.318 184.465 190.532 189.451C192.561 194.069 195.881 194.808 200.308 194.623C203.075 194.438 205.842 194.623 208.609 194.623C219.308 194.438 230.93 197.209 237.386 184.834C244.58 183.172 251.221 182.433 254.541 191.668C256.57 197.024 262.104 193.515 265.978 194.623C271.881 194.623 277.784 194.438 283.687 194.438C286.454 194.069 289.405 194.069 292.172 194.438C350.464 194.808 408.571 194.623 466.862 194.438C504.308 194.254 541.57 195.916 578.833 195.362C588.609 195.177 590.27 197.024 591.745 206.813C592.852 213.647 591.745 220.296 588.978 226.575C590.823 230.454 588.425 235.441 592.299 238.765C592.852 238.211 593.405 237.842 593.959 237.472C599.124 234.702 602.26 230.269 603.736 224.728C605.027 223.435 606.318 222.512 608.163 223.251C610.93 227.683 613.328 232.485 619.046 225.836C620.522 223.989 623.105 222.327 625.503 223.251C627.901 224.174 626.609 227.129 626.609 228.976C626.794 244.306 626.425 259.636 626.794 274.965C626.978 283.461 623.104 286.417 615.172 286.232C600.415 286.047 585.842 286.232 571.085 286.417C568.871 288.264 566.658 287.894 564.629 286.601C554.668 286.601 544.522 286.417 534.561 286.417C532.716 287.34 530.871 287.525 529.211 286.047Z" fill="#FEFEFE"/>
<path d="M460.774 91.9322C477.561 91.9322 494.532 91.5628 511.318 92.3016C516.668 92.4863 524.046 87.8689 527.367 96.7343C527.551 97.2884 530.871 97.4731 532.347 96.7343C535.667 95.4414 536.959 93.9638 537.143 99.6894C538.25 123.146 538.066 146.602 538.066 170.058C538.066 172.459 537.512 174.86 537.143 177.262C532.716 173.014 527.735 180.771 525.522 177.816C520.357 171.351 519.066 179.293 515.007 178.554C517.221 182.618 520.541 179.108 522.755 181.51C512.24 184.28 501.91 180.401 491.949 182.433C487.706 177.631 489.735 171.905 489.367 166.549C488.629 154.175 482.541 150.85 472.027 157.499C466.493 163.779 462.619 170.982 460.405 178.924C459.852 180.955 459.299 182.987 457.085 184.095C451.92 185.573 446.57 184.834 441.405 185.019C435.502 184.834 429.784 185.573 423.881 185.203C415.765 184.649 410.415 181.325 409.862 172.644C408.939 149.742 409.493 126.84 409.493 103.937C409.493 97.2884 412.075 91.0087 419.085 90.0852C433.104 88.423 447.124 86.3913 460.774 91.9322Z" fill="#B3AFB2"/>
<path d="M268.746 448.395C223.183 448.579 177.805 448.579 132.242 448.764C129.475 445.994 129.844 442.669 130.397 439.344C133.717 421.06 137.038 402.775 140.543 384.49C141.834 377.471 145.523 373.593 152.902 373.593C168.95 372.3 184.814 375.44 200.678 375.625C204.368 375.625 207.688 376.548 211.193 377.471C237.203 381.165 261.368 389.292 279.999 409.239C282.028 411.455 284.426 413.487 285.717 416.442C286.086 417.366 286.086 418.104 285.902 419.028C280.921 426.046 273.174 430.11 267.824 436.943C267.455 438.606 261.552 438.975 266.902 442.115C269.484 443.223 271.329 445.439 268.746 448.395Z" fill="#FB9133"/>
<path d="M9.38845 428.263C28.0195 420.69 43.6991 407.946 60.4855 397.419C78.3787 385.967 98.8545 381.35 119.699 378.395C125.787 377.471 131.874 377.102 137.961 376.363C140.728 379.134 140.544 382.458 139.806 385.783C136.117 403.698 133.165 421.983 129.476 439.899C128.738 443.223 128.185 446.548 125.049 448.764C117.67 448.764 110.476 448.949 103.097 448.949C101.437 447.286 101.621 444.701 103.282 444.331C113.427 442.3 114.165 432.88 117.854 426.601C116.379 429.556 114.719 433.065 113.243 436.574C111.767 440.083 109.369 443.223 104.942 442.3C100.699 441.376 100.515 437.498 100.33 434.173C99.9613 426.601 100.146 418.843 100.146 411.271C100.146 408.5 100.33 405.73 99.9613 402.959C99.2234 397.049 95.903 393.171 90.0001 392.801C83.7283 392.432 80.7768 396.865 79.8545 402.59C79.1166 406.469 80.0389 410.532 78.1943 414.226C72.8448 415.149 67.8642 419.213 69.1554 423.461C72.1069 433.988 64.1749 440.083 61.7768 448.395C46.4661 448.395 30.971 448.21 15.6603 448.21C14.9224 445.994 12.7088 445.439 11.0486 444.147C3.85447 439.16 3.67001 435.651 9.38845 428.263Z" fill="#FB9133"/>
<path d="M460.776 91.9322C449.524 91.9322 438.087 92.1169 426.834 92.1169C414.475 92.1169 412.999 93.7792 412.815 105.784C412.815 128.133 412.815 150.481 412.63 172.829C411.339 174.676 409.679 176.338 407.465 176.892C399.349 178 392.708 183.172 384.776 185.019C383.3 184.649 382.378 183.726 381.825 182.248C381.456 180.771 381.456 179.293 381.64 177.816C382.747 168.581 383.116 159.161 381.456 149.927C381.087 149.003 380.902 147.895 380.718 146.787C379.795 132.935 380.533 119.267 380.164 105.415C379.98 92.8557 378.504 91.5628 365.592 91.0087C359.135 90.6393 352.126 93.0404 346.223 88.0536C355.63 83.6209 365.038 79.3729 374.446 74.9402C377.028 73.6473 379.058 73.832 381.271 75.1249C393.262 80.1117 404.514 74.5708 416.135 73.278C429.601 75.679 441.776 82.1433 454.689 86.3913C457.64 87.3148 459.485 89.5312 460.776 91.9322Z" fill="#FEFEFE"/>
<path d="M237.574 186.312C233.147 188.528 233.7 192.591 234.807 196.839C220.788 196.839 207.322 196.839 193.856 196.839C191.089 196.839 187.768 198.317 189.059 192.407C190.166 186.866 184.448 187.235 180.758 186.496C177.992 187.42 176.7 185.388 175.778 183.726C171.72 175.415 165.263 169.689 156.962 165.995C154.933 165.072 152.351 163.963 152.904 160.639C169.506 151.404 187.215 149.557 205.477 151.774C211.564 152.512 211.933 150.665 211.933 145.863C211.749 132.381 211.749 118.713 211.749 105.23C211.749 101.906 210.642 98.3965 213.04 95.4414C217.098 98.7659 215.992 103.383 216.176 107.631C216.36 117.42 216.729 127.024 216.176 136.813C215.623 146.233 218.021 152.882 227.797 155.283C228.72 155.652 229.642 156.206 230.564 156.576C233.885 158.607 237.943 160.085 239.05 164.518C238.312 171.721 239.234 179.108 237.574 186.312Z" fill="#7E7E7E"/>
<path d="M152.904 160.639C164.894 166.364 174.855 174.306 180.758 186.496C179.467 187.42 177.253 188.528 177.253 189.267C178.729 199.61 171.166 196.839 166.001 196.839C144.972 197.209 144.972 197.209 145.156 218.449C145.156 221.219 145.341 223.989 145.525 226.76C146.079 227.129 146.447 227.683 146.263 228.053C146.079 228.422 145.894 228.792 145.71 228.792C145.71 241.351 145.894 253.91 145.71 266.469C145.71 269.979 146.632 273.857 144.049 277.182C139.807 273.673 141.282 268.87 141.098 264.622C141.098 260.929 140.36 259.082 135.933 259.636C130.399 260.375 125.787 258.343 123.389 252.987C123.205 234.332 122.836 215.493 123.205 196.839C123.389 186.681 129.846 179.293 136.671 172.459C141.282 167.473 146.632 163.225 152.904 160.639Z" fill="#949393"/>
<path d="M213.964 108.555C213.78 104.307 213.411 99.8741 213.227 95.6261C214.149 92.8557 215.625 90.6393 218.761 90.0852C227.615 89.3465 236.285 88.2383 244.955 91.9322C248.829 93.5944 253.44 93.0404 257.683 93.0404C288.673 93.0404 319.479 93.0404 350.469 93.0404C368.916 93.0404 371.314 95.6261 371.683 114.465C371.867 128.871 370.761 143.278 372.79 157.684C378.877 157.499 376.11 146.971 383.673 149.372C384.596 159.346 384.78 169.504 383.673 179.478C383.489 180.401 383.304 181.325 383.12 182.433C381.091 189.451 375.003 189.267 369.654 189.451C355.819 189.821 341.984 189.451 328.333 189.636C323.537 189.636 318.372 189.082 315.236 194.253C304.537 199.24 299.557 197.393 295.129 186.866C295.867 176.892 296.236 167.103 301.955 158.423C303.984 156.945 305.46 155.098 306.382 152.697C307.858 148.264 310.994 148.264 314.498 150.296C317.819 152.328 319.295 154.913 317.45 158.792C316.343 161.008 314.314 162.671 313.023 164.702C309.702 170.058 311.731 177.077 317.819 177.631C330.178 178.739 342.906 180.217 355.081 175.415C358.217 174.122 359.508 172.09 360.615 168.95C367.256 149.372 363.382 129.425 363.935 109.478C364.12 103.568 359.324 103.014 354.896 102.829C344.197 102.645 333.498 102.829 322.615 102.829C298.634 102.829 274.654 102.645 250.858 102.829C234.809 103.014 233.518 104.307 233.518 120.191C233.518 129.795 233.702 139.214 233.518 148.818C233.518 152.512 233.887 156.206 230.751 159.161C230.197 159.161 229.644 159.161 229.091 158.792C226.324 155.837 226.324 152.328 226.139 148.634C226.139 143.093 225.586 137.737 226.139 132.196C226.877 121.114 225.217 112.433 213.964 108.555Z" fill="#0C0C0C"/>
<path d="M381.271 431.403C393.815 432.88 406.174 435.096 417.058 441.561C419.087 442.669 421.669 444.331 420.747 447.102C419.825 449.687 417.058 448.579 415.029 448.579C373.155 448.579 331.281 448.395 289.407 448.395C285.349 444.885 287.194 439.529 285.349 435.466C284.98 429.925 282.213 424.384 285.533 418.843L285.902 418.474C288.485 416.812 291.252 417.366 293.834 418.104C312.834 424.199 332.572 426.6 352.495 427.893C358.213 429.74 364.116 429.002 369.834 429.002C373.708 429.186 377.582 429.371 381.271 431.403Z" fill="#FB9033"/>
<path d="M296.417 186.496C299.922 193.515 303.611 199.979 313.019 193.515C316.339 190.744 320.397 190.56 324.271 190.56C344.009 190.56 363.562 190.56 383.3 190.56C391.232 190.56 398.98 194.808 406.912 191.668C416.135 189.821 425.359 190.56 434.582 190.929C441.776 190.56 449.155 190.56 456.349 190.929C460.592 190.744 464.834 190.56 469.077 190.929C477.194 190.19 486.417 193.699 492.135 184.465C498.96 185.019 507.261 181.694 510.028 192.407C510.582 194.808 515.009 193.699 517.776 193.699C548.951 193.699 580.31 193.699 611.485 193.699C614.805 193.699 618.31 193.145 621.446 194.808C625.135 196.655 627.902 198.132 624.213 202.934C621.815 206.074 621.077 210.507 619.417 214.201C618.126 217.156 616.096 215.309 615.543 214.201C613.145 209.583 610.378 211.615 608.718 214.016C607.242 216.417 603.184 219.741 608.164 222.881C606.873 223.435 605.766 224.174 604.475 224.728C603.184 231.377 597.281 234.702 593.407 239.504C590.64 241.166 589.718 240.427 589.533 237.288C589.349 234.332 589.533 231.193 587.873 228.607C586.582 228.053 584.737 229.161 583.999 227.129C591.194 225.282 588.058 218.818 588.796 214.755C591.562 200.533 588.242 197.024 573.854 197.024C488.815 197.024 403.592 197.024 318.553 197.024C309.329 197.024 300.106 196.839 290.883 196.655C291.252 192.776 290.883 187.974 296.417 186.496Z" fill="#DEA1CD"/>
<path d="M383.487 149.188C377.953 149.742 380.72 154.913 378.875 157.684C376.846 160.454 374.632 162.671 370.574 165.626C369.836 158.792 368.73 152.697 368.545 146.602C368.176 133.673 368.176 120.745 368.545 107.816C368.73 99.1353 365.409 95.6261 356.555 95.8108C322.798 96.1802 289.04 95.9955 255.283 95.8108C249.38 95.8108 244.031 95.8108 238.312 91.7475C233.7 88.423 225.399 90.4546 218.574 90.0852C221.895 87.3148 225.584 88.6077 229.273 88.6077C268.38 88.423 307.302 88.423 346.409 88.423C354.71 88.6077 363.011 88.6077 371.312 88.7924C381.089 88.9771 384.225 91.7475 384.225 101.352C384.04 117.235 383.671 133.119 383.487 149.188Z" fill="#333132"/>
<path d="M76.7173 415.703C76.9018 411.086 76.7173 406.469 77.0863 401.851C77.8241 394.648 82.0668 390.031 89.261 389.477C95.7173 388.923 102.543 395.387 102.727 401.851C102.912 412.194 102.727 422.722 102.912 433.065C102.912 435.651 101.251 440.083 105.863 440.453C109.368 440.822 110.844 437.682 112.135 434.542C114.533 428.632 116.562 422.537 121.727 417.735C122.096 427.155 113.795 441.191 105.863 444.701C103.834 445.624 103.096 446.732 103.096 448.764C102.174 455.782 97.7465 460.03 91.1057 460.769C82.6202 461.693 78.562 455.782 75.795 448.764C73.028 438.975 74.6882 428.817 74.1348 418.843C73.9503 417.366 75.2416 416.258 76.7173 415.703Z" fill="#FBB133"/>
<path d="M416.319 73.4626C404.882 79.0035 393.629 85.0985 381.455 75.3096C378.319 64.782 379.794 53.7002 376.29 42.9879C373.338 33.9378 381.086 34.6766 386.804 34.6766C391.785 34.6766 388.833 26.3653 394.552 27.1041C398.057 32.6449 402.668 33.7531 408.202 30.2439C412.629 29.5051 412.076 23.9643 415.581 22.302C421.299 21.1938 425.173 22.6714 425.542 29.3204C425.542 29.6898 425.542 30.0592 425.358 30.2439C414.105 39.1093 418.901 51.6686 418.163 62.935C418.163 66.6289 418.717 70.3228 416.319 73.4626Z" fill="#FB97BC"/>
<path d="M396.214 286.047C399.904 286.047 403.408 286.047 407.098 286.047C411.156 288.818 411.894 293.62 413.554 297.868C417.428 307.841 420.933 317.815 425.175 327.604C425.913 330.189 427.205 332.96 425.729 335.73C426.282 340.902 429.787 345.15 429.418 350.506C425.544 357.894 420.379 363.25 411.156 361.772C406.544 362.326 403.777 360.479 402.486 355.862C401.933 353.461 400.826 351.245 399.904 349.213C393.078 334.068 398.059 335.73 379.981 335.915C379.243 332.221 382.379 332.406 384.408 331.852C386.438 331.298 388.651 331.113 388.282 327.973C387.175 322.617 383.117 318 384.408 312.089C385.7 309.688 387.544 308.765 390.496 309.319C397.874 310.612 401.564 306.548 400.457 298.976C399.35 294.359 396.768 290.665 396.214 286.047Z" fill="#FB97BC"/>
<path d="M379.427 376.363C379.427 381.904 387.543 387.445 379.611 393.171C377.582 396.126 375.368 398.711 372.233 400.558C362.825 406.838 353.786 413.672 343.825 419.028C341.242 420.506 338.291 422.352 335.339 419.582C332.757 417.181 332.572 414.041 333.495 411.086C335.893 402.221 341.242 395.387 349.174 390.4C351.019 390.031 352.495 393.355 354.708 390.4C356.737 387.445 353.417 387.999 352.864 386.706C351.572 384.305 350.281 381.904 348.621 379.873C346.038 374.516 343.271 369.345 342.718 363.25C342.902 361.772 343.087 359.741 344.563 359.187C353.048 355.677 359.689 349.028 368.359 346.073C372.417 348.474 372.417 353.092 374.446 356.601C377.582 363.065 377.582 370.084 379.427 376.363Z" fill="#7C3C54"/>
<path d="M410.969 361.772C418.163 359.925 423.697 354.939 429.231 350.506C436.241 361.218 438.823 373.593 443.619 385.044C445.279 389.107 442.881 392.062 439.561 394.279C427.94 401.667 416.503 409.239 404.881 416.812C402.668 418.289 400.454 421.244 397.687 418.843C395.105 416.627 395.843 413.118 397.134 410.163C400.454 402.405 406.542 396.68 412.26 390.585C416.134 392.986 414.474 398.896 419.639 401.297C420.008 393.171 420.93 385.229 412.813 380.242C411.153 376.733 409.493 373.408 407.833 369.899C405.804 365.836 407.095 363.25 410.969 361.772Z" fill="#FEFDFE"/>
<path d="M125.047 448.764C129.105 427.709 132.979 406.653 137.037 385.598C137.591 382.643 137.775 379.503 137.959 376.548C143.678 354.939 146.445 332.775 150.872 311.166C152.532 302.854 154.561 294.543 156.406 286.232C158.251 286.232 159.911 286.417 161.756 286.417C165.26 289.926 163.231 293.989 162.678 297.683C158.989 318.184 155.484 338.87 151.057 359.371C149.765 365.282 149.95 370.822 152.532 376.179C149.027 376.548 144.969 376.363 144.231 381.35C140.726 403.883 134.824 426.231 132.426 448.949C129.843 452.643 127.445 452.827 125.047 448.764Z" fill="#DC99B0"/>
<path d="M529.21 286.047C531.055 286.047 532.715 285.863 534.559 285.863C534.375 303.409 529.394 320.216 526.258 337.393C519.987 372.485 513.346 407.577 506.705 442.669C506.521 443.223 506.705 443.962 506.336 444.516C504.86 446.917 505.967 451.904 501.909 451.35C497.851 450.796 499.142 446.363 499.695 443.592C501.54 432.695 503.938 421.983 505.967 411.271C513.715 369.53 521.462 327.788 529.21 286.047Z" fill="#DC9AB1"/>
<path d="M425.727 335.73C424.436 333.514 423.514 331.113 423.883 328.527C428.125 324.279 433.659 325.757 438.64 325.572C449.708 325.203 449.708 325.387 450.63 314.49C450.815 312.089 450.815 309.688 451.922 307.287C453.951 304.332 456.164 304.701 458.562 306.918C458.747 307.472 458.931 307.841 459.3 308.395C459.3 345.519 459.116 382.828 459.116 419.951C459.116 422.168 459.116 424.199 459.116 426.416C458.931 428.447 459.116 431.218 456.164 431.033C453.213 430.848 453.582 428.078 453.582 426.046C453.582 424.199 453.582 422.352 453.582 420.506C453.582 395.018 453.397 369.53 453.766 343.857C453.766 337.393 451.737 334.992 445.281 335.546C438.64 336.1 432.184 335.73 425.727 335.73Z" fill="#DB98B0"/>
<path d="M492.133 184.465C493.978 192.037 491.211 195.177 483.463 194.253C479.036 193.699 474.424 193.884 469.997 193.699C467.784 191.483 467.415 188.713 467.415 185.758C466.861 175.969 466.123 166.18 469.628 156.76C473.686 150.111 479.958 150.481 485.861 152.328C492.133 154.175 491.949 159.9 491.949 165.256C491.949 171.167 492.133 176.892 492.317 182.802C492.133 183.172 492.133 183.911 492.133 184.465Z" fill="#3C393B"/>
<path d="M379.427 20.455C374.631 14.1754 375.923 5.67939 383.117 2.72426C392.156 -0.969651 401.932 -0.784956 410.787 2.53956C418.35 5.31 418.35 12.8825 417.612 19.7162C405.068 24.703 392.34 23.7795 379.427 20.455Z" fill="#030303"/>
<path d="M577.175 332.036C578.835 344.042 580.68 355.862 582.34 367.867C584.738 385.598 587.136 403.329 589.534 421.06C587.505 423.276 586.398 426.231 584 428.263C580.864 417.366 581.233 406.099 579.757 395.018C576.99 373.962 574.223 352.907 571.641 331.852C572.563 331.482 573.854 331.667 574.223 332.221C575.883 337.393 576.252 332.59 577.175 332.036Z" fill="#D997AF"/>
<path d="M123.388 252.802C129.291 257.973 135.932 257.973 143.864 255.203C143.864 262.96 143.864 269.979 143.864 276.997C142.757 281.06 139.437 282.538 136.117 284.2C134.825 284.2 133.534 284.2 132.427 284.2C126.709 284.754 123.02 282.723 123.02 276.443C123.02 268.686 123.204 260.744 123.388 252.802Z" fill="#686868"/>
<path d="M379.43 376.363C377.032 370.084 374.818 363.804 372.42 357.524C367.439 337.947 369.468 317.815 369.099 298.052C369.099 293.804 368.915 289.372 372.235 285.863C372.789 285.863 373.527 286.047 374.08 286.047C379.061 295.467 375.371 305.625 376.663 315.414C377.032 317.815 374.265 321.878 379.614 322.432C382.75 325.203 387.362 325.572 390.682 328.342C392.158 331.298 393.08 333.883 388.099 334.068C385.332 334.253 382.197 332.96 379.983 335.915C379.614 349.398 379.614 362.881 379.43 376.363Z" fill="#D888A5"/>
<path d="M76.7174 415.703C76.7174 423.461 76.9019 431.218 76.7174 439.16C76.7174 442.484 77.6398 445.994 75.7951 449.133C71.1834 448.949 66.5718 448.764 61.7757 448.579C58.8242 441.376 65.2805 437.313 67.3097 431.772C67.4941 431.218 70.0767 430.664 68.7854 429.556C59.1932 421.614 71.7368 418.104 72.2902 412.194C72.4747 410.901 74.5038 411.64 76.7174 415.703Z" fill="#2D2116"/>
<path d="M379.427 20.455C392.156 20.2703 404.884 19.9009 417.796 19.7162C423.146 20.8244 429.787 20.6397 425.544 29.5051C422.777 25.4418 419.457 22.6714 414.107 24.1489C411.709 25.9959 411.524 29.5051 409.126 31.3521C400.825 37.2623 396.214 36.1542 394 27.6582C388.835 25.9959 391.787 34.3072 387.175 33.199C385.884 33.199 384.777 33.199 383.486 33.0143C379.981 32.8296 375.738 33.9378 374.262 29.1357C372.787 24.3336 376.66 22.6714 379.427 20.455Z" fill="#F7EFF2"/>
<path d="M372.233 398.527C374.815 396.865 377.213 395.018 379.796 393.355C380.534 406.099 377.767 418.843 381.456 431.403C371.679 431.218 361.718 432.88 351.941 430.294C354.524 426.785 358.398 426.97 361.903 426.97C367.437 426.785 369.281 424.015 369.466 418.843C369.466 412.01 367.805 404.806 372.233 398.527Z" fill="#E19FAB"/>
<path d="M577.176 332.036C575.701 332.59 579.39 337.393 574.778 335.176C573.487 334.622 572.749 333.145 571.642 332.036C569.244 316.891 567.031 301.562 564.633 286.417C566.846 286.417 569.06 286.417 571.089 286.232C573.118 301.377 575.147 316.707 577.176 332.036Z" fill="#884960"/>
<path d="M287.378 435.466C290.699 439.345 288.854 444.147 289.592 448.395C282.767 448.395 275.757 448.395 268.932 448.395C268.747 442.3 265.058 442.3 260.262 444.331C260.815 439.529 263.582 437.313 267.087 435.466C269.669 436.02 273.174 433.804 274.835 436.205C279.631 442.854 283.32 438.79 287.378 435.466Z" fill="#74471F"/>
<path d="M115.825 248.185C115.825 243.198 115.825 238.396 115.825 233.409C115.825 231.562 116.009 229.346 118.407 229.346C120.806 229.161 121.174 231.377 121.174 233.224C121.174 242.459 121.174 251.694 121.174 260.929C121.174 263.33 120.621 265.731 118.039 265.915C114.349 266.1 115.825 262.96 115.641 261.298C115.641 256.865 115.825 252.433 115.825 248.185Z" fill="#FDFCFC"/>
<path d="M121.358 212.169C121.358 215.124 121.543 218.264 121.358 221.219C121.358 222.881 122.096 225.282 119.145 225.098C117.115 224.913 115.824 223.435 115.824 221.404C115.824 214.755 115.824 208.106 115.824 201.272C115.824 199.425 116.378 197.393 118.776 197.763C120.62 197.947 121.174 199.61 121.174 201.087C121.358 204.966 121.358 208.475 121.358 212.169Z" fill="#FDFDFD"/>
<path d="M123.02 276.628C125.049 280.506 128.001 283.461 132.428 284.385C126.156 286.786 119.7 288.079 116.379 280.137C115.273 277.182 113.981 271.826 117.671 270.163C122.836 268.132 119.884 275.335 123.02 276.628Z" fill="#FDFCFC"/>
<path d="M584 428.263C584.553 424.754 584.184 420.69 589.534 421.06C590.272 426.231 591.01 431.218 591.563 436.389C591.748 438.236 591.932 440.268 589.534 440.822C586.767 441.376 585.845 439.16 585.291 437.128C584.553 434.358 584.369 431.218 584 428.263Z" fill="#884961"/>
<path d="M9.38883 428.263C6.06845 435.651 7.17524 441.007 15.6607 443.962C18.2432 444.885 16.583 446.917 15.6607 448.395H14.9228C3.30146 445.809 2.37912 444.701 2.93252 435.281C-0.387866 427.709 3.85485 427.339 9.38883 428.263Z" fill="#291F17"/>
<path d="M412.629 380.057C409.862 388.553 402.668 392.247 395.289 395.572C399.347 388.369 404.512 382.643 412.629 380.057Z" fill="#E1A2B7"/>
<path d="M2.93171 435.281C3.48511 442.854 9.20355 445.624 14.922 448.395C13.4463 448.579 11.9705 448.764 10.4948 448.764C-0.757612 448.764 -2.41781 445.994 2.93171 435.281Z" fill="#F79540"/>
<path d="M387.174 33.0143C388.281 30.6133 389.204 28.2122 390.31 25.8112C390.864 24.3336 391.048 21.7479 393.262 22.6714C395.107 23.4102 394.369 25.8112 394 27.4735C393.077 30.4286 392.155 33.199 391.048 36.1541C390.679 37.447 390.495 39.6634 388.466 38.7399C387.543 38.1858 387.174 36.1541 386.621 34.8613C387.174 34.3072 387.174 33.7531 387.174 33.0143Z" fill="#B76281"/>
<path d="M458.745 286.047C459.298 286.047 459.851 286.047 460.405 286.047C460.036 293.435 461.881 301.008 459.114 308.211L458.56 307.657C455.24 300.453 454.502 293.25 458.745 286.047Z" fill="#DB98B0"/>
<path d="M372.231 398.527C372.231 406.469 372.047 414.411 372.416 422.353C372.785 428.447 370.571 430.664 364.484 430.11C360.241 429.74 355.998 430.294 351.756 430.479C329.066 430.479 307.115 425.862 285.717 418.659C266.532 395.018 240.892 383.751 211.377 379.873C206.765 377.287 206.027 372.669 205.29 368.052C203.629 357.709 203.26 347.366 201.231 337.023C198.464 321.693 197.358 306.364 195.144 291.034C194.959 289.187 195.513 287.525 196.804 286.047C235.542 286.047 274.095 286.047 312.833 286.047C319.474 292.512 320.765 301.746 324.455 309.688C330.173 322.432 334.969 335.73 340.688 348.659C342.901 353.461 343.27 358.448 344.193 363.619C346.037 369.16 347.882 374.701 349.727 380.242C349.727 381.165 349.542 382.089 348.989 382.828C347.513 384.675 347.697 384.49 349.727 385.967C351.756 387.445 351.756 389.477 349.911 391.508C344.746 397.049 339.027 402.221 336.076 409.424C334.785 412.564 333.862 416.442 336.629 418.843C339.765 421.614 341.979 417.55 344.193 416.073C353.785 410.347 363.008 404.252 372.231 398.527Z" fill="#FDD6DA"/>
<path d="M152.349 375.809C147.368 374.701 145.154 373.223 146.63 366.759C152.164 339.978 156.776 313.013 161.572 286.047C171.349 286.047 181.31 285.863 191.086 285.863C195.145 290.295 194.591 296.205 195.514 301.562C197.174 312.089 198.834 322.802 199.572 333.514C202.154 345.15 202.523 357.155 204.737 368.791C205.29 372.115 204.921 375.44 202.339 378.21C185.921 377.471 169.135 376.548 152.349 375.809Z" fill="#FDD6DA"/>
<path d="M344.562 363.435C333.863 337.762 322.426 312.274 313.203 285.863C324.087 286.047 334.97 286.047 345.854 286.232C346.96 286.786 348.067 287.525 348.621 288.633C355.999 306.364 362.824 324.464 368.912 342.749C369.465 344.226 369.465 345.704 367.989 346.812C362.087 352.353 355.999 357.524 347.698 359.556C345.485 360.11 344.747 361.588 344.562 363.435Z" fill="#AE5777"/>
<path d="M453.399 306.179C453.399 306.733 453.214 307.287 453.214 308.026C452.476 328.527 452.476 328.527 432.001 328.527C429.234 328.527 426.467 328.712 423.884 328.712C416.321 315.414 412.078 300.638 407.098 286.232C422.408 286.232 437.904 286.047 453.214 286.047C457.457 292.696 457.272 299.345 453.399 306.179Z" fill="#FDD6DA"/>
<path d="M237.573 186.312C233.7 178.924 235.729 171.536 237.389 164.148C238.311 161.378 236.467 158.792 237.02 156.022C237.758 152.143 239.418 149.557 243.845 151.589C246.981 153.066 250.302 153.066 253.622 152.882C272.069 152.512 283.321 167.657 277.972 185.388C275.205 190.929 271.7 195.916 264.874 197.024C261.554 197.209 258.234 197.393 254.913 197.393C253.622 197.393 251.039 197.763 251.593 195.731C254.36 183.356 245.137 187.235 239.234 186.496C238.865 186.312 238.311 186.312 237.573 186.312Z" fill="#B3AFB2"/>
<path d="M367.991 346.997C360.613 326.68 353.234 306.548 345.855 286.232C354.71 286.232 363.564 286.047 372.234 286.047C372.788 308.211 370.758 330.559 373.894 352.722C374.079 354.569 374.079 356.416 372.603 357.709C370.943 354.2 369.467 350.506 367.991 346.997Z" fill="#FDD6DA"/>
<path d="M296.417 186.496C294.019 189.636 294.572 194.438 290.883 197.024C288.669 197.024 286.271 197.024 284.058 197.024C278.524 195.362 277.233 191.483 278.155 186.312C281.106 178.185 279.077 168.95 283.689 161.193C288.301 155.837 292.174 149.003 301.029 152.697C302.32 154.544 303.427 156.576 302.32 158.977C300.291 167.842 298.446 177.077 296.417 186.496Z" fill="#817F80"/>
<path d="M396.212 286.047C404.329 295.097 405.067 300.269 400.086 309.873C397.688 314.49 395.474 318.554 390.678 311.905C388.834 309.319 386.989 311.166 385.144 311.72C379.795 310.981 380.348 305.44 377.95 302.485C376.659 297.129 373.892 291.957 375.737 286.232C382.562 286.232 389.387 286.232 396.212 286.047Z" fill="#D888A5"/>
<path d="M434.767 268.501C481.427 268.501 519.252 268.005 519.252 267.393C519.252 266.781 481.427 266.285 434.767 266.285C388.107 266.285 350.281 266.781 350.281 267.393C350.281 268.005 388.107 268.501 434.767 268.501Z" fill="#EED0E7"/>
<path d="M197.54 333.514C195.511 317.63 191.822 301.931 191.453 285.863C193.298 285.863 195.327 285.863 197.172 285.863C199.016 300.269 202.521 314.675 201.968 329.451C201.968 331.482 203.443 333.514 204.181 335.361C200.861 338.316 199.201 335.73 197.54 333.514Z" fill="#92546A"/>
<path d="M230.378 268.686C207.32 268.686 184.261 268.686 161.203 268.686C161.203 268.132 161.203 267.393 161.203 266.839C184.261 266.839 207.135 266.839 230.193 266.839C230.378 267.578 230.378 268.132 230.378 268.686Z" fill="#ECC9E3"/>
<path d="M375.738 286.232C377.03 291.773 378.505 297.314 379.797 302.855C380.903 309.504 385.146 316.337 379.243 322.802C377.214 324.279 378.321 327.788 374.078 329.266C374.078 314.49 374.078 300.453 374.078 286.232C374.632 286.047 375.185 286.047 375.738 286.232Z" fill="#9B5A71"/>
<path d="M348.249 268.501C335.152 268.501 321.871 268.501 308.773 268.501C308.773 267.947 308.773 267.208 308.773 266.654C321.871 266.654 335.152 266.654 348.249 266.654C348.249 267.208 348.249 267.947 348.249 268.501Z" fill="#EDCCE4"/>
<path d="M508.919 228.976C489.919 228.976 470.919 228.976 451.734 228.976C451.734 228.422 451.734 227.868 451.734 227.314C470.734 227.314 489.919 227.314 508.919 227.314C509.103 227.868 508.919 228.422 508.919 228.976Z" fill="#E8BFDE"/>
<path d="M445.65 227.499C427.572 231.008 409.31 228.053 390.863 227.499C409.125 227.499 427.388 227.499 445.65 227.499Z" fill="#E9BFDE"/>
<path d="M453.395 306.179C453.395 299.53 453.211 292.696 453.211 286.047C455.056 286.047 456.9 286.232 458.745 286.232C458.745 293.435 458.56 300.638 458.56 308.026C456.9 307.287 455.24 306.733 453.395 306.179Z" fill="#AB6981"/>
<path d="M280 186.127C279.631 190.375 280.738 194.069 284.059 196.839C277.787 196.839 271.33 197.024 265.059 197.024C270.039 194.623 271.884 189.082 276.311 186.127C277.602 185.203 278.894 185.019 280 186.127Z" fill="#EBBBD3"/>
<path d="M304.536 267.208C297.341 270.163 290.147 269.609 282.953 267.578C289.963 264.807 297.341 265.915 304.536 267.208Z" fill="#EBC7E2"/>
<path d="M324.641 227.129C336.815 227.129 348.99 227.129 361.165 227.129C348.806 229.9 336.631 229.346 324.641 227.129Z" fill="#E7BADC"/>
<path d="M225.579 228.607C240.759 228.607 253.065 228.276 253.065 227.868C253.065 227.46 240.759 227.129 225.579 227.129C210.399 227.129 198.094 227.46 198.094 227.868C198.094 228.276 210.399 228.607 225.579 228.607Z" fill="#E4B3D8"/>
<path d="M201.23 227.683C192.191 229.9 184.074 228.792 175.773 227.683C183.89 227.683 192.006 227.683 201.23 227.683Z" fill="#E4B3D8"/>
<path d="M593.406 239.689C593.775 233.04 602.261 231.377 602.998 224.728C602.998 224.544 603.552 224.359 603.736 224.359C603.921 224.359 604.29 224.728 604.474 224.913C605.581 233.409 599.863 236.733 593.406 239.689Z" fill="#FDD6DA"/>
<path d="M145.523 228.792C145.523 228.053 145.523 227.499 145.523 226.76C154.009 226.76 162.494 226.76 170.98 226.76C170.98 227.499 170.98 228.053 170.98 228.792C162.494 228.792 154.009 228.792 145.523 228.792Z" fill="#E7BADC"/>
<path d="M319.106 227.499C311.542 229.161 304.164 230.454 296.785 227.499C304.164 227.499 311.542 227.499 319.106 227.499Z" fill="#E6B7DA"/>
<path d="M587.875 228.792C591.933 231.193 588.797 237.472 593.409 239.689C592.671 240.981 592.118 243.013 591.011 243.383C588.982 244.121 588.797 241.536 588.613 240.427C588.059 236.733 588.059 232.67 587.875 228.792Z" fill="#FDD6DA"/>
<path d="M434.769 193.33C425.361 194.253 415.953 192.776 406.546 194.808C405.992 194.253 405.623 193.515 405.439 192.776C405.07 189.636 403.41 186.866 402.672 183.726C402.672 180.032 404.701 177.446 407.284 175.045C409.128 174.306 410.973 173.568 412.818 172.829C412.818 179.847 416.322 182.618 423.148 182.433C429.419 182.248 435.876 182.433 442.332 182.433C443.07 182.987 443.254 183.726 443.07 184.465C440.487 187.789 437.351 190.375 434.769 193.33Z" fill="#B66985"/>
<path d="M501.175 124.254C501.175 124.254 500.068 124.993 498.961 124.993C494.534 125.362 494.35 128.502 493.612 132.011C491.952 138.66 484.389 141.615 479.224 138.106C476.825 136.629 474.243 134.782 477.563 131.826C479.408 130.164 479.039 128.502 478.486 126.101C476.272 118.159 486.049 122.038 487.524 117.42C491.767 119.452 497.67 116.497 500.991 121.668C500.991 121.668 500.991 122.038 501.175 124.254Z" fill="#FBFBFB"/>
<path d="M469.444 156.576C469.629 166.364 469.629 176.153 469.813 185.942C466.862 189.082 463.541 189.082 459.852 187.42C456.901 181.694 462.066 184.28 464.095 183.356C465.202 183.356 463.541 181.879 463.91 182.987C463.91 183.172 463.726 183.356 462.988 183.356C461.512 183.172 459.852 183.726 458.93 182.064C457.085 171.351 465.017 164.702 469.444 156.576Z" fill="#8C8B8C"/>
<path d="M458.933 182.248C461.515 182.433 464.282 182.618 467.787 182.802C464.836 185.942 460.777 183.356 458.748 186.127C458.01 187.05 457.272 187.789 456.166 188.159C451.001 188.713 445.282 191.114 441.777 184.649C441.777 183.911 441.962 183.356 441.962 182.618C447.68 182.433 453.399 182.248 458.933 182.248Z" fill="#F3F1F2"/>
<path d="M287.379 435.466C287.748 441.93 281.476 441.93 277.971 443.962C275.389 445.439 275.02 441.561 274.282 439.16C273.36 435.281 267.272 440.822 266.719 435.466C272.437 429.371 277.602 422.907 285.165 419.028C287.01 424.384 287.563 429.925 287.379 435.466Z" fill="#1D1813"/>
<path d="M197.543 333.514C199.757 333.883 201.417 336.469 204.184 335.546C207.504 350.137 205.844 365.651 211.562 379.688C208.611 379.134 205.659 378.764 202.708 378.21C202.524 363.065 197.912 348.474 197.543 333.514Z" fill="#D897AE"/>
<path d="M406.545 194.808C396.399 197.393 386.622 193.145 376.477 193.515C355.263 194.254 334.05 193.699 312.836 193.515C313.205 187.604 316.156 185.573 322.244 185.758C338.108 186.312 354.156 185.942 370.02 186.312C374.817 186.496 379.059 185.203 382.564 182.064C383.117 182.802 383.855 183.541 384.409 184.28C388.283 183.356 391.972 181.694 396.03 182.802C398.428 187.604 401.195 192.222 406.914 193.699C406.914 194.069 406.729 194.438 406.545 194.808Z" fill="#B2AEB1"/>
<path d="M398.06 184.649C393.633 184.465 389.021 184.28 384.594 184.28C391.419 179.663 398.798 176.338 407.283 175.23C405.992 178.37 404.885 181.51 403.594 184.465C401.749 185.942 400.089 186.127 398.06 184.649Z" fill="#FB9ABE"/>
<path d="M383.484 179.108C382.746 169.135 382.562 158.977 383.484 149.003C384.775 159.161 385.329 169.135 383.484 179.108Z" fill="#333132"/>
<path d="M280.001 186.127C278.894 186.127 277.603 186.127 276.496 186.127C278.71 166.364 270.778 154.913 255.098 155.283C246.613 155.467 244.768 155.098 240.156 152.328C238.127 156.022 242.001 161.008 237.574 164.148C235.176 162.301 232.593 160.454 230.195 158.607C230.195 142.908 230.195 127.209 230.195 111.51C230.195 105.046 230.749 100.243 239.788 100.059C248.089 99.8741 256.389 99.6894 264.506 99.5047C295.127 99.32 325.933 99.6894 356.555 99.32C364.118 99.32 366.885 101.721 366.7 109.478C366.331 124.623 366.516 139.584 366.516 154.729C366.516 158.053 366.331 161.378 364.118 164.333C361.535 167.842 361.166 171.905 363.195 175.045C350.098 182.802 335.71 180.586 321.506 181.14C314.865 181.509 310.991 179.847 308.04 173.198C305.273 166.919 307.671 163.779 312.098 160.27C314.681 158.238 318.923 155.467 313.021 152.143C311.729 151.404 310.622 149.927 308.962 150.665C307.302 151.404 307.302 153.251 307.855 154.729C311.176 163.04 304.166 157.499 302.322 158.977C301.768 157.13 301.03 155.283 300.477 153.436C300.108 150.85 299.555 148.264 299.923 145.679C299.923 144.386 300.292 143.093 300.846 141.8C301.768 139.768 303.797 138.845 304.904 136.998C307.671 132.38 306.195 129.425 301.03 128.317C298.079 127.763 294.943 127.948 291.991 129.241C289.224 130.349 286.089 132.011 285.351 134.966C284.244 139.214 289.04 137.737 290.7 139.584C291.807 140.692 292.545 141.985 292.729 143.462C292.729 144.386 292.729 145.124 292.36 146.048C291.991 146.971 291.438 148.08 290.7 148.264C281.846 149.372 282.584 154.729 285.166 160.824C283.506 169.135 281.661 177.631 280.001 186.127Z" fill="#323031"/>
<path d="M213.963 108.555C217.836 107.447 220.603 111.141 225.031 110.217C229.089 109.294 228.351 114.28 228.351 117.051C228.535 130.718 228.535 144.57 228.535 158.238C213.594 152.512 213.594 152.512 213.594 136.074C213.594 126.84 213.778 117.605 213.963 108.555Z" fill="#302E2F"/>
<path d="M155.301 194.623C151.981 194.992 148.107 197.578 145.709 193.699C145.34 193.145 146.262 191.114 147 190.744C151.059 188.528 152.35 193.145 155.301 194.623Z" fill="#060606"/>
<path d="M441.777 184.465C446.573 187.604 452.107 185.019 457.272 186.312C459.301 188.713 458.932 191.114 457.088 193.515C449.709 193.515 442.146 193.33 434.767 193.33C433.476 187.42 437.719 185.942 441.777 184.465Z" fill="#B1ADB0"/>
<path d="M457.087 193.515C456.349 191.114 456.534 188.713 457.271 186.312C457.825 186.312 458.194 186.127 458.747 185.942C462.436 185.942 466.126 185.758 469.815 185.758C469.815 188.343 469.815 190.929 469.815 193.33C465.572 194.254 461.33 194.254 457.087 193.515Z" fill="#060606"/>
<path d="M392.521 54.9931C389.016 57.9482 385.88 60.7186 382.559 63.4891C380.346 53.1461 381.268 52.2226 392.521 54.9931Z" fill="#BB6283"/>
<path d="M409.123 31.3521C409.861 28.3969 406.356 22.4867 414.104 24.1489C412.813 26.7347 417.424 33.3837 409.123 31.3521Z" fill="#543541"/>
<path d="M379.242 322.617C379.427 315.968 379.611 309.319 379.796 302.67C381.456 305.625 383.3 308.765 384.961 311.72C386.805 317.261 388.65 322.617 390.495 328.158C386.252 327.419 379.796 331.298 379.242 322.617Z" fill="#FCD4D9"/>
<path d="M350.095 391.324C349.726 389.107 352.124 383.382 346.221 388.369C344.192 390.216 342.716 393.54 338.289 392.617C340.134 386.152 345.852 383.751 350.095 380.057C354.891 380.057 353.046 389.107 359.503 387.26C360.241 387.076 360.425 390.031 359.318 390.031C353.231 390.031 357.842 396.495 353.969 397.973C350.648 396.865 351.94 393.171 350.095 391.324Z" fill="#2B1E22"/>
<path d="M481.994 173.014C478.304 172.644 475.906 170.797 475.906 167.288C475.906 164.148 477.751 162.116 480.887 162.116C484.576 161.932 486.605 163.779 486.605 167.473C486.79 170.797 484.761 172.275 481.994 173.014Z" fill="#ACA9AB"/>
<path d="M406.544 27.2888C405.99 31.1674 403.039 31.1674 400.272 31.1674C397.69 31.1674 396.214 30.0592 396.398 27.2888C396.767 23.0408 399.903 23.9642 402.486 23.7796C405.068 23.5949 406.913 24.3336 406.544 27.2888Z" fill="#FC88B3"/>
<path d="M386.992 27.4735C386.992 31.1674 384.409 30.9827 381.827 30.9827C379.244 30.9827 377.769 30.0592 377.953 27.2888C377.953 23.5948 380.535 23.7795 383.118 23.7795C385.516 23.7795 386.992 24.703 386.992 27.4735Z" fill="#FC7FAD"/>
<path d="M254.543 175.045C257.126 175.415 261.184 173.937 261.738 177.446C262.291 181.51 258.048 180.401 255.65 180.401C253.068 180.401 249.01 181.51 248.641 178.185C247.903 174.122 252.33 175.599 254.543 175.045Z" fill="#E7E6E7"/>
<path d="M272.066 178.37C272.066 182.618 270.406 184.28 266.901 183.911C266.348 183.911 265.425 182.433 265.61 182.064C266.717 179.478 269.115 178.924 272.066 178.37Z" fill="#F0EFEF"/>
<path d="M285.35 160.454C284.613 159.9 283.875 159.346 283.321 158.792C280.923 156.022 278.156 152.512 279.263 149.188C280.37 145.309 284.981 148.08 287.933 147.341C289.409 146.971 290.884 146.971 291.622 145.309C294.943 145.863 298.447 145.863 301.768 145.309C301.399 147.895 304.35 151.035 300.477 152.882C293.282 151.219 290.515 158.607 285.35 160.454Z" fill="#AFACAE"/>
<path d="M398.055 184.649C399.899 184.649 401.744 184.465 403.404 184.465C406.725 186.681 407.647 189.821 406.909 193.699C405.433 193.884 403.773 194.069 402.482 193.884C399.715 193.515 395.841 195.731 394.365 192.222C392.89 189.082 396.579 187.05 398.055 184.649Z" fill="#0C080A"/>
<path d="M291.438 143.832C290.7 139.03 287.011 140.507 284.244 140.507C279.079 140.692 279.448 138.475 281.292 134.782C285.351 127.024 296.972 122.776 305.273 125.731C307.671 126.655 309.516 127.394 309.516 130.718C309.516 136.444 307.487 140.322 301.768 141.8C298.079 141.8 294.758 143.093 291.438 143.832Z" fill="#B1AEB0"/>
<path d="M291.438 143.832C294.02 138.291 297.156 136.629 301.768 141.985C301.768 143.093 301.768 144.386 301.768 145.494C298.447 150.665 294.942 150.665 291.622 145.494C291.253 144.94 291.253 144.386 291.438 143.832Z" fill="#EDEDED"/>
</svg>
