<svg width="300" height="386" viewBox="0 0 300 386" fill="none" xmlns="http://www.w3.org/2000/svg">
<g clip-path="url(#clip0_58:2400)">
<path d="M22.9984 123.9C36.3984 121.3 49.2984 122.4 61.0984 129.9C63.3984 135.9 65.2984 142 67.0984 148.1C67.6984 150.1 65.6984 150.5 65.4984 152C67.1984 153.1 69.0984 151.6 70.7984 152.3C73.8984 153.5 70.4984 155.4 71.2984 156.9C73.3984 156.7 75.1984 155 74.8984 153.5C73.5984 148.7 77.0984 145.9 78.6984 142.4C80.1984 139.3 81.6984 136 85.9984 139.2C86.8984 139.8 88.2984 139.7 88.6984 138.8C89.8984 136 94.2984 135 93.2984 130.8C92.8984 129.3 94.4984 128.7 95.6984 128.1C96.9984 127.5 99.0984 127.1 97.8984 124.8C99.1984 123.8 100.598 124 101.998 124.2C103.298 125.4 102.798 126.8 102.198 128.5C104.098 126.1 106.398 124.9 108.898 124.1C135.298 123.6 157.098 142.8 160.098 169.1C161.598 182.1 161.898 195 156.798 207.5C156.298 208.7 155.598 209.8 154.998 211C151.998 212.2 148.898 213.3 147.198 216.5C146.398 218 144.898 218.1 143.298 218C140.698 217.4 138.098 216.5 135.598 215.4C132.498 210.8 130.598 205.6 129.298 200.2C129.798 198.9 131.098 198.4 131.998 197.4C133.898 195.1 134.498 192.8 131.998 190.5C130.498 189.1 128.998 187.1 129.498 185.3C131.298 178.9 126.098 178.7 122.598 177.4C120.598 176.7 119.598 175.7 118.998 173.9C118.198 171.6 118.198 169.1 116.898 166.7C111.698 169.8 107.898 174.1 103.198 177.3C96.6984 175.2 90.2984 172.9 83.3984 172.4C75.2984 171.9 67.3984 172.9 59.7984 175.7C56.1984 177 53.1984 177.2 49.9984 174.6C47.3984 172.5 43.8984 172 40.8984 170.7C39.0984 169.9 37.6984 170.5 36.7984 172.3C32.8984 180 29.7984 187.8 31.2984 196.7C31.1984 198.3 30.4984 199.6 29.7984 200.9C12.2984 230.9 26.0984 271.1 60.6984 283.2C63.4984 284.2 66.6984 283.7 68.9984 286.1C68.6984 286.6 68.7984 289.7 69.1984 290.7C69.5984 291.8 69.9984 293.1 69.3984 294C67.5984 296.6 67.7984 299.9 66.4984 302.6C59.3984 307 51.1984 308.6 43.5984 311.6C42.2984 312.1 40.9984 312 39.6984 311.6C35.0984 309.4 30.2984 310.4 25.5984 310.9H25.1984L24.8984 310.7C22.6984 308.1 18.4984 309.4 16.5984 306.3C16.4984 305.5 16.8984 304.3 15.9984 304.1C8.49844 302.1 9.29844 294.2 5.49844 289.5C7.79844 284.5 6.89844 280.3 2.49844 276.8C1.79844 276.2 2.59844 274.5 3.39844 273.7C6.89844 270.2 5.19844 268.4 1.49844 267C0.898438 266.8 0.398438 266.3 -0.101562 265.9C-0.101562 227.2 -0.101562 188.6 -0.101562 149.9C1.59844 148.7 3.99844 148.5 5.39844 146.8C5.89844 146.2 7.09844 145.9 6.69844 145C4.39844 140.4 8.19844 139.8 10.7984 139.4C13.1984 139 14.0984 137.5 15.0984 135.9C17.2984 132.4 21.5984 131.5 24.1984 128C27.3984 124.3 23.4984 125.2 22.9984 123.9Z" fill="#FB9033"/>
<path d="M23 123.9C26.2 124.1 28.3 123.4 25.7 128.5C23.9 131.9 21.6 132.4 19.3 133.8C18.3 134.4 17.3 134.4 18.8 135.5C19 135.7 19.1 136 19.3 136.3C14.9 134.3 16.7 142.1 12.1 140.8C8.6 139.8 7.9 141.2 9.2 144.6C9.3 145 9.2 145.8 9 145.9C5.9 147.2 4.6 152.1 0 150.1C0 144.1 0 138.1 0 132.1C7.5 128.6 14.7 124.8 23 123.9Z" fill="#D06E17"/>
<path d="M0.0976562 266C2.49766 265.9 4.29766 266.2 6.19766 268.2C8.29766 270.4 8.29766 271.4 5.89766 273.1C3.79766 274.6 1.99766 276 5.89766 278.5C7.19766 279.3 12.1977 283.4 7.29766 287C5.89766 288 6.69766 289.1 7.19766 290C9.19766 293.5 11.2977 296.9 12.5977 300.8C13.1977 302.7 14.3977 302.7 16.0977 302.2C17.4977 301.8 18.0977 303 18.5977 304.1C19.1977 305.5 18.0977 305.8 17.0977 306C9.89766 305.8 4.39766 302.4 0.0976562 296.9C0.0976562 286.7 0.0976562 276.3 0.0976562 266Z" fill="#D06E17"/>
<path d="M0.0976562 297C5.39766 300.7 10.8977 304.1 17.0977 306.1C18.6977 307.5 20.7977 307.4 22.5977 307.9C24.3977 308.3 25.1977 309.1 25.0977 310.9C16.7977 311 8.39766 311 0.0976562 311.1C0.0976562 306.3 0.0976562 301.7 0.0976562 297Z" fill="#FBB134"/>
<path d="M192.898 117C190.298 116 188.298 113.5 185.098 114.1C184.098 114.3 183.098 114.9 182.098 114.2C179.898 114 177.798 114.4 175.698 115C168.098 117.4 161.298 115.4 154.998 111.1C148.098 106.4 147.198 97.9 152.898 91.7C153.398 91.2 153.798 90.6 154.298 90.3C158.398 87.7 158.198 85.6 154.598 82C147.598 74.9 146.498 65.6 148.598 56.4C150.598 47.5 158.798 43.3 168.598 45.3C172.798 46.2 177.098 47.4 180.498 50.3C182.698 52.2 183.298 51.9 184.598 49.3C191.598 35.1 209.398 29.2 220.598 37.7C233.198 47.3 238.898 61 228.098 76.3C225.198 80.4 224.598 83.2 227.098 87.9C234.098 100.9 222.198 116.2 212.598 120.1C211.698 120.5 211.098 120.5 210.398 120C208.498 118.6 210.698 117.4 210.798 115.8C207.098 116.9 204.098 116.2 201.498 113.3C201.098 114.2 200.498 115.2 199.998 116.2C197.798 117 195.498 118.3 192.898 117Z" fill="#FEFEFE"/>
<path d="M209.797 130.3C201.397 136.5 194.997 144.4 188.997 152.7C188.097 153.9 187.797 155.5 186.197 156C185.497 156.5 184.897 156.6 184.297 155.9C200.197 131.9 221.097 113.9 248.597 104.4C262.797 99.5 276.697 100.4 288.397 111C299.497 121 303.397 136.9 298.397 150.3C293.597 163.2 281.497 171.2 265.897 171.8C252.097 172.4 241.097 166.5 231.397 157.4C226.997 153.3 222.997 148.9 219.297 144.1C218.097 142.5 216.697 141.1 214.997 140.2C214.097 136.5 212.397 133.1 209.797 130.3Z" fill="#639982"/>
<path d="M143.199 364.9C134.699 353.5 132.799 340.5 134.199 326.7C134.499 323.5 136.199 322.8 139.199 322.8C150.099 322.9 161.099 322.7 171.999 322.7C172.799 322.3 173.499 322.3 174.299 322.7C175.299 322.8 176.299 322.8 177.299 322.9C181.099 323.5 182.899 322.2 182.099 318.1C181.899 316.9 181.799 315.4 182.799 314.3C184.499 315.1 184.299 316.8 184.399 318.2C184.599 320.9 186.099 321.5 188.399 321.2C189.199 322.9 190.399 323.2 191.899 322.2C194.499 321.4 196.999 321.5 199.599 322.2C202.499 323.6 202.999 326.9 204.799 329.1C205.599 329.8 206.399 331.2 207.599 330.3C209.299 329.1 207.299 328.2 206.899 327.1C206.599 325.6 208.499 325 208.299 323.6C211.099 322.2 212.999 323.8 214.699 325.7C215.799 326.9 216.599 329 218.399 328.5C220.499 327.9 219.299 325.7 219.599 324.2C219.699 323.7 219.899 323.3 220.299 323C221.399 323 222.599 323.2 223.699 323C228.699 322 230.099 324.7 229.899 329C227.799 333.1 224.499 336.4 223.099 341C222.199 344 219.699 347.1 214.899 344.3C216.299 348 215.999 350.3 211.699 349.6C210.099 349.3 209.399 350.5 208.899 351.9C206.899 357.1 203.899 359.1 198.799 358.8C197.999 358.7 197.499 358.2 196.699 359.1C190.799 366.7 182.299 367.9 173.499 368.1C171.999 368.1 170.699 367.9 169.099 368.2C160.199 370.2 151.599 368.5 143.199 364.9Z" fill="#CC4D7C"/>
<path d="M160.797 248.3C158.397 274.9 142.397 291.1 119.297 301.7C117.797 302.4 116.097 302.6 114.997 304C111.297 306.6 106.797 306.8 102.797 308.4C100.897 307.6 98.8969 307.9 96.8969 307.5C93.0969 305.4 95.6969 303.9 97.4969 302.5C99.2969 301.2 101.697 300.4 100.897 297.3C100.397 298.5 99.7969 299.4 98.9969 300.2C97.5969 301.8 95.9969 301.1 94.4969 300.3C92.8969 299.4 92.5969 298.2 93.8969 296.7C95.0969 295.3 95.0969 293.9 93.2969 293.1C90.3969 291.7 90.2969 289 89.7969 286.4C90.3969 284.9 91.7969 284.8 93.0969 284.5C110.697 279.8 123.597 269.4 131.197 252.7C132.097 250.8 132.397 248.4 134.697 247.5C136.997 247.3 138.197 249.1 139.797 250.1C146.197 254.5 149.997 254.4 156.397 250C157.797 249.1 158.897 247.5 160.797 248.3Z" fill="#FB9033"/>
<path d="M143.199 364.9C148.799 365.7 154.299 366.6 159.899 367.5C163.399 368.1 166.499 367.7 169.999 366.7C173.199 365.8 177.099 366.9 180.799 366.3C185.299 365.5 188.999 363.1 193.299 362C196.399 361.2 195.399 358.1 195.599 355.8C197.799 355.6 198.599 357.6 200.199 358.4C201.699 357.2 199.399 356.6 199.999 355.3C204.299 357.5 207.299 357.4 207.399 351.2C207.399 349.8 208.999 346.6 212.199 348.3C212.999 348.7 214.099 349.5 214.699 348.1C215.199 347.1 214.699 346.1 213.799 345.5C211.799 344.3 213.599 343.7 214.199 343C214.899 342 215.999 341.8 216.599 342.8C217.299 344 217.799 345.6 219.299 344C220.899 342.2 224.099 339.4 222.999 338.2C218.299 332.7 225.099 335.7 225.599 334.2C225.999 332.8 223.799 332.2 224.599 330.2C226.999 332.5 228.199 329.9 229.799 328.9C232.699 352.7 219.799 372 203.299 380.4C181.999 391.1 157.099 384.8 143.199 364.9Z" fill="#FC7FAD"/>
<path d="M40.1992 311C47.0992 309 54.0992 307.3 60.6992 304.3C62.7992 303.3 64.6992 301.9 67.1992 302C67.9992 301.2 68.9992 301.3 69.9992 301.6C73.9992 302.7 77.8992 303.8 82.0992 303.9C84.0992 303.9 86.2992 304.9 87.1992 307.2C87.4992 308.6 87.3992 309.9 86.2992 310.9C77.2992 310.9 68.2992 311 59.2992 310.8C55.9992 310.7 54.9992 311.8 55.0992 315.1C55.2992 327.1 55.2992 339.1 55.0992 351.1C54.9992 358 51.1992 363.1 45.0992 365.2C39.5992 367.1 33.5992 365.5 29.6992 361C27.5992 358.6 26.1992 355.7 26.1992 352.4C26.1992 343.2 26.2992 334.1 26.2992 324.9C30.4992 320 35.6992 315.8 40.1992 311Z" fill="#FBB133"/>
<path d="M102.199 308C105.999 305.1 110.399 304.4 114.999 304C115.099 319.6 115.199 335.3 115.099 350.9C115.099 359.5 109.199 365.9 101.199 366C92.8989 366.2 86.4989 360 86.1989 351.3C85.9989 343 86.1989 334.7 86.2989 326.4C87.8989 321.1 92.3989 317.6 94.5989 312.5C95.4989 310.4 98.7989 308 102.199 308Z" fill="#FBB133"/>
<path d="M160.799 248.3C160.499 248.4 160.199 248.6 159.899 248.8C148.799 257.1 145.699 257 134.999 248C131.299 246.6 130.499 242.9 128.999 239.9C126.399 234.5 126.099 228.7 126.899 222.9C127.599 217.5 131.399 214.4 135.999 214.8C138.799 214.8 141.199 216.3 143.799 217.1C151.899 220.2 155.899 227 159.099 234.5C161.699 239 164.299 243.6 167.499 249.1C167.999 238.6 168.299 229.3 168.999 220C169.999 206.3 170.899 192.6 172.899 179.1C174.799 181.2 172.499 184.1 174.099 186.2C172.999 199.9 171.999 213.5 170.699 227.2C169.799 236.8 169.899 246.4 170.099 256C168.899 258.1 169.899 260.5 169.299 262.7C170.199 260.6 168.899 258.2 170.199 256.1C173.099 253.4 175.099 249.8 178.899 248.1C181.599 246.9 184.399 245.9 186.899 247.8C189.799 250 189.899 253.5 188.699 256.5C185.299 264.8 180.499 272.1 171.999 276.1C171.399 276.4 170.899 276.8 170.299 277.1C168.699 276.2 169.099 274.6 169.299 273.3C169.599 271.6 169.699 270.1 167.999 269.2C166.599 265.6 166.799 261.6 167.399 258.1C168.099 253.8 165.899 250.9 164.099 247.7C162.399 244.7 161.599 247 160.799 248.3Z" fill="#639982"/>
<path d="M98.0006 124.9C98.8006 125.1 99.6006 125.2 100.401 125.4C99.3006 126.8 98.6006 128.7 97.2006 129.6C94.1006 131.7 94.0006 131.5 96.3006 134.6C94.2006 135.4 91.8006 135.1 91.2006 138.7C90.6006 142 85.9006 141.8 83.3006 138.5C81.7006 140.3 78.9006 141.2 80.1006 144.5C73.7006 146.7 79.2006 154.1 74.6006 157C73.1006 157.9 71.9006 161.2 69.5006 158.3C67.3006 155.6 70.9006 155.3 71.6006 153.7C69.2006 152 66.8006 155.9 64.0006 153.3C62.1006 151.5 62.5006 151.2 64.1006 150.2C64.9006 149.7 66.8006 150.6 66.3006 148.5C65.8006 146.4 64.1006 148.1 62.7006 147.3C66.0006 144.8 65.5006 141.6 63.4006 139.1C61.0006 136.2 60.8006 133.3 61.3006 130C64.7006 132.3 68.1006 136.2 71.6006 136.3C74.8006 136.4 77.9006 132.1 81.3006 130.2C86.4006 127.3 91.9006 125.2 98.0006 124.9Z" fill="#D06E17"/>
<path d="M208.299 324.1C209.499 325.5 208.299 326 207.399 326.7C206.899 328.6 205.799 329.7 203.899 329.9C201.999 328 201.399 325.4 200.099 323.1C199.099 321.1 198.299 319 197.999 316.7C195.299 316 194.099 314.8 195.899 311.9C197.199 309.7 198.099 307.3 199.099 304.9C202.199 304.5 203.299 302.5 204.099 299.6C205.099 296 204.899 291.9 207.899 289.1C213.199 288.1 216.899 291.6 220.999 293.8C221.299 294.9 221.299 296 220.999 297.1C223.899 300.4 219.899 302 218.699 302.2C213.299 303 212.999 306.1 214.199 310.2C214.999 316.7 211.499 320.8 206.499 319C206.699 321 208.499 322.2 208.299 324.1Z" fill="#FDFDFD"/>
<path d="M176.099 156.2C174.799 153.3 173.799 150.9 169.399 150.6C162.599 150.1 159.699 146.3 159.799 141.3C159.899 138.9 160.599 137 162.999 136.2C165.399 135.4 167.299 136.4 168.599 138.3C169.999 140.4 171.199 142.6 172.399 144.7C173.499 146.7 174.599 148.6 176.099 151.3C177.499 143 178.699 135.6 179.999 128.1C180.999 127.4 181.399 128.3 181.799 128.9C180.199 139.6 178.699 150.3 177.099 161C175.299 159.8 176.599 157.8 176.099 156.2Z" fill="#659581"/>
<path d="M208.298 324.1C207.598 323.4 206.698 322.7 206.398 321.9C205.798 320.1 202.698 318 205.498 316.5C207.898 315.1 207.898 319 209.698 320C211.598 317 213.198 313.8 214.298 310.3C217.398 310.6 216.398 313.5 217.198 315.1C218.398 317.6 219.298 320.2 220.298 322.8C220.398 323.3 220.598 323.7 220.698 324.2C221.098 326.4 222.498 329.1 219.698 330.4C216.998 331.6 215.498 329.1 214.298 327.2C212.798 325 211.298 323.2 208.298 324.1Z" fill="#1B1A1B"/>
<path d="M102.198 308C95.9977 311.1 93.7977 317.8 89.6977 322.7C88.5977 323.9 88.0977 325.6 86.3977 326.3C86.2977 321.2 86.1977 316.1 86.0977 310.9C86.1977 309.6 86.1977 308.4 86.2977 307.1C89.7977 304 93.3977 305.6 96.9977 306.9C98.6977 307.5 101.098 304.4 102.198 308Z" fill="#201D18"/>
<path d="M40.1984 311C37.9984 318.1 31.5984 321.1 26.1984 325C26.0984 320.3 25.9984 315.7 25.8984 311C25.9984 310.5 26.0984 309.7 26.2984 309.7C30.9984 309.2 35.7984 308 40.1984 311Z" fill="#1C1915"/>
<path d="M159.097 234.5C154.597 228.2 150.197 221.7 143.797 217.1C145.197 217 146.097 216.7 146.997 215.1C148.597 212.1 151.297 209.9 155.297 211.1C153.797 213.7 153.797 216 155.097 218.9C157.297 223.8 158.797 229 159.097 234.5Z" fill="#D87620"/>
<path d="M176.098 156.2C177.898 157.5 176.498 159.5 177.198 161C176.898 163.7 176.598 166.5 176.098 170.1C178.998 164.9 181.598 160.4 184.098 155.9C184.698 155.9 185.398 156 185.998 156C182.398 163.8 177.998 171.2 175.098 179.5C174.298 181.8 174.198 183.9 173.898 186.2C171.098 184.2 173.498 181.4 172.698 179.1C173.898 171.4 174.198 163.7 176.098 156.2Z" fill="#242323"/>
<path d="M174.298 322.7C173.498 322.7 172.798 322.7 171.998 322.7C170.798 311.1 169.698 299.4 168.498 287.8C168.398 286.3 168.098 284.9 168.798 283.4C169.098 282.9 169.498 282.5 170.098 283C171.898 288.2 170.798 293.8 171.598 299.1C172.798 306.9 173.398 314.8 174.298 322.7Z" fill="#679984"/>
<path d="M199.2 304.1C194.8 298.8 197.9 291.7 205.2 290.2C206.7 295 204.2 299 202.9 303.3C202.4 304.9 200.7 305 199.2 304.1Z" fill="#F9F8F8"/>
<path d="M188.398 321.2C187.498 323.3 185.698 322.9 184.198 322.5C182.498 322.1 182.898 320.4 182.798 319.2C182.698 317.6 182.798 315.9 182.798 314.2C182.898 313.9 182.898 313.5 182.998 313.2C183.498 311.7 183.498 309.4 185.398 309.4C187.498 309.4 187.198 311.8 187.498 313.3C187.998 315.9 188.098 318.6 188.398 321.2Z" fill="#232021"/>
<path d="M192.898 117C194.098 115.9 196.298 118.2 197.298 115.3C198.098 113 198.998 116.1 199.998 116.2C201.298 117.9 202.998 116.2 204.598 116.7C206.998 117.5 206.398 119.3 206.498 120.6C206.698 122.7 204.798 122.2 203.598 122C199.598 121.5 196.198 119.2 192.898 117Z" fill="#E3AFD5"/>
<path d="M197.998 316.8C200.398 318.4 200.798 320.6 200.098 323.2C197.398 322.4 194.498 323.8 191.898 322.2C192.998 319.2 193.398 315.6 197.998 316.8Z" fill="#1F1C1D"/>
<path d="M199.199 304.1C200.899 303.9 202.299 303.4 202.699 301.3C203.399 297.6 204.399 293.9 205.299 290.2C205.999 289.3 206.699 288.4 207.999 289.2C206.899 293.6 205.899 298.1 204.799 302.5C203.999 305.5 202.499 307.3 199.199 305C199.199 304.7 199.199 304.4 199.199 304.1Z" fill="#292828"/>
<path d="M181.898 128.9C181.298 128.6 180.698 128.4 180.098 128.1C180.798 123.4 181.498 118.8 182.198 114.1C183.198 113.4 184.198 112.7 185.198 114C184.098 119 182.998 123.9 181.898 128.9Z" fill="#3C3938"/>
<path d="M170.098 283C169.698 283.1 169.198 283.3 168.798 283.4C167.298 278.7 167.998 273.9 167.898 269.1C170.798 268.5 171.098 270.4 170.698 272.4C170.298 274 169.998 275.5 170.198 277.1C170.198 279 170.198 281 170.098 283Z" fill="#313F39"/>
<path d="M108.998 124.2C106.498 126.3 103.998 128.4 101.498 130.5C100.998 130.9 100.298 131 99.6982 130.5C99.0982 129.9 99.2982 129.2 99.8982 128.8C101.598 127.7 102.198 126.2 101.998 124.3C104.398 124.3 106.698 124.3 108.998 124.2Z" fill="#D06E17"/>
<path d="M209.797 130.3C210.197 130 210.597 129.7 210.897 129.4C213.097 132.6 215.097 135.9 216.197 139.6C216.197 139.7 215.397 140 214.897 140.2C212.397 137.3 210.797 134 209.797 130.3Z" fill="#51655B"/>
<path d="M221.101 297.2C220.401 296.1 219.601 295 221.101 293.9C222.401 294.1 224.301 293.7 224.101 295.8C223.901 297.6 222.301 297.2 221.101 297.2Z" fill="#383536"/>
<path d="M135.998 214.8C130.598 215.9 128.498 219.7 127.998 224.8C127.098 233.5 130.298 241.1 135.098 248.1C131.598 254.5 128.998 261.2 124.098 266.9C115.298 277.1 104.598 283.7 91.3983 286.2C90.8983 286.3 90.5983 286.7 90.0983 287C89.4983 288.2 88.7983 289.2 88.3983 290.5C87.9983 292 86.6983 292.9 85.3983 291.7C81.9983 288.6 77.5983 289.6 73.6983 288.6C72.1983 288.2 70.2983 288.5 69.1983 287C56.1983 284.4 45.2983 278.2 35.9983 268.5C19.7983 251.7 16.2983 220.8 28.5983 201C29.5983 199.5 30.2983 197.8 31.1983 196.2C36.6983 189.4 34.5983 180.9 36.0983 173.2C36.3983 167.7 36.6983 167.3 41.7983 169.6C45.7983 171.5 50.4983 171.7 53.5983 175.6C54.8983 177.2 56.9983 175.6 58.6983 175C74.1983 169.3 89.4983 169.6 104.398 177.1C108.198 175.9 110.498 178.9 113.298 180.5C114.998 181.5 116.498 182.9 117.998 184.2C121.998 187.4 125.498 191.1 128.398 195.3C129.398 196.8 130.798 198.1 130.298 200.1C132.198 204.8 134.698 209.6 135.998 214.8Z" fill="#FBB133"/>
<path d="M69.0988 286.9C73.4988 287.2 77.8988 288 82.2988 287.8C85.2988 287.7 84.6988 291 87.4988 291.6C86.2988 288.7 86.2988 286.4 90.0988 286.9C91.7988 289.3 92.6988 292.2 96.2988 293.1C97.7988 293.5 96.1988 296 95.5988 297.4C95.3988 298 92.3988 298 94.9988 299.3C95.8988 299.8 97.0988 301.4 98.1988 299.2C98.9988 297.6 100.099 296.2 101.099 294.8C103.299 300 103.199 299.9 98.4988 303.2C97.5988 303.8 94.3988 304.5 97.0988 306.9C93.4988 307 89.8988 307 86.3988 307.1C80.2988 304.1 73.1988 305 67.1988 301.9C65.7988 299.7 65.8988 297.5 67.4988 295.5C69.3988 293.2 69.8988 291.3 66.6988 289.6C65.2988 289 65.3988 288.7 69.0988 286.9Z" fill="#D16F18"/>
<path d="M130.098 199.9C126.398 194.4 122.398 189.1 117.098 185C118.898 183 119.498 181.2 119.198 178C119.098 176.5 118.798 175 120.198 174C122.398 177.1 126.298 177 129.198 178.9C130.698 179.8 133.098 179.3 130.798 182.4C129.398 184.3 130.398 188.5 132.798 189.4C136.098 190.7 135.598 193.2 135.098 194.9C134.498 197.1 133.698 200.2 130.098 199.9Z" fill="#D37119"/>
<path d="M120.196 174C120.296 175.3 120.196 176.6 120.496 177.8C121.396 181.2 120.996 183.9 117.096 185C113.296 181.6 109.196 178.6 104.196 176.9C104.096 176.3 103.596 175.7 104.296 175.1C108.896 171.4 113.496 167.8 118.496 163.7C119.196 167.6 119.696 170.8 120.196 174Z" fill="#070401"/>
<path d="M36.0977 173.1C36.1977 175.7 36.0977 178.3 36.8977 180.9C38.7977 187.3 35.4977 191.9 31.1977 196.1C28.3977 194.8 29.3977 191.1 29.6977 190.4C31.1977 186.9 30.4977 183.1 31.9977 179.8C32.8977 177.8 35.2977 176.5 33.6977 173.3C32.9977 171.8 35.1977 172.9 36.0977 173.1Z" fill="#D6731B"/>
<path d="M198.1 70C203.7 74.6 205 81.6 201 86.5C196.5 92.1 189.9 92.8 184 88.1C184.6 86.9 184.9 85.9 184.6 84.4C183.6 79.8 186.4 76.8 191.1 77.2C192.2 77.3 193 77.3 193.7 76.4C194.7 75.1 193.5 74.8 192.8 74.1C191.2 72.5 192 71.5 193.8 71C195.2 70.6 196.7 70.6 198.1 70Z" fill="#FAD2D9"/>
<path d="M198.098 70C196.298 71.9 196.298 71.9 192.898 72.4C193.198 75 195.598 73.1 197.098 74.3C194.698 75.7 194.898 81.9 189.698 77.6C189.498 77.4 186.798 78.9 186.198 80.6C185.698 81.7 184.198 82.5 186.098 84.2C188.598 86.5 186.998 87.9 184.098 88.1C179.598 83.8 178.598 77.5 181.698 73.1C185.298 67.6 191.198 66.5 198.098 70Z" fill="#DD9CCB"/>
<path d="M280.697 133.9C261.897 124.6 242.297 124.2 221.297 128.1C229.697 120.4 269.997 122.5 280.697 133.9Z" fill="#EFF4F2"/>
<path d="M203.898 329.9C204.698 328.4 205.798 327.3 207.398 326.7C209.098 326.7 210.298 327.3 210.198 329.3C210.198 330.5 209.998 331.7 208.698 332.1C206.498 332.8 204.898 332 203.898 329.9Z" fill="#1A191A"/>
<path d="M150.898 240.6C147.398 238.4 145.998 234.4 143.398 231.4C141.498 229.1 139.798 226.7 138.098 224.2C137.798 223.7 137.498 222.9 137.598 222.5C137.898 221.8 138.898 221.7 139.298 222.2C143.598 228 147.898 233.8 152.198 239.6C151.798 240 151.398 240.3 150.898 240.6Z" fill="#EDF3F0"/>
<path d="M170.099 256C171.499 259.7 171.799 263.2 168.399 266.1C169.099 262.7 165.299 258.7 170.099 256C170.099 255.9 170.099 256 170.099 256Z" fill="#34433C"/>
<path d="M213.797 294.4C213.497 296.2 212.697 297.4 210.997 297.4C208.997 297.4 207.897 296.3 208.097 294.4C208.197 292.7 209.297 291.8 210.997 291.8C212.697 291.8 213.397 293.1 213.797 294.4Z" fill="#2E2E2E"/>
<path d="M78.0009 231.1C80.7009 229.4 83.4009 227.7 86.1009 226C88.9009 227.4 93.2009 227.2 93.1009 231.8C92.9009 238 95.3009 245.2 87.6009 248.5C91.5009 247 93.2009 243.7 93.1009 239.3C93.1009 237 93.1009 234.7 93.1009 232.3C93.2009 228.5 94.8009 226.7 98.8009 227.8C108.501 232.8 107.801 244.8 100.801 250.5C95.5009 254.8 88.0009 255.6 83.3009 252.4C77.4009 248.5 75.3009 242.6 77.1009 235C77.4009 233.9 77.7009 232.8 78.0009 231.6C78.0009 231.5 78.0009 231.3 78.0009 231.1Z" fill="#FB9133"/>
<path d="M72.0958 226C67.0958 226 62.3958 221.5 62.2958 216.7C62.0958 211.3 66.3958 207 72.0958 207C77.7958 207 82.0958 211.1 82.0958 216.5C82.0958 221.8 77.6958 226 72.0958 226Z" fill="#FA9133"/>
<path d="M98.7984 227.9C94.9984 228.3 93.6984 230.1 94.2984 234.1C94.7984 237.5 94.6984 241.1 93.2984 244.4C91.2984 249.2 87.1984 251 82.3984 249.2C82.6984 247.8 83.8984 248.2 84.7984 248C89.2984 247.5 91.4984 244.7 91.9984 240.4C92.1984 238.6 92.1984 236.8 92.1984 234.9C92.1984 231.7 92.9984 228 87.6984 228.2C86.6984 228.2 86.1984 227 86.0984 226C89.5984 223.5 93.4984 224.9 97.1984 224.9C98.8984 224.9 99.0984 226.4 98.7984 227.9Z" fill="#0F0903"/>
<path d="M77.9992 231.1C77.8992 231.3 77.8992 231.5 77.9992 231.8C66.0992 233 54.2992 232.1 42.4992 232.3C42.2992 230.5 42.9992 230.2 43.8992 230.2C54.4992 230.2 65.1992 230.2 75.7992 230.2C76.4992 230.1 77.1992 230.7 77.9992 231.1Z" fill="#FDF7EB"/>
<path d="M73.5969 241.8C69.2969 241.8 64.9969 241.8 60.7969 241.8C64.9969 239.5 69.2969 240 73.5969 240.3C73.5969 240.8 73.5969 241.3 73.5969 241.8Z" fill="#FDF3E2"/>
<path d="M72.8984 219.9C70.4984 219.6 68.9984 218.5 68.8984 216.1C68.8984 213.7 70.1984 212.3 72.4984 212.2C74.7984 212.2 76.1984 213.5 76.2984 215.9C76.3984 218.4 74.7984 219.4 72.8984 219.9Z" fill="#080402"/>
</g>
<defs>
<clipPath id="clip0_58:2400">
<rect width="300" height="386" fill="white"/>
</clipPath>
</defs>
</svg>
