<svg width="503" height="468" viewBox="0 0 503 468" fill="none" xmlns="http://www.w3.org/2000/svg">
<g clip-path="url(#clip0_58:2515)">
<path d="M33.5452 232.531L32.1666 234.829L31.707 236.667L32.1666 238.046L78.1213 458.629L79.5 463.684L80.8786 465.522L83.1764 466.441L85.0146 465.981L205.416 440.706L345.119 411.755L493.552 380.506L496.31 380.046L498.607 379.127L499.986 377.748L500.446 375.45L454.95 158.084L453.572 149.813L452.653 147.974L451.734 146.596L449.436 145.677L447.138 146.136L263.319 273.89L261.021 274.35L41.8171 232.991L35.3834 231.612L33.5452 232.531Z" fill="white"/>
<path d="M449.471 145.965C449.319 145.997 449.162 145.981 449.019 145.921L214.002 45.8703C213.287 45.5678 212.497 45.4915 211.738 45.6515C210.978 45.8115 210.286 46.2002 209.754 46.7653L35.9254 232.22C35.7879 232.367 35.5978 232.453 35.3968 232.459C35.1959 232.466 35.0006 232.392 34.854 232.255C34.7073 232.117 34.6213 231.927 34.6148 231.726C34.6083 231.525 34.6819 231.33 34.8194 231.183L208.648 45.7281C209.393 44.937 210.362 44.3929 211.426 44.169C212.489 43.9451 213.595 44.052 214.596 44.4754L449.613 144.525C449.761 144.589 449.886 144.698 449.968 144.837C450.05 144.975 450.086 145.137 450.07 145.298C450.054 145.458 449.988 145.61 449.88 145.73C449.772 145.85 449.629 145.932 449.471 145.965L449.471 145.965Z" fill="#3F3D56"/>
<path d="M48.6479 234.989L212.916 50.299L441.004 163.72L278.194 312.729L172.499 310.804L48.6479 234.989Z" fill="#E6E6E6"/>
<path d="M200.039 400.085L104.015 420.145C103.426 420.269 102.818 420.276 102.226 420.165C101.634 420.053 101.069 419.826 100.565 419.497C100.061 419.167 99.6266 418.741 99.2869 418.244C98.9473 417.746 98.7091 417.186 98.5859 416.597C98.4627 416.007 98.4569 415.399 98.5689 414.807C98.6809 414.215 98.9085 413.651 99.2386 413.147C99.5687 412.643 99.9949 412.209 100.493 411.87C100.991 411.531 101.551 411.294 102.14 411.171L198.164 391.111C198.753 390.987 199.361 390.98 199.953 391.091C200.545 391.203 201.109 391.43 201.614 391.759C202.118 392.089 202.552 392.515 202.892 393.012C203.232 393.51 203.47 394.069 203.593 394.659C203.716 395.249 203.722 395.857 203.61 396.449C203.498 397.041 203.27 397.605 202.94 398.109C202.61 398.613 202.184 399.047 201.686 399.386C201.188 399.725 200.628 399.962 200.039 400.085Z" fill="#FF8E9A"/>
<path d="M134.435 393.656L99.9839 400.853C99.3945 400.977 98.7864 400.984 98.1944 400.873C97.6024 400.761 97.0381 400.534 96.5339 400.205C96.0296 399.875 95.5953 399.449 95.2557 398.952C94.9161 398.454 94.6778 397.894 94.5546 397.305C94.4314 396.715 94.4256 396.107 94.5376 395.515C94.6496 394.923 94.8772 394.359 95.2073 393.855C95.5375 393.351 95.9637 392.917 96.4616 392.578C96.9595 392.239 97.5193 392.002 98.1091 391.879L132.56 384.682C133.15 384.558 133.758 384.551 134.35 384.663C134.942 384.774 135.506 385.001 136.01 385.331C136.514 385.66 136.949 386.086 137.288 386.584C137.628 387.081 137.866 387.641 137.989 388.231C138.113 388.82 138.118 389.429 138.006 390.021C137.894 390.612 137.667 391.177 137.337 391.68C137.007 392.184 136.58 392.618 136.083 392.957C135.585 393.296 135.025 393.534 134.435 393.656Z" fill="#FF8E9A"/>
<path d="M262.519 274.064C261.789 274.217 261.037 274.227 260.304 274.092L130.036 249.385L97.5031 93.6588C97.217 92.2815 97.4888 90.8469 98.2589 89.6698C99.0289 88.4927 100.234 87.6692 101.611 87.38L331.58 39.3363C332.957 39.0503 334.391 39.3223 335.568 40.0926C336.745 40.8629 337.568 42.0687 337.858 43.4454L370.414 199.28L370.208 199.424L264.62 273.165C263.987 273.601 263.272 273.907 262.519 274.064Z" fill="white"/>
<path d="M262.596 274.435C261.818 274.598 261.015 274.608 260.233 274.465L129.716 249.71L97.1314 93.7364C96.8248 92.2606 97.116 90.7235 97.9411 89.4624C98.7662 88.2012 100.058 87.3189 101.533 87.009L331.501 38.9653C332.977 38.6588 334.514 38.9502 335.775 39.7756C337.036 40.601 337.918 41.8929 338.228 43.368L370.835 199.448L264.836 273.475C264.161 273.941 263.399 274.268 262.596 274.435ZM130.993 248.409L260.512 272.974C261.718 273.193 262.962 272.926 263.971 272.23L369.147 198.778L336.744 43.6779C336.517 42.5962 335.87 41.6489 334.945 41.0436C334.02 40.4383 332.893 40.2246 331.811 40.4493L101.843 88.493C100.761 88.7203 99.814 89.3673 99.2089 90.2922C98.6039 91.217 98.3903 92.3442 98.615 93.4264L130.993 248.409Z" fill="#3F3D56"/>
<path d="M447.676 144.791L447.528 144.822L369.964 198.986L263.841 273.095C263.426 273.382 262.958 273.584 262.465 273.689C261.971 273.795 261.462 273.802 260.966 273.711L130.33 248.941L35.5105 230.96L35.3648 230.929L35.2163 230.96C33.8398 231.249 32.6343 232.072 31.8642 233.249C31.0941 234.427 30.8224 235.861 31.1085 237.239L78.2327 462.806C78.5219 464.183 79.3453 465.388 80.5223 466.159C81.6992 466.929 83.1336 467.201 84.5107 466.915L496.971 380.746C498.347 380.457 499.553 379.634 500.323 378.457C501.093 377.279 501.365 375.845 501.079 374.468L453.954 148.9C453.665 147.523 452.842 146.318 451.665 145.547C450.488 144.777 449.053 144.505 447.676 144.791ZM499.595 374.777C499.8 375.761 499.606 376.786 499.056 377.627C498.506 378.468 497.644 379.056 496.661 379.262L84.2006 465.431C83.2169 465.636 82.192 465.442 81.3512 464.892C80.5103 464.341 79.9223 463.48 79.7164 462.496L32.5922 236.929C32.3931 235.969 32.5726 234.969 33.0932 234.139C33.6137 233.309 34.435 232.712 35.3854 232.473L130.665 250.544L260.682 275.203C262.087 275.46 263.536 275.148 264.712 274.338L370.301 200.597L448.135 146.244C449.1 146.085 450.09 146.305 450.897 146.858C451.705 147.41 452.268 148.253 452.471 149.21L499.595 374.777Z" fill="#3F3D56"/>
</g>
<defs>
<clipPath id="clip0_58:2515">
<rect width="431.975" height="387.858" fill="white" transform="translate(0 88.3384) rotate(-11.8002)"/>
</clipPath>
</defs>
</svg>
