<svg width="351" height="197" viewBox="0 0 351 197" fill="none" xmlns="http://www.w3.org/2000/svg">
<g clip-path="url(#clip0_58:2078)">
<path d="M68.1094 155.392C70.1762 155.12 71.865 156.454 73.812 156.871C80.3772 158.194 86.8226 160.206 93.3932 161.571C95.0813 161.938 96.728 162.31 98.4086 162.299C100.296 162.262 101.731 163.587 103.629 163.631C105.481 163.641 107.314 164.156 109.162 164.46C109.486 164.039 109.554 165.838 109.975 164.564C110 164.434 110.347 164.515 110.518 164.534C114.183 165.23 117.827 165.76 121.593 165.938C124.262 166.092 127.091 166.183 129.641 167.025C131.62 167.69 133.613 167.176 135.499 167.769C136.504 168.057 137.912 166.611 138.58 168.499C138.586 168.541 138.834 168.508 138.952 168.45C141.6 166.842 144.254 167.838 146.865 168.504C147.735 168.726 148.419 168.174 149.251 168.107C153.552 167.878 157.797 169.464 162.135 168.558C163.365 168.313 164.492 168.249 165.752 168.882C167.236 169.612 168.674 168.078 170.365 168.15C172.894 168.196 175.389 167.659 177.938 168.501C178.99 168.825 180.371 168.139 181.455 167.745C183.261 167.087 184.801 166.969 186.436 167.889C186.799 168.094 187.047 168.061 187.408 167.93C191.149 166.64 195.105 166.666 198.98 166.074C201.987 165.595 205.023 165.658 207.953 164.601C209.759 163.943 211.76 164.773 213.633 163.981C214.989 163.425 216.313 162.62 217.853 162.502C218.479 162.462 219.147 161.786 219.716 162.594C219.773 162.712 220.038 162.804 220.073 162.757C222.372 160.732 225.469 162.216 228.067 160.866C229.128 160.307 230.381 159.596 231.687 159.298C233.195 158.932 234.85 159.051 236.298 158.23C236.731 158.005 237.627 158.098 238.083 158.374C238.997 158.927 239.502 158.608 239.999 157.912C240.281 157.497 240.692 157.107 241.21 157.207C243.897 157.821 245.819 155.803 248.132 155.163C252.887 153.908 257.173 151.327 261.912 149.948C265.514 148.887 268.775 146.819 272.383 145.799C274.087 145.323 274.95 143.57 276.76 143.584C277.76 144.798 276.839 145.466 275.948 146.045C271.823 148.899 268.205 152.4 263.888 155.069C263.264 155.445 262.921 156.037 263.025 156.822C258.068 159.743 252.544 161.225 247.051 162.619C241.97 163.959 236.874 165.174 231.857 166.674C221.792 169.761 211.505 171.154 201.173 172.847C193.311 174.132 185.426 174.285 177.532 174.691C173.355 174.903 169.147 175.204 164.954 175.292C161.934 175.352 158.877 175.123 155.882 175.054C152.169 174.954 148.482 175.059 144.788 174.788C137.618 174.3 130.453 173.854 123.287 173.072C117.745 172.497 112.3 171.699 106.827 170.694C102.261 169.864 97.6397 169.252 93.1041 168.335C90.386 167.809 87.7844 166.889 85.0859 166.193C83.2989 165.713 81.4421 165.663 79.7716 164.789C80.0405 163.955 79.7524 163.362 78.9792 162.918C77.6611 162.166 76.5171 161.139 75.3067 160.247C73.9505 159.206 72.5998 158.207 70.8901 157.675C69.7611 157.403 68.4701 156.857 68.1094 155.392Z" fill="#4AF43B"/>
<path d="M68.1094 155.392C72.3064 157.573 76.1497 160.263 80.0343 162.947C81.2339 163.756 81.2326 164.387 79.7825 164.872C76.4836 164.086 73.2098 163.171 69.9969 162.08C67.7945 161.318 65.4951 160.779 63.3536 159.841C54.5234 155.999 45.433 152.737 37.394 147.235C30.9754 142.866 24.8603 138.247 19.6735 132.37C17.0018 129.316 14.2528 126.315 12.235 122.796C10.3324 119.515 9.54918 115.793 9.014 112.038C8.07389 105.52 9.46358 99.4527 12.1259 93.4704C13.2633 90.925 14.4475 88.4155 15.8079 85.967C18.1608 81.7908 21.4761 78.539 24.5413 74.9839C27.7501 71.2417 31.7037 68.3685 35.4128 65.2332C38.5147 62.5979 41.7982 60.065 45.5047 58.191C47.242 57.3324 48.5239 55.5667 50.7385 55.7803C53.3707 52.4501 57.8316 52.1585 60.9389 49.5646C62.0041 48.7101 63.4704 48.3494 64.7389 47.7624C66.5685 47.6062 68.0667 46.5267 69.7072 45.8909C71.065 44.7038 72.7794 44.3105 74.4199 43.6747C77.541 42.4661 80.6099 41.1804 83.6787 39.8946C84.5556 39.5272 85.6378 39.7634 86.3831 39.035C87.1414 38.7252 87.9322 38.6634 88.6741 38.2297C89.0604 37.9688 89.8295 37.7417 90.1534 38.2876C90.472 38.7923 89.9998 39.3587 89.5831 39.7077C88.5701 40.6394 87.4582 41.4579 86.3463 42.2765C84.153 43.8256 81.6302 44.7875 79.4315 46.2952C77.482 47.1398 75.4749 47.8657 73.583 48.8288C68.3764 51.4462 62.8023 53.1871 57.7739 56.2014C54.4611 58.1918 50.7939 59.7243 47.5029 61.8799C43.7429 64.3073 40.1972 67.0849 36.4895 69.5895C31.264 73.3443 27.276 78.1977 23.2826 83.0097C20.7059 86.1224 18.7209 89.5777 17.0273 93.3311C15.2673 97.2193 14.4025 101.2 13.9369 105.339C13.5213 109.218 14.3763 112.847 15.6251 116.592C17.7639 122.953 22.3888 127.432 26.4066 132.411C29.2674 135.944 33.4264 137.836 36.7899 140.715C38.9627 142.532 41.5806 143.575 44.0244 144.893C46.7901 146.422 49.8932 147.317 52.6067 148.768C56.1815 150.695 59.7923 152.575 63.5663 154.097C65.0694 154.656 66.5061 155.35 68.1094 155.392Z" fill="#4AF43B"/>
<path d="M263.066 156.817C261.111 156.022 262.642 155.191 263.229 154.861C266.156 153.132 268.676 150.867 271.404 148.912C273.057 147.728 274.262 146.014 276.263 145.247C276.944 144.99 276.888 144.24 276.76 143.585C277.683 143.253 278.591 142.798 279.64 142.786C283.914 139.787 288.506 137.292 292.535 134.031C295.807 131.415 299.492 129.376 302.545 126.369C303.81 125.11 305.586 123.91 307.115 122.742C310.059 120.506 313.023 118.099 315.409 115.137C316.82 113.397 318.906 111.988 320.1 110.192C322.169 107.062 325.847 105.612 327.662 102.137C329.603 98.3508 331.592 94.6007 333.44 90.743C335.819 85.8067 337.069 80.5983 336.193 75.2068C335.692 72.0359 333.968 69.1517 332.368 66.2513C330.051 62.0578 325.922 60.0779 322.446 57.2978C320.476 55.749 318.769 53.9555 316.363 52.9264C312.044 51.0976 307.72 49.2274 303.299 47.5802C297.732 45.537 291.933 44.2809 286.189 42.8074C284.747 42.0721 283.106 41.7412 281.827 40.6481C281.354 40.2478 280.828 39.7703 281.119 39.1016C281.506 38.21 282.114 38.6767 282.659 38.9834C283.245 39.2848 283.894 38.7792 284.444 39.1273C285.457 39.793 286.528 39.9466 287.749 39.9544C290.52 39.9267 292.989 41.1157 295.616 41.9057C297.325 42.4378 299.021 43.1819 300.75 43.5433C304.328 44.2084 307.385 46.0348 310.743 47.2751C314.454 48.6373 318.079 50.305 321.243 52.6218C324.687 55.1539 328.413 57.2708 331.407 60.5347C333.859 63.1971 335.997 66.027 337.944 69.0079C339.202 70.9024 339.96 73.1568 340.331 75.336C341.136 80.1903 341.281 85.1315 339.21 89.859C337.946 92.7154 337.132 95.8067 335.868 98.663C335.051 100.452 333.929 102.154 332.703 103.702C329.281 108.061 325.864 112.461 322.167 116.646C320.811 118.169 320.047 120.035 318.686 121.517C317.802 122.473 316.537 122.766 315.626 123.516C314.489 124.464 313.207 125.263 312.446 126.834C311.715 128.317 309.876 129.357 308.46 130.426C304.868 133.168 301.437 136.182 297.397 138.394C293.867 140.329 290.509 142.62 287.047 144.756C285.416 145.138 284.094 146.278 282.588 146.981C281.23 148.168 279.735 148.953 277.944 149.398C276.069 149.854 274.969 151.722 273.174 152.462C271.895 152.967 270.668 153.548 269.32 153.851C268.15 154.551 266.279 153.746 265.674 155.549C264.971 156.272 264.099 156.681 263.066 156.817Z" fill="#4AF43B"/>
<path d="M238.894 37.7534C233.18 37.7892 227.517 36.9356 221.823 36.8007C219.589 36.7578 217.315 37.0564 215.076 36.9722C209.246 36.7709 203.485 37.4015 197.701 37.8669C194.744 38.087 191.741 38.2713 188.79 38.5327C184.635 38.9103 180.476 39.5826 176.269 39.8829C172.521 40.1649 168.803 40.9895 165.132 41.8499C162.034 42.5931 158.834 42.8871 155.747 43.7129C152.211 44.6398 148.492 44.4977 145.002 45.4604C141.228 46.5024 137.46 47.5858 133.697 48.7105C129.81 49.8515 125.861 50.8326 122.094 52.252C117.085 54.1289 111.881 55.4849 107.249 58.321C105.575 59.3396 103.508 59.611 101.694 60.5219C95.6514 63.5012 89.5245 66.1554 83.4932 69.2174C79.9467 71.0283 76.9078 73.8234 72.9112 74.7686C72.0126 74.9707 71.3053 75.9883 70.5078 76.6395C69.6744 77.3374 68.8281 77.6167 67.9233 76.8108C68.5676 75.6333 69.9174 75.6662 70.7922 74.9628C74.1062 72.3417 77.629 70.0296 81.1463 67.6761C84.7768 65.2236 88.6486 63.328 92.4987 61.2671C99.1785 57.6996 105.935 54.0799 113.035 51.4661C118.411 49.499 123.719 47.3308 129.342 45.9618C133.829 44.9101 138.319 43.5637 142.823 42.636C150.394 41.0532 157.954 39.3877 165.67 38.5846C170.688 38.0517 175.72 37.3068 180.722 36.6499C182.168 36.4599 183.615 36.2699 185.005 36.9281C185.679 37.2598 186.355 36.9609 186.989 36.6675C189.366 35.5566 191.816 35.319 194.333 35.9132C194.592 35.9633 194.933 36.0025 195.129 35.8927C197.217 34.8199 199.616 34.841 201.712 35.1122C204.373 35.5194 206.687 34.2487 209.309 34.3667C214.59 34.5559 219.872 34.1144 225.173 34.1329C228.457 34.164 231.758 33.6884 235.041 34.3502C235.137 35.7247 236.266 35.9967 237.18 36.5493C237.89 36.8344 238.954 36.6106 238.894 37.7534Z" fill="#4AF43B"/>
<path d="M79.4532 46.4606C80.0879 44.5697 82.0469 44.4386 83.4123 43.6287C85.7927 42.2232 87.986 40.6741 90.1969 38.6183C88.6274 38.1939 87.723 39.952 86.4462 39.1949C88.4383 37.7143 90.9923 37.6311 93.1735 36.63C96.8658 34.9681 100.958 34.4307 104.818 33.0831C109.436 31.4258 114.374 30.609 119.165 29.3073C124.89 27.7568 130.774 26.7738 136.59 25.5898C140.85 24.7359 145.265 24.4084 149.558 23.8025C154.053 23.1282 158.629 23.0736 163.23 22.8897C163.133 23.1126 163.083 23.3714 163.001 23.3823C159.872 24.2135 157.643 26.776 154.24 27.4332C151.001 28.0687 147.689 28.4617 144.451 29.0971C138.955 30.1551 133.375 30.888 127.937 32.0646C125.691 32.5697 123.414 33.163 121.153 33.8802C118.691 34.6659 116.12 35.2559 113.595 35.8817C106.712 37.5842 99.9253 39.6946 93.1546 41.9289C88.6085 43.4928 84.0047 44.9381 79.4532 46.4606Z" fill="#4AF43B"/>
<path d="M238.894 37.7534C237.727 37.1921 236.554 36.5894 235.346 36.0335C234.226 35.5081 234.279 34.9546 235.201 34.2871C244.004 33.7615 252.752 34.4201 261.523 35.2439C264.373 35.5001 267.157 36.5217 270.127 36.0895C271.858 35.8202 273.385 36.8807 275.032 37.2529C277.978 37.9168 281.039 37.8511 283.9 38.8206C284.123 38.9174 284.315 39.1023 284.543 39.2404C283.537 39.5828 282.53 40.5558 281.516 38.9234C282.379 41.3322 284.842 41.5132 286.247 42.926C283.146 42.3664 280.034 41.7242 276.908 41.2941C273.058 40.7909 269.193 40.4998 265.312 40.0847C263.863 39.9387 262.436 39.958 261.051 39.3412C259.983 38.8929 258.932 38.5687 257.677 38.9436C256.79 39.2283 255.485 38.8953 255.268 38.2091C254.704 36.4757 253.623 37.2062 252.818 37.48C249.515 38.5864 246.212 38.726 242.905 37.5629C241.506 37.1581 240.242 38.417 238.894 37.7534Z" fill="#4AF43B"/>
<path d="M282.677 147.011C284.01 145.953 285.169 144.54 287.136 144.786C285.693 145.648 284.35 146.623 282.677 147.011Z" fill="#4AF43B"/>
<path d="M265.722 155.585C265.586 154.552 265.654 153.786 267.113 154.015C267.843 154.129 268.618 153.944 269.367 153.887C268.176 154.422 266.949 155.004 265.722 155.585Z" fill="#4AF43B"/>
<path d="M69.7238 46.0149C68.2257 47.0944 66.7059 48.0086 64.7556 47.8864C66.5221 47.5703 67.8311 46.0112 69.7238 46.0149Z" fill="#4AF43B"/>
<path d="M110.512 164.493C110.322 164.644 110.018 164.894 110.029 164.977C110.213 165.415 111.266 165.109 110.92 165.995C110.853 166.13 110.327 166.283 110.228 166.17C109.848 165.841 108.892 165.925 109.15 165.008C109.211 164.832 109.143 164.631 109.116 164.424C109.606 164.318 110.086 164.129 110.512 164.493Z" fill="#4AF43B"/>
<path d="M279.641 142.786C278.887 143.768 277.747 143.413 276.76 143.584C277.378 143.167 278.007 142.832 278.578 142.379C279.191 141.92 279.416 142.353 279.641 142.786Z" fill="#4AF43B"/>
</g>
<defs>
<clipPath id="clip0_58:2078">
<rect width="333.317" height="154.622" fill="white" transform="translate(0 43.4019) rotate(-7.48184)"/>
</clipPath>
</defs>
</svg>
