<svg width="132" height="74" viewBox="0 0 132 74" fill="none" xmlns="http://www.w3.org/2000/svg">
<g clip-path="url(#clip0_58:2172)">
<path d="M25.5574 58.3085C26.3329 58.2067 26.9666 58.707 27.6972 58.8634C30.1607 59.3601 32.5792 60.115 35.0448 60.6272C35.6782 60.7649 36.2961 60.9045 36.9267 60.9006C37.6349 60.8864 38.1735 61.3835 38.8858 61.4004C39.5804 61.4038 40.2686 61.5974 40.962 61.7113C41.0833 61.5534 41.1088 62.2283 41.2669 61.7502C41.2763 61.7016 41.4065 61.7318 41.4705 61.7392C42.846 62.0002 44.2132 62.1992 45.6263 62.266C46.6279 62.3237 47.6895 62.3578 48.6461 62.6738C49.3889 62.9233 50.1367 62.7304 50.8444 62.9529C51.2215 63.0611 51.7498 62.5186 52.0006 63.227C52.0027 63.2425 52.0957 63.2302 52.1402 63.2086C53.1339 62.6049 54.1297 62.9789 55.1092 63.2288C55.4357 63.3121 55.6925 63.1049 56.0047 63.0796C57.6186 62.9939 59.2115 63.5891 60.8393 63.2491C61.3006 63.157 61.7234 63.133 62.1964 63.3706C62.7531 63.6445 63.2928 63.0689 63.9275 63.0959C64.8765 63.1133 65.8125 62.9115 66.7691 63.2275C67.1637 63.3492 67.6822 63.0918 68.0888 62.9438C68.7664 62.697 69.3443 62.6527 69.9577 62.998C70.094 63.0747 70.1871 63.0625 70.3226 63.0132C71.7264 62.5291 73.2109 62.5392 74.6648 62.3167C75.793 62.137 76.9322 62.1609 78.0319 61.7641C78.7095 61.5174 79.4604 61.8289 80.1629 61.5316C80.672 61.3228 81.1688 61.0209 81.7468 60.9766C81.9814 60.9615 82.2321 60.7078 82.4455 61.011C82.4671 61.0555 82.5663 61.0898 82.5798 61.0722C83.4424 60.3122 84.6043 60.8694 85.5791 60.3628C85.9776 60.1528 86.4474 59.886 86.9377 59.7743C87.5034 59.6369 88.1246 59.6815 88.668 59.3736C88.8304 59.2892 89.1663 59.3239 89.3377 59.4276C89.6805 59.6349 89.87 59.5154 90.0566 59.2543C90.1623 59.0985 90.3166 58.952 90.5109 58.9896C91.5194 59.2199 92.2404 58.4628 93.1083 58.2226C94.8925 57.7517 96.5009 56.7834 98.279 56.2659C99.6309 55.8675 100.854 55.0917 102.208 54.7089C102.848 54.5303 103.171 53.8726 103.851 53.878C104.226 54.3335 103.88 54.5839 103.546 54.8013C101.998 55.8721 100.64 57.1861 99.0205 58.1875C98.7866 58.3286 98.6579 58.5506 98.6966 58.8452C96.8367 59.9412 94.7639 60.4973 92.7026 61.0204C90.7963 61.5231 88.884 61.9793 87.0014 62.542C83.2247 63.7005 79.3646 64.2232 75.4877 64.8585C72.5374 65.3406 69.5786 65.398 66.6166 65.5504C65.0492 65.63 63.4704 65.7427 61.897 65.7759C60.7639 65.7985 59.6166 65.7126 58.4929 65.6867C57.0995 65.6488 55.7162 65.6885 54.3301 65.5867C51.6396 65.4037 48.9511 65.2363 46.2618 64.9428C44.1823 64.7269 42.1392 64.4274 40.0858 64.0504C38.3724 63.7391 36.6382 63.5095 34.9363 63.1652C33.9164 62.9679 32.9402 62.6229 31.9276 62.3615C31.257 62.1815 30.5603 62.1626 29.9335 61.8348C30.0344 61.5218 29.9263 61.2994 29.6361 61.1325C29.1415 60.8504 28.7122 60.4652 28.2581 60.1305C27.7492 59.7399 27.2424 59.3648 26.6008 59.1652C26.1772 59.0631 25.6927 58.8586 25.5574 58.3085Z" fill="#FEDD41"/>
<path d="M25.559 58.3086C27.1339 59.127 28.576 60.1364 30.0337 61.1437C30.4838 61.4473 30.4833 61.684 29.9392 61.8659C28.7013 61.571 27.4729 61.2276 26.2673 60.8181C25.4408 60.5323 24.578 60.3302 23.7745 59.9783C20.461 58.5365 17.05 57.3125 14.0335 55.2481C11.625 53.6085 9.3304 51.8751 7.38411 49.6701C6.38159 48.5242 5.35009 47.3978 4.59292 46.0777C3.87899 44.8465 3.58511 43.4498 3.38429 42.0408C3.03153 39.595 3.55299 37.3183 4.55199 35.0735C4.9788 34.1184 5.42314 33.1767 5.93361 32.2579C6.8165 30.6909 8.06051 29.4707 9.21068 28.1367C10.4147 26.7325 11.8983 25.6543 13.2901 24.4779C14.454 23.489 15.6861 22.5386 17.0769 21.8354C17.7288 21.5132 18.2098 20.8506 19.0408 20.9308C20.0285 19.6812 21.7024 19.5718 22.8684 18.5984C23.2681 18.2778 23.8183 18.1424 24.2943 17.9222C24.9808 17.8636 25.543 17.4585 26.1586 17.2199C26.6681 16.7745 27.3114 16.6269 27.9269 16.3883C29.0981 15.9348 30.2496 15.4524 31.4012 14.9699C31.7302 14.8321 32.1363 14.9207 32.416 14.6474C32.7005 14.5311 32.9972 14.5079 33.2756 14.3452C33.4206 14.2473 33.7092 14.1621 33.8307 14.3669C33.9503 14.5563 33.7731 14.7688 33.6167 14.8998C33.2366 15.2494 32.8194 15.5565 32.4022 15.8637C31.5791 16.445 30.6325 16.8059 29.8075 17.3717C29.076 17.6885 28.3228 17.961 27.6129 18.3223C25.6592 19.3045 23.5676 19.9577 21.6808 21.0888C20.4377 21.8357 19.0616 22.4107 17.8267 23.2196C16.4158 24.1304 15.0854 25.1727 13.6941 26.1125C11.7333 27.5214 10.2369 29.3426 8.73839 31.1482C7.77153 32.3162 7.02668 33.6128 6.39118 35.0212C5.73076 36.4802 5.40626 37.9739 5.23153 39.5269C5.0756 40.9827 5.39643 42.3444 5.86501 43.7497C6.66758 46.1364 8.403 47.8171 9.91062 49.6853C10.9841 51.0113 12.5447 51.7211 13.8068 52.8015C14.6221 53.483 15.6045 53.8745 16.5215 54.3693C17.5592 54.9427 18.7236 55.2788 19.7418 55.8233C21.0832 56.5462 22.4381 57.2516 23.8543 57.8227C24.4183 58.0325 24.9574 58.293 25.559 58.3086Z" fill="#FEDD41"/>
<path d="M98.7117 58.8432C97.9783 58.5452 98.5527 58.2331 98.7731 58.1096C99.8713 57.4606 100.817 56.6109 101.841 55.877C102.461 55.4328 102.913 54.7898 103.664 54.5019C103.919 54.4053 103.898 54.1241 103.85 53.8781C104.197 53.7537 104.537 53.5828 104.931 53.5784C106.535 52.453 108.258 51.5169 109.77 50.2931C110.998 49.3116 112.38 48.5464 113.526 47.418C114 46.9456 114.667 46.4953 115.241 46.0572C116.345 45.2181 117.457 44.3149 118.353 43.2037C118.882 42.5505 119.665 42.0218 120.113 41.3479C120.889 40.1733 122.27 39.6293 122.95 38.3253C123.679 36.9047 124.425 35.4976 125.119 34.05C126.011 32.1977 126.48 30.2434 126.152 28.2203C125.964 27.0304 125.317 25.9482 124.716 24.8598C123.847 23.2863 122.298 22.5434 120.993 21.5002C120.254 20.919 119.614 20.246 118.711 19.8598C117.09 19.1736 115.468 18.4719 113.809 17.8538C111.72 17.0871 109.544 16.6158 107.388 16.0628C106.847 15.7869 106.231 15.6627 105.751 15.2526C105.574 15.1024 105.377 14.9232 105.486 14.6723C105.631 14.3377 105.859 14.5128 106.064 14.6279C106.284 14.741 106.527 14.5513 106.734 14.6819C107.114 14.9317 107.516 14.9893 107.974 14.9923C109.014 14.9819 109.94 15.4281 110.926 15.7245C111.567 15.9241 112.203 16.2034 112.852 16.339C114.195 16.5885 115.342 17.2739 116.602 17.7393C117.995 18.2504 119.355 18.8762 120.542 19.7456C121.834 20.6957 123.232 21.49 124.356 22.7148C125.276 23.7138 126.078 24.7757 126.809 25.8942C127.281 26.6051 127.565 27.451 127.704 28.2687C128.007 30.0903 128.061 31.9444 127.284 33.7183C126.809 34.7901 126.504 35.9501 126.03 37.0219C125.723 37.693 125.302 38.3319 124.842 38.9129C123.558 40.5484 122.276 42.1995 120.888 43.7697C120.38 44.3412 120.093 45.0414 119.582 45.5974C119.251 45.9564 118.776 46.0661 118.434 46.3475C118.008 46.7033 117.526 47.0031 117.241 47.5926C116.967 48.1491 116.277 48.5395 115.745 48.9404C114.397 49.9692 113.11 51.1004 111.594 51.9305C110.269 52.6565 109.009 53.516 107.71 54.3175C107.098 54.461 106.602 54.8889 106.037 55.1524C105.528 55.5979 104.967 55.8923 104.294 56.0595C103.591 56.2307 103.178 56.9316 102.505 57.2094C102.025 57.3986 101.564 57.6168 101.059 57.7306C100.62 57.9932 99.9173 57.6911 99.6906 58.3676C99.4264 58.6389 99.0995 58.7923 98.7117 58.8432Z" fill="#FEDD41"/>
<path d="M89.6424 14.1664C87.4984 14.1799 85.3736 13.8595 83.2369 13.8089C82.3985 13.7928 81.5454 13.9049 80.7051 13.8733C78.5178 13.7978 76.3557 14.0344 74.1854 14.209C73.076 14.2916 71.9491 14.3607 70.8417 14.4588C69.2825 14.6005 67.722 14.8528 66.1432 14.9655C64.7371 15.0713 63.3419 15.3807 61.9643 15.7036C60.8018 15.9824 59.6013 16.0928 58.4429 16.4026C57.1159 16.7504 55.7204 16.6971 54.4109 17.0584C52.9949 17.4494 51.5809 17.8559 50.169 18.2779C48.7105 18.7061 47.2284 19.0742 45.8152 19.6068C43.9354 20.3111 41.9826 20.8199 40.2448 21.8841C39.6165 22.2663 38.841 22.3682 38.1601 22.71C35.8928 23.8279 33.5938 24.8239 31.3306 25.9728C29.9998 26.6523 28.8595 27.7012 27.3598 28.0558C27.0227 28.1317 26.7573 28.5135 26.458 28.7579C26.1453 29.0198 25.8277 29.1246 25.4882 28.8221C25.73 28.3803 26.2365 28.3926 26.5647 28.1287C27.8083 27.1452 29.1301 26.2776 30.45 25.3945C31.8123 24.4742 33.2651 23.7629 34.7098 22.9896C37.2163 21.6509 39.7517 20.2927 42.4157 19.3119C44.433 18.5738 46.4247 17.7602 48.5346 17.2465C50.2184 16.8519 51.9034 16.3466 53.5933 15.9985C56.4342 15.4046 59.2711 14.7797 62.1663 14.4783C64.0492 14.2783 65.9374 13.9988 67.8142 13.7523C68.3571 13.681 68.8999 13.6098 69.4215 13.8567C69.6745 13.9812 69.928 13.8691 70.166 13.7589C71.0579 13.3421 71.9772 13.2529 72.9216 13.4759C73.0187 13.4947 73.1469 13.5094 73.2203 13.4682C74.0037 13.0657 74.9041 13.0736 75.6906 13.1753C76.6889 13.3282 77.5572 12.8513 78.5413 12.8956C80.5229 12.9666 82.5049 12.8009 84.4939 12.8079C85.7261 12.8195 86.9649 12.6411 88.1967 12.8894C88.2329 13.4052 88.6565 13.5073 88.9993 13.7146C89.2658 13.8216 89.665 13.7376 89.6424 14.1664Z" fill="#FEDD41"/>
<path d="M29.813 17.4336C30.0512 16.7241 30.7863 16.6749 31.2986 16.371C32.1918 15.8436 33.0148 15.2623 33.8444 14.4909C33.2555 14.3317 32.9161 14.9914 32.437 14.7073C33.1845 14.1517 34.1429 14.1205 34.9614 13.7449C36.3469 13.1213 37.8824 12.9196 39.3307 12.4139C41.0635 11.792 42.9166 11.4856 44.7143 10.9971C46.8626 10.4153 49.0705 10.0465 51.2526 9.60215C52.8515 9.28176 54.5078 9.15887 56.1189 8.93152C57.8055 8.67847 59.5226 8.65801 61.2492 8.589C61.2128 8.67263 61.194 8.76974 61.163 8.77382C59.989 9.08572 59.1528 10.0473 57.8756 10.2939C56.6605 10.5323 55.4176 10.6798 54.2024 10.9182C52.1403 11.3152 50.0464 11.5902 48.0058 12.0317C47.1629 12.2213 46.3086 12.4439 45.4604 12.713C44.5366 13.0079 43.5717 13.2292 42.6242 13.4641C40.0416 14.1029 37.4949 14.8948 34.9543 15.7332C33.2484 16.32 31.5209 16.8623 29.813 17.4336Z" fill="#FEDD41"/>
<path d="M89.6418 14.1664C89.2039 13.9558 88.764 13.7296 88.3106 13.521C87.8902 13.3239 87.9103 13.1162 88.2561 12.8657C91.5594 12.6685 94.8422 12.9156 98.1331 13.2248C99.2028 13.3209 100.247 13.7042 101.362 13.5421C102.011 13.441 102.584 13.8389 103.202 13.9786C104.308 14.2277 105.456 14.2031 106.53 14.5668C106.613 14.6032 106.686 14.6726 106.771 14.7244C106.394 14.8528 106.016 15.218 105.635 14.6054C105.959 15.5093 106.883 15.5772 107.411 16.1073C106.247 15.8974 105.079 15.6564 103.906 15.495C102.461 15.3062 101.011 15.197 99.555 15.0412C99.0113 14.9864 98.4758 14.9937 97.9563 14.7622C97.5555 14.594 97.1609 14.4723 96.6902 14.613C96.3571 14.7198 95.8674 14.5949 95.7862 14.3374C95.5746 13.687 95.1688 13.9611 94.8667 14.0638C93.6274 14.479 92.3878 14.5313 91.1471 14.0949C90.6223 13.943 90.1479 14.4154 89.6418 14.1664Z" fill="#FEDD41"/>
<path d="M106.07 55.1638C106.57 54.7669 107.005 54.2366 107.743 54.3289C107.202 54.6524 106.698 55.0183 106.07 55.1638Z" fill="#FEDD41"/>
<path d="M99.7101 58.3811C99.6592 57.9934 99.6846 57.7062 100.232 57.792C100.506 57.8349 100.797 57.7652 101.078 57.744C100.631 57.9447 100.171 58.1629 99.7101 58.3811Z" fill="#FEDD41"/>
<path d="M26.1636 17.2664C25.6014 17.6715 25.0311 18.0145 24.2993 17.9687C24.9622 17.8501 25.4534 17.2651 26.1636 17.2664Z" fill="#FEDD41"/>
<path d="M41.4672 61.7237C41.3958 61.7804 41.2819 61.8742 41.286 61.9052C41.3549 62.0697 41.75 61.9547 41.6201 62.2872C41.5952 62.3378 41.3977 62.3953 41.3605 62.3529C41.2181 62.2296 40.8593 62.261 40.9562 61.917C40.979 61.8509 40.9533 61.7754 40.9432 61.6979C41.1272 61.6579 41.3073 61.587 41.4672 61.7237Z" fill="#FEDD41"/>
<path d="M104.932 53.5783C104.649 53.9467 104.221 53.8136 103.851 53.878C104.083 53.7214 104.319 53.5957 104.533 53.4256C104.763 53.2535 104.847 53.4159 104.932 53.5783Z" fill="#FEDD41"/>
</g>
<defs>
<clipPath id="clip0_58:2172">
<rect width="125.073" height="58.0198" fill="white" transform="translate(0 16.2859) rotate(-7.48184)"/>
</clipPath>
</defs>
</svg>
