<svg width="71" height="48" viewBox="0 0 71 48" fill="none" xmlns="http://www.w3.org/2000/svg">
<path d="M30.0223 27.4737C28.671 28.5107 27.0944 29.2415 25.5066 29.9329C25.2025 30.0613 24.8984 30.1897 24.5944 30.3181C24.3917 30.407 24.2002 30.4366 24.0201 30.2983C23.8061 30.1502 23.8962 29.9724 23.9863 29.8045C24.1552 29.4983 24.3354 29.1922 24.5156 28.8959C24.3016 28.7675 24.189 28.9058 24.0313 28.9551C22.8601 29.3897 21.6777 29.8144 20.5065 30.2391C20.2588 30.3279 20.0335 30.3181 19.8421 30.1304C19.6281 29.923 19.6619 29.6959 19.8083 29.4885C20.0786 29.1132 20.3827 28.7576 20.6642 28.3922C20.743 28.2835 20.8894 28.1848 20.7768 28.0465C20.6867 27.9379 20.5403 28.007 20.4052 28.0169C18.5696 28.165 16.734 28.0663 14.8984 28.1354C14.3804 28.1551 14.065 27.9774 13.8961 27.5724C13.7272 27.1576 13.975 26.8613 14.3241 26.6441C14.9096 26.2885 15.5178 25.9725 16.1146 25.6367C16.216 25.5774 16.3961 25.5577 16.3961 25.4293C16.3961 25.2515 16.1934 25.2614 16.0583 25.2219C13.7047 24.4416 11.3511 23.691 9.01997 22.8713C8.33303 22.6343 7.69114 22.2688 7.07176 21.9034C6.30599 21.459 6.39608 20.8368 7.25194 20.4911C8.31051 20.0664 9.4479 19.8491 10.5628 19.5825C11.3736 19.3849 12.1731 19.1775 12.9952 19.0195C13.5358 18.9208 13.4457 18.7726 13.1529 18.4961C11.4975 16.9257 9.95466 15.2764 8.47943 13.5678C6.75645 11.5728 4.76319 9.78514 3.05147 7.79011C2.70237 7.38518 2.29696 7.00988 2.1393 6.50619C1.91408 5.82472 2.34201 5.32103 3.15282 5.32103C3.64832 5.32103 4.1213 5.42967 4.58301 5.57781C7.66861 6.60495 10.743 7.64197 13.8173 8.67899C15.3038 9.18268 16.7002 9.85427 18.1529 10.4271C18.4232 10.5357 18.7272 10.595 18.975 10.7333C19.4367 10.9901 19.4592 10.7629 19.4705 10.4469C19.5043 9.0049 19.5493 7.55308 19.7408 6.11113C19.7745 5.85435 19.8534 5.62719 20.011 5.41979C20.3714 4.98523 20.9457 4.94572 21.4074 5.37041C22.3984 6.2494 23.3106 7.17778 24.1214 8.18517C24.9547 9.21231 25.743 10.2691 26.4638 11.4345C26.734 11.0197 26.6327 10.6246 26.7115 10.2592C26.8129 9.79501 26.8467 9.31107 26.8917 8.83701C26.9255 8.52096 27.0831 8.30368 27.4322 8.2148C27.8039 8.12591 27.9953 8.38269 28.1304 8.59997C28.6372 9.39008 29.1102 10.1802 29.5944 10.9802C29.9998 11.6518 30.394 12.3135 30.7994 12.9851C30.8557 13.0838 30.8895 13.2221 31.0584 13.1925C31.2048 13.1628 31.1485 13.0345 31.1823 12.9456C31.3174 12.6196 31.4413 12.2937 31.5989 11.9777C31.7228 11.7505 31.9255 11.553 32.2521 11.5925C32.5561 11.6221 32.6575 11.8592 32.7363 12.0863C33.0629 13.0345 33.3106 13.9925 33.4908 14.9603C33.6935 16.0467 33.8399 17.143 33.9863 18.2294C34.0426 18.6047 34.0314 18.98 34.0426 19.3652C33.8287 19.3553 33.7498 19.1874 33.6147 19.0689C32.8039 17.7652 31.6552 16.7381 30.3039 15.8788C30.0674 15.7011 29.8084 15.5727 29.4931 15.5233C29.3579 15.5134 29.2228 15.4739 29.1214 15.3949C28.9075 15.2171 28.6147 15.2073 28.3444 15.1381C28.1192 15.0789 27.9277 15.0097 27.8151 14.8221C27.7926 14.7529 27.7926 14.6838 27.8264 14.6147C27.8489 14.5653 27.9953 14.5653 27.9277 14.4863C26.5764 12.8962 25.2701 11.2666 23.8399 9.73575C23.6935 9.57773 23.7047 9.66662 23.7047 9.78514C23.7047 9.81476 23.6597 9.83452 23.6259 9.85427C23.3669 9.93328 23.2881 10.1012 23.2543 10.3481C23.1755 10.9999 23.1417 11.6518 23.1417 12.3135C23.1417 12.5505 23.198 12.8271 22.8489 12.9456C22.4547 12.6394 22.6912 12.2345 22.6574 11.8789C22.6124 11.4444 22.7588 11.0098 22.7588 10.6938C22.68 11.2666 22.6124 11.9481 22.6574 12.6493C22.6912 13.1628 22.4435 13.6369 22.3872 14.1406C22.3421 14.4567 22.0493 14.5357 21.7002 14.4567C20.7318 14.2295 19.7858 13.9233 18.8736 13.5579C18.1416 13.2715 17.3759 13.0641 16.6326 12.8271C15.6754 12.5308 14.6957 12.274 13.7385 11.9579C13.3556 11.8295 12.9277 11.6221 12.556 11.9876C12.3195 12.3826 12.6236 12.6789 12.8263 12.9752C14.02 14.7431 15.4615 16.3529 16.734 18.0714C17.0268 18.4664 17.3534 18.8516 17.6912 19.2171C18.1867 19.78 18.1079 20.0467 17.3421 20.2343C16.1822 20.5207 15.0448 20.9059 13.8511 21.0738C13.6259 21.1034 13.4682 21.2713 13.2317 21.2812C13.1416 21.2911 12.9727 21.301 13.1867 21.3997C13.2092 21.4886 13.1529 21.5577 13.0853 21.617C12.7024 21.9923 12.7475 22.1602 13.3105 22.2985C14.2114 22.5158 15.1011 22.7923 15.9907 23.0293C17.3308 23.3947 18.6822 23.7207 19.9772 24.1947C20.3151 24.4416 20.4953 24.7972 20.7543 25.0935C22.4773 27.1181 24.8083 27.7897 27.5786 27.4934C28.1417 27.4342 28.6935 27.365 29.2453 27.286C29.5494 27.3058 29.8309 27.2564 30.0223 27.4737Z" fill="#2C4BFE"/>
<path d="M30.022 27.4737C29.3238 27.444 28.6481 27.5922 27.9724 27.6811C26.1819 27.9181 24.4589 27.8095 22.8485 27.0391C21.8237 26.5453 21.0354 25.7947 20.3823 24.9453C20.2246 24.7379 20.1007 24.5206 19.9544 24.3132C19.7291 24.1552 19.5489 23.9676 19.4701 23.7206C19.0422 22.2787 18.7719 20.8269 19.1998 19.3454C19.2787 19.0886 19.3237 18.8319 19.5827 18.6442C19.9769 18.5454 20.2359 18.2788 20.5287 18.0516C22.6345 16.4418 25.0445 16.1554 27.6346 16.8368C28.8958 17.1726 30.1909 17.5084 31.2495 18.2788C32.3756 19.1084 33.2202 20.1158 33.7157 21.3404C33.9522 21.933 34.2112 22.5157 34.4252 23.1083C34.6053 23.6021 34.8981 24.0367 35.3936 24.3527C35.5738 24.4713 35.7202 24.6293 35.799 24.8169C35.8216 24.8663 35.8216 24.9157 35.8216 24.9651C35.754 25.3009 35.5288 25.5675 35.3261 25.8441C35.2472 25.9626 35.1459 26.0712 35.0558 26.1799C34.7855 26.486 34.5603 26.8119 34.3238 27.1379C34.2788 27.2169 34.2225 27.2959 34.1661 27.3749C33.9071 27.7107 33.8058 28.1551 33.3328 28.3428C32.8936 28.2934 32.5558 28.0564 32.2067 27.8588C31.5085 27.4835 30.799 27.3453 30.022 27.4737Z" fill="#FE4F66"/>
<path d="M34.1665 27.0786C34.3579 26.7132 34.6282 26.3972 34.921 26.091C35.7994 26.2391 36.6778 26.407 37.5674 26.1996C37.635 26.1799 37.7138 26.1601 37.7814 26.1305C37.8377 26.1108 37.894 26.1108 37.9503 26.1108C38.6485 26.3478 39.1327 26.8515 39.7183 27.207C41.7229 28.4317 43.7837 29.5872 45.6981 30.9205C45.7544 30.9798 45.7769 31.0391 45.7769 31.1181C45.608 31.7798 45.9346 32.3032 46.3963 32.7674C46.8918 33.2612 47.4436 33.7057 48.0742 34.0711C49.4031 34.8415 50.5968 35.7698 52.0157 36.4217C52.9391 36.8464 53.9076 37.0143 54.9436 36.9451C55.2252 36.9254 55.5067 36.8859 55.6418 36.6093C55.8446 36.5106 56.0022 36.6093 56.1599 36.6982C57.3085 37.3105 58.3896 38.0216 59.5495 38.6241C59.6058 38.6834 59.6396 38.7525 59.6171 38.8315C58.9752 39.908 59.3919 41.2512 60.6531 42.0907C61.3513 42.5549 62.0721 42.9993 62.8153 43.4141C64.4482 44.3228 65.9122 45.419 67.455 46.4264C67.759 46.6239 68.0631 46.8116 68.4347 46.8709C68.4798 46.9005 68.5023 46.94 68.4798 46.9894C68.4685 47.0091 68.4685 47.019 68.4572 47.0387C67.4099 48.1054 67.2523 48.1153 65.9234 47.3647C63.4459 45.9721 60.991 44.5203 58.4572 43.2166C56.554 42.2388 54.6283 41.3105 52.7815 40.2537C49.7184 38.5056 46.6778 36.7278 43.7386 34.8019C43.6823 34.7624 43.626 34.7131 43.581 34.6736C43.5584 34.6341 43.5472 34.5847 43.5472 34.5452C43.7161 33.8439 43.4008 33.2514 42.9954 32.6983C42.59 32.1452 42.0269 31.7107 41.4188 31.3156C39.403 29.9823 37.2972 28.7774 35.0899 27.691C34.7634 27.5231 34.3917 27.3848 34.1665 27.0786Z" fill="#F9B774"/>
<path d="M59.482 38.6932C58.6374 38.4463 57.9842 37.913 57.2522 37.5179C56.7229 37.2315 56.1936 36.9352 55.6644 36.6389C55.563 36.7179 55.4504 36.6784 55.349 36.6389C52.6125 35.3056 49.9323 33.9131 47.3873 32.323C46.903 32.0168 46.3625 31.7798 45.9684 31.365C45.9458 31.3156 45.9346 31.2662 45.9571 31.2168C46.4976 30.6835 47.1846 30.7724 47.8265 30.9304C48.5022 31.0983 49.1553 31.365 49.7747 31.681C51.3288 32.481 52.8941 33.2513 54.5157 33.9229C54.8761 34.0711 55.2252 34.2291 55.6193 34.2982C56.9482 34.5254 58.0855 35.1081 59.1892 35.7599C59.3581 35.8587 59.5383 35.9575 59.7184 36.0365C60.7094 36.5599 61.7004 37.0735 62.6351 37.6759C63.6149 38.308 64.7072 38.792 65.7207 39.3747C66.8919 40.0463 68.0406 40.7475 69.2005 41.4487C69.3807 41.5574 69.5834 41.666 69.6509 41.8734C69.7072 42.0314 69.9212 42.2092 69.7298 42.3672C69.5496 42.5055 69.3356 42.3672 69.1667 42.2783C68.1306 41.6956 67.0946 41.103 66.0924 40.471C64.7523 39.6216 63.3221 38.9204 61.7567 38.4266C61.0585 38.1994 60.4166 38.1599 59.7973 38.5846C59.7072 38.634 59.5833 38.6537 59.482 38.6932Z" fill="#C86E12"/>
<path d="M35.7091 24.8861C34.2676 23.9775 34.0649 22.496 33.4455 21.1923C32.7248 19.6615 31.5874 18.3973 29.8081 17.7257C28.1978 17.1134 26.5424 16.5899 24.718 16.6986C23.2203 16.7875 21.9365 17.2813 20.7878 18.0911C20.4612 18.3282 20.2248 18.7035 19.718 18.7035C19.5378 18.4862 19.6955 18.2986 19.8081 18.1109C20.9567 16.1159 22.9162 15.1381 25.3487 14.7727C26.1144 14.6542 26.9027 14.5949 27.6798 14.8023C28.1189 15.2863 28.8171 15.2863 29.414 15.4937C30.0784 15.7307 30.6753 16.0369 31.2045 16.4616C32.1055 17.1726 32.9613 17.9134 33.5582 18.8615C33.6483 19.0096 33.6933 19.1677 33.7834 19.3454C33.7383 19.2072 33.7271 19.1183 33.8397 19.0492C33.9974 19.1282 34.0649 19.2664 34.1438 19.3948C34.3127 19.78 34.4929 20.1553 34.6618 20.5405C35.1235 21.5874 35.9681 22.3577 36.9478 23.0392C37.0942 23.138 37.2068 23.2762 37.3307 23.3947C37.0379 23.8787 36.4636 24.1355 36.1145 24.5799C36.0019 24.7083 35.9005 24.8466 35.7091 24.8861Z" fill="#BB2C3F"/>
<path d="M45.6304 30.9995C45.1574 30.8909 44.8309 30.5847 44.4705 30.328C42.8939 29.2218 41.1484 28.3428 39.5268 27.286C38.9862 26.9305 38.4795 26.5552 37.9502 26.1898C38.2993 25.7354 38.761 25.3503 39.0989 24.8762C39.2227 24.7083 39.4254 24.6688 39.6394 24.7774C39.7633 24.8466 39.8871 24.9157 40.011 24.9848C40.5853 25.2219 40.957 25.5972 41.2835 26.091C42.0268 27.2366 43.0628 28.0761 44.6957 28.1058C45.0448 28.1156 45.3939 28.2045 45.7092 28.3527C45.8669 28.4218 46.0246 28.4909 46.1822 28.5601C46.4412 28.728 46.7002 28.886 46.9705 29.0341C49.2678 30.3675 51.7228 31.4934 53.9525 32.9156C54.2115 33.0736 54.4255 33.281 54.7296 33.3797L54.7521 33.3896C54.8647 33.4785 55.1462 33.4785 55.0561 33.6662C54.9548 33.8736 54.6958 33.8341 54.5156 33.755C53.8624 33.4686 53.1868 33.2415 52.5336 32.9452C51.3286 32.4119 50.2476 31.681 49.0088 31.2168C48.7836 31.1279 48.5584 31.0588 48.3331 30.9699C47.4322 30.6144 46.5313 30.6539 45.6304 30.9995Z" fill="#C86E12"/>
<path d="M43.6034 34.6044C43.6034 34.6241 43.5921 34.6538 43.5809 34.6735C42.1394 33.9328 40.8894 32.9847 39.5381 32.1452C37.8263 31.0687 36.1259 29.9724 34.4142 28.8959C34.0651 28.6786 33.6259 28.6094 33.3105 28.3527C33.547 27.9971 33.7835 27.6416 34.0087 27.286C36.7565 28.728 39.5155 30.1403 41.993 31.9378C42.984 32.6192 43.412 33.5575 43.6034 34.6044Z" fill="#F8B672"/>
<path d="M0.821582 0.530989C2.37564 0.669258 3.94097 0.807527 5.50629 0.945796C5.83287 0.975425 6.04683 1.17295 6.21575 1.39023C6.84639 2.20997 7.46576 3.02971 8.07387 3.84944C8.13017 3.92845 8.18648 4.02722 8.209 4.11611C8.27657 4.34326 8.34414 4.58029 8.09639 4.75807C7.84864 4.93584 7.61215 4.8272 7.36441 4.72844C6.15945 4.26425 5.07836 3.62229 3.94097 3.04946C2.84862 2.49638 1.71123 1.98281 0.596356 1.44949C0.585094 1.44949 0.562572 1.43961 0.551311 1.42974C0.303562 1.28159 -0.0680618 1.13345 0.0107674 0.866785C0.0895966 0.600123 0.472481 0.521112 0.821582 0.530989Z" fill="#2A49FC"/>
<path d="M68.4907 46.9992C68.4794 46.9795 68.4682 46.9498 68.4682 46.9301C67.6236 46.3079 66.7001 45.7745 65.8443 45.1721C64.3465 44.1351 62.7925 43.1672 61.1708 42.2783C60.7091 42.0215 60.3262 41.6857 60.0222 41.2808C59.4704 40.5401 59.2677 39.75 59.6956 38.9006C59.7632 38.8512 59.8533 38.8413 59.9321 38.8512C61.1033 39.4537 62.2069 40.1648 63.3555 40.7969C63.5132 40.8858 63.6596 40.9845 63.7046 41.1623C63.6934 42.1104 64.0762 42.8413 64.9884 43.4141C66.2497 44.2042 67.5447 44.9647 68.7947 45.7647C69.0538 45.9326 69.3128 45.9227 69.583 45.9029C69.6168 45.9227 69.6393 45.9424 69.6393 45.9721C69.6393 46.0017 69.6281 46.0116 69.6168 46.0116C69.2902 46.377 68.9411 46.7326 68.4907 46.9992Z" fill="#F9B773"/>
<path d="M69.6172 46.0116C69.606 45.982 69.5947 45.9523 69.5835 45.9227C69.4371 45.9128 69.2907 45.8832 69.1555 45.8042C67.669 44.8561 66.0812 44.0363 64.696 42.9796C63.9978 42.4561 63.9077 42.1598 64.1555 41.587C64.437 41.4586 64.6623 41.6067 64.8875 41.7154C66.5429 42.5549 68.0744 43.5524 69.7073 44.4215C69.9551 44.5499 70.1015 44.7672 70.2254 44.9845C70.2479 45.0635 70.2479 45.1326 70.1916 45.2017C70.2028 45.577 69.9663 45.8338 69.6172 46.0116Z" fill="#F9B772"/>
<path d="M45.6304 30.9995C46.1371 30.4465 46.8353 30.4563 47.5223 30.5847C48.8398 30.8316 49.9998 31.4045 51.1259 32.0365C52.2295 32.6588 53.4457 33.1032 54.6056 33.6168C54.7183 33.6661 54.8421 33.7155 54.9773 33.6464C55.0111 33.4982 54.7858 33.4983 54.7633 33.3797C55.2588 33.4291 55.5854 33.755 55.957 33.9822C57.0381 34.634 58.243 35.0883 59.3129 35.7599C59.448 35.8488 59.5719 35.9476 59.6958 36.0365C59.3579 36.0463 59.1552 35.8291 58.9075 35.6908C58.0291 35.197 57.1507 34.7328 56.0809 34.5748C54.6845 34.3674 53.4908 33.6859 52.252 33.1229C50.7993 32.4612 49.448 31.6217 47.8939 31.1279C47.2295 30.9106 46.5876 30.9699 45.9682 31.2761C45.7542 31.3946 45.7542 31.2267 45.7205 31.1181C45.6979 31.0785 45.6642 31.039 45.6304 30.9995Z" fill="#A3590E"/>
<path d="M70.2027 45.2017C70.1914 45.1425 70.1914 45.0832 70.1802 45.0141C69.8986 44.5894 69.9549 44.0857 69.8198 43.6314C69.7297 43.3252 69.5833 43.0882 69.268 42.9203C67.6126 42.0413 66.0585 41.0339 64.4594 40.0858C63.4909 39.513 62.3761 39.1772 61.295 38.8117C60.9797 38.713 60.6756 38.7031 60.3715 38.871C60.2251 38.95 60.0675 39.0093 59.8986 38.9401C59.8423 38.9302 59.7747 38.9204 59.7184 38.9105C59.6396 38.9105 59.6058 38.8809 59.5833 38.8216C59.5495 38.7821 59.5157 38.7327 59.4932 38.6932C59.876 38.1698 60.608 37.9426 61.2837 38.1105C63.0968 38.5846 64.7184 39.3846 66.25 40.3524C67.3536 41.0537 68.491 41.7055 69.6396 42.3277C69.7973 42.1401 69.5946 42.0117 69.6509 41.8734C69.9324 42.0907 69.9211 42.4067 69.9887 42.6833C70.1576 43.3351 70.2928 43.9968 70.3941 44.6684C70.4054 44.8363 70.5405 45.0931 70.2027 45.2017Z" fill="#A3590E"/>
<path d="M8.40035 18.0121C7.91611 18.0121 7.43187 18.0121 6.93638 18.0121C6.71115 18.0121 6.54223 17.943 6.37331 17.8245C5.53997 17.222 4.90934 16.4714 4.35753 15.6616C4.26744 15.5332 4.2787 15.4147 4.41384 15.306C4.56024 15.1875 4.70663 15.1974 4.87555 15.2764C6.14808 15.869 7.48818 16.3529 8.7044 17.0344C8.92963 17.1529 9.15486 17.2615 9.38008 17.3801C9.53774 17.4591 9.74045 17.548 9.6954 17.7455C9.65035 17.9331 9.44765 17.9726 9.27873 18.0418C8.98594 18.1504 8.69314 18.0418 8.40035 18.0121Z" fill="#2746F7"/>
<path d="M45.7319 28.3527C44.9999 28.2441 44.2567 28.3231 43.536 28.0959C42.4211 27.7502 41.6891 27.049 41.1373 26.1997C40.8332 25.7355 40.5855 25.2614 40.0337 24.9849C40.7995 25.1626 41.3738 25.6169 41.9594 26.0318C43.0405 26.7922 44.2004 27.4243 45.349 28.0762C45.4729 28.165 45.5968 28.2638 45.7319 28.3527Z" fill="#A45A0F"/>
<path d="M35.9683 24.5108C36.3737 24.0959 36.7566 23.6614 37.3196 23.4046C37.7701 23.5034 38.1192 23.7404 38.457 24.0169C38.4908 24.0663 38.4908 24.1256 38.4683 24.1848C37.725 24.8564 36.6439 25.0046 35.9683 24.5108Z" fill="#AC5E0D"/>
<path d="M38.4232 24.1058C38.4345 24.0663 38.4345 24.0367 38.4457 23.9972C38.8624 24.2441 39.3241 24.4416 39.662 24.7774C39.2453 24.7774 39.1439 25.0935 38.975 25.3305C38.716 25.686 38.4457 26.0218 37.9728 26.1799C37.939 26.1799 37.9052 26.1799 37.8714 26.1897C37.6687 26.2292 37.5561 26.1305 37.466 25.9922C37.3759 25.7552 37.5223 25.6169 37.7363 25.5181C37.9615 25.4194 38.1079 25.2515 38.2656 25.0836C38.5246 24.7873 38.6485 24.4713 38.4232 24.1058Z" fill="#A3590D"/>
<path d="M54.7521 33.3698C54.3918 33.3501 54.1553 33.1624 53.9751 32.9056C54.2679 33.0143 54.5382 33.1624 54.7521 33.3698Z" fill="#A3590E"/>
<path d="M46.9817 29.0341C46.6438 28.9749 46.3848 28.8169 46.1934 28.5601C46.5312 28.6292 46.7677 28.807 46.9817 29.0341Z" fill="#A45A0F"/>
<path d="M27.7475 14.99C25.1462 14.4764 21.4074 15.6517 20.1124 18.0121C19.9885 18.2492 19.752 18.4368 19.7182 18.7035C19.2115 19.5232 19.1777 20.4219 19.234 21.3207C19.3016 22.3478 19.493 23.3651 19.966 24.3231C18.3218 23.8787 16.6777 23.4244 15.0448 22.9799C14.4704 22.8219 13.8961 22.6738 13.3218 22.5355C13.1191 22.4861 12.9276 22.4367 12.77 22.3182C12.4209 22.0417 12.4772 21.7849 12.9051 21.617C13.029 21.5676 13.1416 21.5182 13.2542 21.4688C13.3781 21.1726 13.7047 21.1726 13.975 21.1133C14.2114 21.0639 14.4479 21.0442 14.6619 20.9355C15.6078 20.7972 16.5087 20.5306 17.4209 20.2639C18.3894 20.017 18.457 20.1553 17.8151 19.3553C16.1033 17.2319 14.3916 15.1085 12.7925 12.9159C12.6123 12.6789 12.3533 12.4517 12.4772 12.1159C12.7024 11.7801 13.0515 11.7801 13.4119 11.8888C14.7632 12.3135 16.1259 12.6986 17.4772 13.1036C18.9412 13.5381 20.3151 14.1801 21.8128 14.5258C22.3646 14.6542 22.4547 14.6147 22.511 14.1011C22.5561 13.6962 22.5448 13.2813 22.9052 12.9554C22.984 12.0369 23.0741 11.1184 23.1304 10.1999C23.1529 9.75549 23.3444 9.63698 23.7948 9.84438C24.3016 9.93327 24.4255 10.3678 24.6957 10.6542C25.7993 11.8394 26.8692 13.0542 27.8151 14.348C27.8827 14.4468 27.9728 14.5356 27.939 14.6542C27.984 14.743 28.0178 14.8221 28.0629 14.9109C28.0403 14.9505 28.0066 14.9801 27.9728 14.9998C27.8827 14.9998 27.8151 14.9801 27.7475 14.99Z" fill="#FEF122"/>
<path d="M22.8827 12.9456C22.7926 13.4493 22.7025 13.9431 22.6237 14.4468C22.5674 14.832 22.2971 14.8221 21.9705 14.7431C20.7543 14.427 19.5831 13.9925 18.4007 13.5875C16.7002 13.0048 14.9209 12.6098 13.2317 11.9974C12.984 11.9086 12.725 12.0172 12.5335 12.1851C12.4209 12.1456 12.4097 12.0567 12.4097 11.9678C12.6462 11.6616 12.9953 11.6123 13.3556 11.711C13.9074 11.8493 14.448 12.0271 14.9885 12.1851C16.1597 12.5406 17.3309 12.8764 18.4908 13.2517C19.3579 13.5283 20.2138 13.8542 21.0696 14.1604C21.3624 14.269 21.689 14.2394 21.9931 14.3579C22.2408 14.4567 22.2971 14.2097 22.3084 14.0616C22.3647 13.3209 22.6012 12.59 22.5786 11.8295C22.5561 11.1777 22.7363 10.5259 22.9165 9.87402C22.9503 10.9012 22.8264 11.9184 22.8827 12.9456Z" fill="#2141F0"/>
<path d="M12.4209 11.9678C12.466 12.0369 12.4998 12.1159 12.5448 12.1851C12.5223 12.4814 12.7926 12.6394 12.9502 12.8567C14.5944 15.1776 16.3962 17.3899 18.2092 19.6022C18.6484 20.1454 18.6484 20.1454 17.8939 20.2936C17.7701 20.3232 17.6349 20.343 17.511 20.3627C16.5651 20.5899 15.6191 20.817 14.6732 21.0442C14.2453 21.3207 13.7047 21.2812 13.243 21.459C13.0403 21.4787 12.8489 21.4886 12.511 21.5182C12.9615 21.1627 13.4344 21.0639 13.8399 20.9849C15.0336 20.7479 16.1935 20.3923 17.3759 20.1059C18.0516 19.938 18.0628 19.8788 17.6574 19.3652C16.2948 17.6665 14.9209 15.9677 13.5808 14.2394C13.1642 13.6962 12.7137 13.1727 12.4322 12.5505C12.3308 12.3629 12.2182 12.1653 12.4209 11.9678Z" fill="#1435F6"/>
<path d="M8.55793 7.43454C8.79442 7.56293 9.03091 7.69132 9.25613 7.83947C9.41379 7.94811 9.48136 8.10613 9.36875 8.27403C9.25613 8.4518 9.06469 8.55057 8.85073 8.4518C8.08496 8.09625 7.2291 8.00737 6.41828 7.77033C6.19306 7.71108 6.00162 7.57281 6.04666 7.33577C6.09171 7.08886 6.31693 6.98022 6.57594 6.98022C6.91378 6.98022 7.24036 7.01973 7.5782 7.03948C7.98361 7.01973 8.29892 7.158 8.55793 7.43454Z" fill="#F5F317"/>
<path d="M27.7476 14.99C27.8264 14.99 27.9052 14.99 27.984 14.99C28.412 15.1282 28.885 15.1381 29.2904 15.3258C29.403 15.3554 29.5268 15.3949 29.6395 15.4245C29.8985 15.5727 30.18 15.6912 30.4615 15.7998C31.8354 16.6887 33.0404 17.6961 33.8174 19.059C33.8061 19.3257 34.0314 19.5331 34.0989 19.8392C33.8174 19.7306 33.7498 19.5232 33.6597 19.3751C32.9615 18.0516 31.8016 17.0837 30.5404 16.2048C29.966 15.7998 29.2791 15.4838 28.5133 15.4344C28.1417 15.4048 27.9728 15.1677 27.7476 14.99Z" fill="#CB282A"/>
<path d="M27.9161 14.6443C26.5985 13.0048 25.1909 11.4147 23.7719 9.82462C23.7494 9.56783 23.4116 9.64684 23.2539 9.46907C23.7269 9.32093 23.9746 9.62709 24.1661 9.83449C25.63 11.4246 27.0264 13.0641 28.344 14.7529C28.3553 14.7727 28.344 14.8122 28.344 14.8615C28.1864 14.7825 28.0512 14.7134 27.9161 14.6443Z" fill="#0E31FA"/>
<path d="M31.5088 14.9307C31.5088 14.664 31.6101 14.5258 31.8466 14.4665C32.0606 14.4171 32.2295 14.4962 32.3196 14.6542C32.4885 14.9801 32.6349 15.3159 32.68 15.6813C32.7025 15.9085 32.5448 16.0468 32.3083 16.1159C32.1169 16.1751 31.9592 16.0863 31.8917 15.948C31.7453 15.5924 31.6214 15.2369 31.5088 14.9307Z" fill="#E9E923"/>
<path d="M17.2858 27.2959C17.3196 27.2959 17.1845 27.3156 17.0606 27.2959C16.8354 27.2564 16.689 27.1181 16.6665 26.9305C16.6439 26.7428 16.8241 26.6539 16.993 26.5848C17.3084 26.4663 17.6462 26.486 17.984 26.486C18.2656 26.486 18.4458 26.6441 18.4795 26.8712C18.5133 27.1181 18.2656 27.1971 18.0516 27.2465C17.8714 27.2761 17.6575 27.2663 17.2858 27.2959Z" fill="#E9EA23"/>
<path d="M22.7925 7.81972C22.8488 8.13576 22.7137 8.30366 22.4547 8.37279C22.2069 8.44193 22.0042 8.34316 21.9029 8.13576C21.8353 7.99749 21.8015 7.85922 21.7452 7.71108C21.6326 7.43454 21.5425 7.12838 21.9592 7.00986C22.3646 6.89134 22.4997 7.19751 22.6348 7.44442C22.7024 7.59256 22.7587 7.73083 22.7925 7.81972Z" fill="#E2E42B"/>
<path d="M8.55798 7.43455C8.19762 7.37529 7.89356 7.2074 7.57825 7.04937C7.28545 6.7037 6.84626 6.89135 6.46338 6.81234C6.56473 6.54568 6.69987 6.45679 7.03771 6.58519C7.74717 6.84197 8.46789 7.04937 9.17735 7.29628C9.65033 7.4543 9.50393 7.92837 9.76294 8.21478C9.43636 7.83948 9.19987 7.39505 8.55798 7.43455Z" fill="#1234F7"/>
<path d="M29.3015 15.3257C28.851 15.2467 28.3893 15.2171 27.9839 14.9899C28.0064 14.9603 28.0177 14.9307 28.0402 14.9011C28.4118 15.1381 28.9524 15.0196 29.3015 15.3257Z" fill="#BB2C3F"/>
<path d="M30.4612 15.7998C30.1347 15.7603 29.8419 15.6616 29.6392 15.4245C29.9657 15.4739 30.236 15.6122 30.4612 15.7998Z" fill="#BB2C3F"/>
<path d="M43.6034 34.6044C43.3894 34.476 43.2768 34.3081 43.243 34.0711C43.1192 33.1624 42.5336 32.4909 41.7453 31.9477C39.8309 30.6341 37.8489 29.3996 35.7092 28.3823C35.1799 28.1354 34.7295 27.77 34.1889 27.5527C34.0425 27.4934 34.0425 27.3749 34.02 27.2663C34.0651 27.1971 34.1214 27.1379 34.1664 27.0687C34.5155 27.0292 34.6957 27.2959 34.9434 27.4243C36.7002 28.323 38.4908 29.1823 40.1124 30.2687C41.1259 30.9501 42.2746 31.4933 43.0516 32.4415C43.5021 32.9945 43.7611 33.5871 43.8174 34.2587C43.8399 34.397 43.9525 34.6241 43.6034 34.6044Z" fill="#FED8B0"/>
<path d="M26.0807 25.1034C25.3149 25.1034 24.5942 24.9552 23.9072 24.6589C23.7158 24.5799 23.4005 24.5503 23.5469 24.2836C23.682 24.017 23.9523 24.1256 24.1775 24.2343C24.7068 24.4614 25.2361 24.6293 25.8442 24.6293C26.4748 24.6293 27.0266 24.5009 27.5221 24.1651C29.4478 22.8713 29.8194 20.6788 27.8149 19.1973C27.6122 19.0492 27.128 18.9405 27.4095 18.6245C27.7023 18.2986 27.9726 18.6442 28.1978 18.822C29.6505 19.938 30.1347 21.5183 29.2338 23.1281C28.7721 23.9577 28.0852 24.5207 27.1843 24.9355C26.8239 25.1034 26.4523 25.1034 26.0807 25.1034Z" fill="#FEF7F8"/>
<path d="M38.423 24.1058C38.8847 24.3231 38.8734 24.6095 38.5806 24.9354C38.3104 25.2416 38.1752 25.6367 37.646 25.7157C37.5221 25.7354 37.5333 25.8638 37.5221 25.9626C37.432 26.0515 37.3306 26.0317 37.218 25.9922C36.8464 25.7749 36.441 25.6169 36.0919 25.37C35.9342 25.2614 35.7653 25.1527 35.7203 24.9651C35.7203 24.9354 35.709 24.9058 35.6978 24.8663C35.7878 24.7379 35.8667 24.6194 35.9568 24.491C36.8577 24.7379 37.6797 24.5799 38.423 24.1058Z" fill="#C96F11"/>
<path d="M25.4728 19.5528C25.8331 19.543 26.216 19.859 26.2385 20.2047C26.2611 20.5207 25.8782 20.8565 25.484 20.8664C25.1124 20.8763 24.7408 20.5503 24.7183 20.2146C24.6957 19.8985 25.0674 19.5726 25.4728 19.5528Z" fill="#FEF0F2"/>
<path d="M24.8305 22.2392C24.8305 22.575 24.4589 22.8614 24.0535 22.8614C23.6593 22.8516 23.3328 22.5355 23.344 22.18C23.3553 21.8639 23.7607 21.5281 24.1211 21.538C24.4927 21.5479 24.8305 21.8935 24.8305 22.2392Z" fill="#FEF2F4"/>
<path d="M37.2857 25.8935C37.3421 25.9626 37.4209 25.9824 37.5222 25.9725C37.6349 26.0515 37.7475 26.1206 37.8601 26.1996C37.8601 26.2194 37.8601 26.2391 37.8488 26.249C37.2745 26.6441 35.4614 26.5453 34.9321 26.091C35.011 25.9922 35.101 25.8935 35.1799 25.7947C35.3713 25.6466 35.5965 25.6762 35.8105 25.7256C36.2947 25.854 36.8128 25.7157 37.2857 25.8935Z" fill="#FED8AF"/>
<path d="M37.2856 25.8934C36.5761 26.0811 35.8779 25.9626 35.1797 25.7947C35.3599 25.5181 35.5401 25.2515 35.7202 24.9749C36.2495 25.2811 36.7675 25.5873 37.2856 25.8934Z" fill="#F9BA76"/>
<path d="M59.5718 38.8216C59.6169 38.8512 59.6619 38.8809 59.707 38.9105C59.7182 39.029 59.8984 39.0981 59.8083 39.266C59.3466 40.1352 59.8421 40.8166 60.4164 41.4586C61.047 42.1796 61.993 42.5647 62.8376 43.0289C64.0651 43.7005 65.1349 44.5499 66.3173 45.2709C66.8804 45.6165 67.4322 45.982 67.984 46.3573C68.198 46.5054 68.4795 46.6239 68.4683 46.9202C68.2318 47.0486 68.0178 47.019 67.8038 46.861C66.5313 45.9227 65.1462 45.1128 63.8399 44.2042C62.8376 43.503 61.6889 42.9598 60.6416 42.2981C59.4254 41.5376 58.9074 40.3919 59.234 39.1179C59.2903 38.9401 59.3241 38.8117 59.5718 38.8216Z" fill="#FED8B1"/>
<path d="M45.7203 31.118C45.7991 31.1674 45.8892 31.2168 45.968 31.2761V31.3156C46.1032 31.4045 46.2608 31.4835 46.2946 31.6415C46.441 32.2736 46.959 32.6686 47.477 33.0341C48.9523 34.1007 50.4838 35.0982 52.128 35.9476C53.0289 36.4118 53.9974 36.5896 55.0334 36.4908C55.1573 36.4809 55.2924 36.4809 55.405 36.55C55.4838 36.5797 55.5627 36.6093 55.6415 36.6389C55.8442 36.8463 55.7879 36.9649 55.4838 37.034C54.3465 37.2908 53.2091 37.1723 52.2181 36.6982C50.0897 35.6809 48.1189 34.4464 46.3397 32.9946C45.7878 32.5402 45.6189 31.9477 45.4613 31.3353C45.405 31.1082 45.5851 31.1378 45.7203 31.118Z" fill="#FED8B0"/>
<path d="M55.4277 36.55C53.7048 37.0044 52.3084 36.3229 50.9795 35.513C49.8534 34.8414 48.7836 34.1007 47.68 33.3995C47.207 33.0933 46.8466 32.6983 46.4299 32.3427C46.0921 32.0563 46.3173 31.5921 45.9795 31.3057C47.0268 31.9279 48.0628 32.56 49.1101 33.1723C51.0809 34.3279 53.1417 35.355 55.2025 36.392C55.2814 36.4513 55.3489 36.5007 55.4277 36.55Z" fill="#F9B773"/>
<path d="M3.82857 1.28159C4.33533 1.46924 4.94344 1.58775 5.42768 1.93343C5.56281 2.03219 5.67543 2.15071 5.57407 2.30873C5.47272 2.47663 5.28128 2.60502 5.06732 2.54576C4.52677 2.37786 3.99749 2.18033 3.46821 1.97293C3.29929 1.9038 3.1529 1.74577 3.22046 1.568C3.31055 1.3606 3.52452 1.28159 3.82857 1.28159Z" fill="#F1F01B"/>
<path d="M59.8984 38.9401C60.484 38.4661 61.0921 38.5648 61.7903 38.7821C63.7273 39.3747 65.3602 40.4117 67.0043 41.429C67.6012 41.7944 68.1755 42.2092 68.8287 42.466C69.8872 42.8808 70.1237 43.6413 70.1575 44.5203C70.1688 44.6882 70.1575 44.8462 70.1688 45.0141C69.5719 44.382 68.7048 44.0758 67.939 43.6413C66.7003 42.94 65.5404 42.1302 64.189 41.587C63.8737 41.5969 63.671 41.4783 63.6034 41.2018C62.5786 40.4808 61.4187 39.9376 60.3601 39.2759C60.2025 39.1772 60.0111 39.0981 59.8984 38.9401Z" fill="#C86E12"/>
<path d="M63.6259 41.2018C63.8286 41.3203 64.0763 41.3895 64.2114 41.587C64.0651 42.2783 64.538 42.6635 65.0786 43.0487C66.52 44.0857 68.1867 44.8561 69.5944 45.9227C69.3466 46.1894 69.1214 46.1696 68.8061 45.9622C67.4998 45.1129 66.1484 44.3227 64.8308 43.503C63.9299 42.9401 63.5921 42.2092 63.4907 41.3203C63.4682 41.2413 63.547 41.2216 63.6259 41.2018Z" fill="#FED8B0"/>
<path d="M5.85552 16.3134C6.15958 16.3332 6.86904 17.0344 6.83526 17.2418C6.77895 17.5084 6.56499 17.548 6.33976 17.4196C6.01318 17.2418 5.81047 16.9653 5.64155 16.6788C5.50642 16.4616 5.69786 16.3628 5.85552 16.3134Z" fill="#E9EB1E"/>
<path d="M14.6729 21.0442C15.1909 20.7281 15.8215 20.7578 16.3958 20.58C16.7449 20.4713 17.1166 20.3034 17.522 20.3627C16.5873 20.6787 15.6526 20.9256 14.6729 21.0442Z" fill="#2C4BFE"/>
</svg>
