<svg width="135" height="13" viewBox="0 0 135 13" fill="none" xmlns="http://www.w3.org/2000/svg">
<path d="M134.297 12.7531C132.958 12.7787 131.983 12.1855 130.773 11.9441C126.687 11.1623 122.73 10.1135 118.644 9.31522C117.596 9.10376 116.574 8.89178 115.501 8.8296C114.295 8.76997 113.481 8.19027 112.274 8.09758C111.094 8.02091 109.964 7.74487 108.808 7.55198C108.57 7.70535 108.664 6.99255 108.298 7.47905C108.272 7.52915 108.057 7.48366 107.95 7.46917C105.665 7.04983 103.382 6.69661 100.994 6.47767C99.3039 6.31154 97.5067 6.16399 95.945 5.73084C94.7333 5.39022 93.4234 5.51446 92.2659 5.20587C91.647 5.05234 90.6391 5.56766 90.3565 4.7959C90.3562 4.77937 90.1956 4.78244 90.1156 4.8005C88.3046 5.33116 86.6881 4.83291 85.0742 4.4669C84.5363 4.3449 84.0579 4.53593 83.5221 4.52963C80.762 4.45008 78.1758 3.6562 75.3405 3.84265C74.538 3.89105 73.8145 3.87181 73.0589 3.57208C72.1685 3.22531 71.1345 3.77419 70.0614 3.67895C68.4522 3.56088 66.8207 3.67472 65.2591 3.24157C64.6131 3.07203 63.6798 3.28828 62.9589 3.40127C61.7573 3.58958 60.7661 3.57544 59.7938 3.14757C59.5777 3.05249 59.4171 3.05556 59.1768 3.09322C56.6929 3.45484 54.1723 3.28804 51.6563 3.36918C49.7026 3.43958 47.7715 3.29459 45.8222 3.59639C44.6206 3.7847 43.4077 3.37796 42.1535 3.61688C41.2461 3.78303 40.3406 4.04836 39.3494 4.03423C38.9475 4.02537 38.47 4.26598 38.1689 3.9245C38.1412 3.87542 37.9796 3.8289 37.9531 3.84595C36.333 4.55484 34.4715 3.84632 32.7121 4.27678C31.9924 4.45588 31.1398 4.68713 30.2841 4.75309C29.2948 4.83813 28.2481 4.72585 27.2623 4.99271C26.9691 5.06445 26.4053 4.99255 26.135 4.86543C25.5946 4.61119 25.2484 4.71702 24.8783 4.97212C24.667 5.12497 24.375 5.26283 24.0525 5.20285C22.3854 4.85439 21.0065 5.57522 19.483 5.73661C16.3554 6.04439 13.4257 6.89405 10.299 7.25142C7.92072 7.52836 5.68417 8.21595 3.30557 8.47636C2.18303 8.59701 1.49928 9.25496 0.346179 9.17777C-0.199366 8.65907 0.439066 8.43192 1.05134 8.23833C3.89859 7.2745 6.47274 6.03478 9.42864 5.15154C9.85479 5.02766 10.1184 4.80766 10.1124 4.49361C13.4954 3.53607 17.1307 3.16899 20.7399 2.83547C24.0814 2.50706 27.4237 2.22824 30.7372 1.83423C37.3901 1.01265 44.0561 0.868759 50.7733 0.608139C55.8849 0.411268 60.9247 0.662219 65.9893 0.813483C68.6691 0.894567 71.3749 0.942081 74.0556 1.07275C75.9857 1.16816 77.9181 1.37927 79.8224 1.52477C82.1827 1.71117 84.5415 1.81492 86.8764 2.06794C91.4116 2.54349 95.9465 3.00251 100.457 3.59427C103.947 4.04018 107.359 4.57027 110.772 5.18301C113.62 5.69078 116.521 6.11489 119.343 6.65623C121.037 6.97112 122.626 7.43681 124.293 7.81833C125.396 8.07835 126.577 8.17155 127.575 8.58238C127.34 8.90104 127.479 9.14642 127.938 9.3526C128.722 9.70141 129.373 10.152 130.077 10.5519C130.862 11.0164 131.648 11.4644 132.697 11.742C133.397 11.8939 134.178 12.1601 134.297 12.7531Z" fill="#FEDD41"/>
</svg>
